<svg width="124" height="124" viewBox="0 0 124 124" fill="none" xmlns="http://www.w3.org/2000/svg">
<path d="M61.7787 10.3691C55.0394 10.3691 48.3661 11.6965 42.1399 14.2755C35.9136 16.8546 30.2563 20.6347 25.4909 25.4001C15.8667 35.0242 10.46 48.0773 10.46 61.6879C10.46 84.3708 25.1884 103.615 45.562 110.441C48.1279 110.851 48.949 109.26 48.949 107.875V99.2019C34.7337 102.281 31.7059 92.3252 31.7059 92.3252C29.3453 86.3722 26.0095 84.7813 26.0095 84.7813C21.3395 81.5995 26.3688 81.7022 26.3688 81.7022C31.5006 82.0614 34.2205 86.988 34.2205 86.988C38.6853 94.7885 46.2291 92.4791 49.1543 91.2475C49.6162 87.9118 50.9504 85.6537 52.3874 84.3708C40.9946 83.0878 29.0373 78.6744 29.0373 59.1219C29.0373 53.4256 30.9875 48.8582 34.3232 45.2146C33.81 43.9316 32.0138 38.5944 34.8364 31.6664C34.8364 31.6664 39.1471 30.2808 48.949 36.9009C53.0032 35.7719 57.4166 35.2074 61.7787 35.2074C66.1408 35.2074 70.5542 35.7719 74.6084 36.9009C84.4103 30.2808 88.721 31.6664 88.721 31.6664C91.5436 38.5944 89.7474 43.9316 89.2342 45.2146C92.5699 48.8582 94.52 53.4256 94.52 59.1219C94.52 78.7257 82.5115 83.0365 71.0674 84.3194C72.9149 85.9103 74.6084 89.0408 74.6084 93.8134V107.875C74.6084 109.26 75.4295 110.903 78.0467 110.441C98.4203 103.564 113.097 84.3708 113.097 61.6879C113.097 54.9486 111.77 48.2753 109.191 42.049C106.612 35.8228 102.832 30.1654 98.0665 25.4001C93.3011 20.6347 87.6438 16.8546 81.4175 14.2755C75.1912 11.6965 68.518 10.3691 61.7787 10.3691Z" fill="#363636"/>
</svg>
