<svg width="125" height="124" viewBox="0 0 125 124" fill="none" xmlns="http://www.w3.org/2000/svg">
<path d="M70.0419 0.104319C69.1121 0.134049 68.1973 0.348036 67.3508 0.733879C66.5042 1.11972 65.7426 1.66975 65.1102 2.35208L37.3673 32.0554L17.5891 53.2295C14.7137 56.3004 12.5899 59.9964 11.3846 64.0269C11.1246 64.8926 10.9104 65.7713 10.7431 66.6596C9.96979 70.6754 10.0783 74.8113 11.0613 78.7811C11.5009 80.5709 12.1003 82.3176 12.8523 84.0002C14.4171 87.4945 16.6304 90.6604 19.3749 93.3299L41.324 114.848L41.5241 115.043C53.0606 126.153 71.5558 125.989 82.9024 114.663L95.1984 102.388C97.9696 99.6165 97.9696 95.1312 95.2138 92.3549C93.8878 91.0257 92.0883 90.2774 90.2108 90.2745C88.3333 90.2716 86.5315 91.0144 85.2015 92.3395L72.9055 104.615C70.0393 107.446 66.1835 109.049 62.1553 109.085C58.127 109.122 54.2429 107.588 51.326 104.81L51.2233 104.712L29.2795 83.1945C25.9335 79.9101 24.2913 75.6558 24.4144 71.581C24.4395 70.6775 24.553 69.7785 24.7531 68.8971C25.2701 66.6619 26.3656 64.6019 27.9298 62.9236L47.7029 41.7443C53.1324 35.9248 64.1454 35.2269 70.4371 40.3177L88.4038 54.846C91.447 57.3093 95.9014 56.832 98.3596 53.7837C99.5379 52.3194 100.088 50.4476 99.8887 48.5786C99.6896 46.7096 98.7577 44.9957 97.2973 43.8125L79.3357 29.2842C75.2302 25.9638 70.2729 23.9213 65.0999 23.1156L75.4407 12.0411C76.3939 11.0161 77.023 9.73241 77.249 8.3511C77.4751 6.9698 77.288 5.5525 76.7112 4.2772C76.1344 3.00189 75.1936 1.92544 74.0071 1.18303C72.8205 0.440611 71.4411 0.0653322 70.0419 0.104319ZM55.334 65.8693C54.4031 65.8693 53.4813 66.0528 52.6214 66.4093C51.7616 66.7659 50.9804 67.2885 50.3226 67.9472C49.6649 68.6059 49.1434 69.3878 48.7881 70.2482C48.4328 71.1086 48.2506 72.0306 48.252 72.9615C48.2506 73.8924 48.4328 74.8144 48.7881 75.6748C49.1434 76.5352 49.6649 77.3172 50.3226 77.9759C50.9804 78.6346 51.7616 79.1572 52.6214 79.5137C53.4813 79.8702 54.4031 80.0538 55.334 80.0538H107.541C108.471 80.0538 109.393 79.8702 110.253 79.5137C111.113 79.1572 111.894 78.6346 112.552 77.9759C113.21 77.3172 113.731 76.5352 114.086 75.6748C114.442 74.8144 114.624 73.8924 114.623 72.9615C114.624 72.0306 114.442 71.1086 114.086 70.2482C113.731 69.3878 113.21 68.6059 112.552 67.9472C111.894 67.2885 111.113 66.7659 110.253 66.4093C109.393 66.0528 108.471 65.8693 107.541 65.8693H55.334Z" fill="#363636"/>
</svg>
