<svg width="124" height="124" viewBox="0 0 124 124" fill="none" xmlns="http://www.w3.org/2000/svg">
<path d="M97.506 15.3965C100.228 15.3965 102.839 16.4778 104.764 18.4027C106.688 20.3275 107.77 22.9381 107.77 25.6602V97.5065C107.77 100.229 106.688 102.839 104.764 104.764C102.839 106.689 100.228 107.77 97.506 107.77H25.6597C22.9376 107.77 20.327 106.689 18.4022 104.764C16.4774 102.839 15.396 100.229 15.396 97.5065V25.6602C15.396 22.9381 16.4774 20.3275 18.4022 18.4027C20.327 16.4778 22.9376 15.3965 25.6597 15.3965H97.506ZM94.94 94.9405V67.7416C94.94 63.3045 93.1774 59.0492 90.04 55.9118C86.9025 52.7743 82.6472 51.0117 78.2101 51.0117C73.848 51.0117 68.7675 53.6803 66.3042 57.6831V51.9867H51.9863V94.9405H66.3042V69.6404C66.3042 65.6888 69.4859 62.4558 73.4375 62.4558C75.343 62.4558 77.1704 63.2127 78.5178 64.5601C79.8652 65.9075 80.6221 67.7349 80.6221 69.6404V94.9405H94.94ZM35.3077 43.9297C37.5942 43.9297 39.7872 43.0214 41.404 41.4045C43.0209 39.7877 43.9292 37.5947 43.9292 35.3082C43.9292 30.5355 40.0803 26.6353 35.3077 26.6353C33.0075 26.6353 30.8015 27.549 29.175 29.1755C27.5485 30.802 26.6348 33.008 26.6348 35.3082C26.6348 40.0808 30.535 43.9297 35.3077 43.9297ZM42.441 94.9405V51.9867H28.2257V94.9405H42.441Z" fill="#363636"/>
</svg>
