<svg width="124" height="124" viewBox="0 0 124 124" fill="none" xmlns="http://www.w3.org/2000/svg">
<path d="M37.7642 57.1073V48.8706C37.7642 48.3831 37.7642 48.1881 38.4005 48.1881C43.8557 48.1881 48.2896 47.8648 50.4912 49.1631C52.6979 50.4564 52.7903 52.2423 52.8262 52.776C52.8621 53.3097 52.8467 54.0743 51.8204 55.9372C50.794 57.8001 46.201 57.836 42.8858 57.836H38.498C37.9592 57.836 37.7642 57.641 37.7642 57.1073ZM52.8827 65.7391C53.3909 66.3879 53.7537 67.1384 53.9465 67.9398C54.1392 68.7411 54.1573 69.5745 53.9996 70.3835C53.8419 71.1924 53.512 71.958 53.0324 72.6283C52.5528 73.2986 51.9347 73.8579 51.2199 74.2683C50.17 74.71 49.0438 74.9419 47.9047 74.9508H38.4467C37.9592 74.9508 37.7642 74.9508 37.7642 74.3196V64.569C37.7642 64.0815 37.7642 63.8865 38.4005 63.8865H44.6871C48.5873 63.8865 51.0249 63.5478 52.8827 65.7391Z" fill="#363636"/>
<path d="M87.2083 61.2194C86.9468 60.6028 86.5499 60.053 86.0471 59.6106C85.5443 59.1682 84.9485 58.8446 84.3036 58.6637C83.0147 58.3116 81.6657 58.237 80.3458 58.4449C79.0259 58.6528 77.7651 59.1384 76.6469 59.8697C75.5324 60.9957 74.8123 62.4522 74.5941 64.0214C74.5941 64.5705 74.5941 64.6731 75.2459 64.6731H87.4084C88.0088 64.6731 88.0088 64.6731 87.9575 63.9188C87.9 62.9757 87.648 62.0556 87.2083 61.2194ZM87.2083 61.2194C86.9468 60.6028 86.5448 60.053 86.042 59.6106C85.5392 59.1682 84.9485 58.8446 84.3036 58.6637C83.0147 58.3116 81.6657 58.237 80.3458 58.4449C79.0259 58.6528 77.7651 59.1384 76.6469 59.8697C75.5324 60.9957 74.8071 62.4522 74.589 64.0214C74.589 64.5705 74.589 64.6731 75.2407 64.6731H87.4084C88.0088 64.6731 88.0088 64.6731 87.9575 63.9188C87.9 62.9757 87.6378 62.0556 87.198 61.2194M92.9098 12.9336H32.8668C27.5587 12.9336 22.468 15.0422 18.7146 18.7956C14.9612 22.5491 12.8525 27.6398 12.8525 32.9479V92.9908C12.8525 98.2989 14.9612 103.39 18.7146 107.143C22.468 110.896 27.5587 113.005 32.8668 113.005H92.9098C98.2179 113.005 103.309 110.896 107.062 107.143C110.815 103.39 112.924 98.2989 112.924 92.9908V32.9479C112.924 27.6398 110.815 22.5491 107.062 18.7956C103.309 15.0422 98.2179 12.9336 92.9098 12.9336ZM73.2957 44.8025C73.2957 44.4074 73.2957 44.2534 73.7474 44.2534H89.9589V48.4616C89.9589 48.4616 89.9743 48.7592 89.7075 48.7592H73.9988C73.2957 48.7592 73.2957 48.7592 73.2957 48.0613V44.8025ZM58.285 81.5827C52.1268 84.9338 41.7758 83.5841 29.5157 83.5841V42.1032H49.0784C54.082 42.1032 60.035 43.3553 61.6361 48.6566C62.4675 50.972 62.4169 53.5125 61.494 55.7929C60.571 58.0734 58.8404 59.9339 56.6326 61.0192C58.6676 61.7723 60.4443 63.0927 61.7524 64.824C63.0605 66.5553 63.8452 68.6252 64.0136 70.7886C64.1821 72.952 63.7272 75.1183 62.7029 77.0313C61.6786 78.9442 60.1277 80.5236 58.2337 81.5827H58.285ZM95.5629 69.7742H75.5486C74.9995 69.7742 74.4966 70.0719 74.5941 70.7749C75.1945 73.7258 76.5442 76.8305 79.6028 77.2822C81.2178 77.7628 82.9473 77.6889 84.5154 77.0723C86.0836 76.4556 87.4001 75.3317 88.2552 73.8797C88.2552 73.8797 88.5066 73.5769 88.6554 73.5769H95.1627C95.1627 73.5769 95.5629 73.5769 95.4603 73.9259C94.7741 75.8691 93.7585 77.6797 92.4582 79.2785C90.719 80.9397 88.6204 82.1778 86.3252 82.8967C84.0301 83.6156 81.6002 83.7959 79.2241 83.4236C76.848 83.0513 74.5896 82.1365 72.6243 80.7501C70.659 79.3637 69.0396 77.5431 67.8919 75.4296C67.186 74.0201 66.7458 72.4927 66.5935 70.9238C65.701 66.9804 66.3832 62.8444 68.4948 59.3965C70.6065 55.9486 73.9808 53.4614 77.899 52.4644C89.2559 50.0114 96.461 57.817 96.461 68.8248C96.4778 68.9535 96.4649 69.0843 96.4231 69.2071C96.3814 69.33 96.3119 69.4416 96.2202 69.5334C96.1284 69.6251 96.0168 69.6946 95.8939 69.7363C95.7711 69.7781 95.6403 69.7911 95.5116 69.7742H95.5629ZM84.3549 58.6637C83.0672 58.3065 81.7172 58.233 80.3983 58.4482C79.0794 58.6535 77.899 58.9049 76.6982 59.8697C75.4973 60.8294 74.861 62.451 74.6454 64.0214C74.6454 64.5705 74.6454 64.6731 75.2972 64.6731H87.4084C88.0088 64.6731 88.0088 64.6731 87.9575 63.9188C87.9 62.9757 87.648 62.0556 87.2083 61.2194C86.9468 60.6028 86.5499 60.053 86.0471 59.6106C85.5443 59.1682 84.9485 58.8446 84.3036 58.6637H84.3549Z" fill="#363636"/>
</svg>
