<svg width="125" height="124" viewBox="0 0 125 124" fill="none" xmlns="http://www.w3.org/2000/svg">
<path d="M32.5668 15.5957H92.5276C96.825 15.5984 100.946 17.3068 103.984 20.3455C107.023 23.3842 108.731 27.5048 108.734 31.8022V49.076C108.315 49.0495 107.896 49.0358 107.477 49.035C105.215 49.023 102.98 49.525 100.941 50.5028C98.9016 51.4807 97.111 52.9091 95.7043 54.6801C93.282 57.6873 91.8143 61.7466 91.4551 66.3089C91.3798 67.2189 91.3507 68.129 91.3678 69.039C91.609 79.3746 97.1925 87.6369 107.112 87.6369C107.667 87.6369 108.207 87.6113 108.734 87.56V91.7681C108.73 96.0646 107.021 100.184 103.982 103.221C100.944 106.259 96.8241 107.967 92.5276 107.969H32.5668C28.2694 107.967 24.1488 106.258 21.1101 103.22C18.0714 100.181 16.3631 96.0604 16.3604 91.763V31.8022C16.3631 27.5048 18.0714 23.3842 21.1101 20.3455C24.1488 17.3068 28.2694 15.5984 32.5668 15.5957ZM108.734 79.1694V65.1799H100.251C99.8713 71.9334 103.566 77.6503 108.734 79.1694ZM108.734 63.2246V51.3803C108.306 51.2638 107.864 51.2034 107.42 51.2006C103.238 51.2879 100.749 56.2915 100.441 63.2246H108.734ZM91.7835 37.6628L91.8605 37.6474V37.0829H76.978L63.1733 69.5471L49.3583 37.0829H33.3263V37.6474L33.3982 37.6628C36.1129 38.2786 37.4883 39.1921 37.4883 42.4867V81.0784C37.4883 84.3731 36.1027 85.2866 33.393 85.9024L33.3212 85.9126V86.4771H44.2008V85.9126L44.1238 85.9024C41.409 85.2866 40.0286 84.3731 40.0286 81.0784V44.7242L57.7746 86.4823H58.7804L77.0448 43.5593V82.0278C76.8087 84.6348 75.4436 85.4405 72.9854 85.9947L72.9136 86.0101V86.5695H91.8605V86.005L91.7835 85.9947C89.3202 85.4405 87.9243 84.6348 87.6934 82.0278L87.678 42.4867H87.6934C87.6934 39.1921 89.0687 38.2786 91.7835 37.6628Z" fill="#363636"/>
</svg>
