<svg width="99" height="99" viewBox="0 0 99 99" fill="none" xmlns="http://www.w3.org/2000/svg">
<path d="M0.395508 0.0664062H98.8543V98.5252H0.395508V0.0664062Z" fill="url(#paint0_linear_911_2205)"/>
<path d="M41.0078 28.3738H43.4692V25.9123H41.0078V28.3738ZM38.5463 29.6045V24.6815C38.5463 24.3551 38.676 24.0421 38.9068 23.8113C39.1376 23.5805 39.4506 23.4508 39.777 23.4508H44.7C45.0264 23.4508 45.3394 23.5805 45.5702 23.8113C45.801 24.0421 45.9307 24.3551 45.9307 24.6815V29.6045C45.9307 29.9309 45.801 30.2439 45.5702 30.4747C45.3394 30.7056 45.0264 30.8352 44.7 30.8352H39.777C39.4506 30.8352 39.1376 30.7056 38.9068 30.4747C38.676 30.2439 38.5463 29.9309 38.5463 29.6045ZM50.8536 20.9893H53.3151V18.5279H50.8536V20.9893ZM48.3922 22.2201V17.2971C48.3922 16.9707 48.5218 16.6577 48.7526 16.4269C48.9835 16.1961 49.2965 16.0664 49.6229 16.0664H54.5458C54.8723 16.0664 55.1853 16.1961 55.4161 16.4269C55.6469 16.6577 55.7766 16.9707 55.7766 17.2971V22.2201C55.7766 22.5465 55.6469 22.8595 55.4161 23.0903C55.1853 23.3211 54.8723 23.4508 54.5458 23.4508H49.6229C49.2965 23.4508 48.9835 23.3211 48.7526 23.0903C48.5218 22.8595 48.3922 22.5465 48.3922 22.2201ZM53.3151 33.2967H55.7766V30.8352H53.3151V33.2967ZM52.0844 28.3738H57.0073C57.3337 28.3738 57.6468 28.5034 57.8776 28.7342C58.1084 28.965 58.238 29.2781 58.238 29.6045V34.5274C58.238 34.8538 58.1084 35.1669 57.8776 35.3977C57.6468 35.6285 57.3337 35.7582 57.0073 35.7582H52.0844C51.758 35.7582 51.4449 35.6285 51.2141 35.3977C50.9833 35.1669 50.8536 34.8538 50.8536 34.5274V29.6045C50.8536 29.2781 50.9833 28.965 51.2141 28.7342C51.4449 28.5034 51.758 28.3738 52.0844 28.3738ZM49.6229 41.2965C47.4557 41.2965 39.5974 41.2042 34.486 39.9477L46.9718 59.7156C47.0949 59.9125 47.1614 60.1402 47.1614 60.3728V63.1751C48.8895 63.6762 50.4856 63.6812 52.0844 63.1951V60.3728C52.0844 60.1402 52.1509 59.9125 52.274 59.7156L64.7598 39.9477C59.6484 41.2042 51.7902 41.2965 49.6229 41.2965ZM30.2438 37.8404C30.0481 37.555 29.9312 37.2473 29.9312 36.9112C29.9312 33.4098 41.4804 32.7625 48.3652 32.6875L48.391 35.1489C39.9336 35.2413 34.7656 36.2062 32.9441 36.925C34.8764 37.7323 40.5685 38.835 49.6229 38.835C58.6542 38.835 64.3386 37.7385 66.2859 36.9324C65.4909 36.6112 63.844 36.1362 60.5507 35.7335L60.8484 33.2905C68.3093 34.2013 69.3147 35.6312 69.3147 36.9112C69.3147 37.2473 69.1977 37.555 69.002 37.8404L54.5458 60.7298V64.065C54.5459 64.3107 54.4725 64.5508 54.335 64.7543C54.1975 64.9579 54.0022 65.1157 53.7743 65.2073C52.4313 65.7462 51.0825 66.0146 49.7041 66.0146C48.3379 66.0146 46.9449 65.75 45.5049 65.2196C45.2688 65.1326 45.0651 64.9752 44.9211 64.7688C44.7772 64.5623 44.7 64.3167 44.7 64.065V60.7298L30.2438 37.8404ZM58.1446 73.4394C58.2377 73.6644 58.2621 73.9119 58.2145 74.1507C58.1669 74.3895 58.0495 74.6088 57.8773 74.7809L50.4929 82.1653C50.2622 82.3961 49.9493 82.5259 49.6229 82.5261C49.2966 82.5259 48.9836 82.3961 48.7529 82.1653L41.3685 74.7809C41.1965 74.6088 41.0794 74.3895 41.0319 74.1509C40.9845 73.9122 41.0089 73.6648 41.102 73.44C41.1951 73.2152 41.3527 73.023 41.555 72.8878C41.7573 72.7525 41.9952 72.6803 42.2385 72.6802H45.9307V68.988H48.3922V73.9109C48.3922 74.2373 48.2625 74.5504 48.0317 74.7812C47.8009 75.012 47.4878 75.1417 47.1614 75.1417H45.2096L49.6229 79.555L54.0362 75.1417H52.0844C51.758 75.1417 51.4449 75.012 51.2141 74.7812C50.9833 74.5504 50.8536 74.2373 50.8536 73.9109V68.988H53.3151V72.6802H57.0073C57.5046 72.6802 57.955 72.9802 58.1446 73.4394Z" fill="white"/>
<defs>
<linearGradient id="paint0_linear_911_2205" x1="0.395508" y1="9845.94" x2="9846.27" y2="0.0641174" gradientUnits="userSpaceOnUse">
<stop stop-color="#4D27A8"/>
<stop offset="1" stop-color="#A166FF"/>
</linearGradient>
</defs>
</svg>
