<svg width="89" height="89" viewBox="0 0 89 89" fill="none" xmlns="http://www.w3.org/2000/svg">
<path d="M0.306641 0.794922H88.5093V88.9976H0.306641V0.794922Z" fill="url(#paint0_linear_911_2203)"/>
<path d="M30.0749 59.2312H57.6382V31.6679H30.0749V59.2312ZM59.8433 31.6679H64.2534V33.8729H59.8433V38.2831H64.2534V40.4881H59.8433V43.7957H64.2534V46.0008H59.8433V50.4109H64.2534V52.616H59.8433V57.0261H64.2534V59.2312H59.8433V59.3811C59.8428 59.926 59.6261 60.4485 59.2408 60.8338C58.8555 61.2191 58.333 61.4358 57.7881 61.4363H57.6382V65.8464H55.4331V61.4363H51.023V65.8464H48.8179V61.4363H45.5103V65.8464H43.3053V61.4363H38.8951V65.8464H36.6901V61.4363H32.2799V65.8464H30.0749V61.4363H29.925C29.3801 61.4358 28.8576 61.2191 28.4723 60.8338C28.0869 60.4485 27.8703 59.926 27.8698 59.3811V59.2312H24.5622V57.0261H27.8698V52.616H24.5622V50.4109H27.8698V46.0008H24.5622V43.7957H27.8698V40.4881H24.5622V38.2831H27.8698V33.8729H24.5622V31.6679H27.8698V31.518C27.8703 30.9731 28.0869 30.4506 28.4723 30.0653C28.8576 29.6799 29.3801 29.4633 29.925 29.4628H30.0749V25.0527H32.2799V29.4628H36.6901V25.0527H38.8951V29.4628H43.3053V25.0527H45.5103V29.4628H48.8179V25.0527H51.023V29.4628H55.4331V25.0527H57.6382V29.4628H57.7881C58.333 29.4633 58.8555 29.6799 59.2408 30.0653C59.6261 30.4506 59.8428 30.9731 59.8433 31.518V31.6679ZM45.5103 73.4273C45.5101 73.4635 45.4956 73.4982 45.47 73.5238C45.4444 73.5494 45.4097 73.5638 45.3735 73.5641H15.8787C15.8425 73.5638 15.8079 73.5494 15.7823 73.5238C15.7567 73.4982 15.7422 73.4635 15.7419 73.4273V43.9325C15.7422 43.8963 15.7567 43.8617 15.7823 43.8361C15.8079 43.8105 15.8425 43.796 15.8787 43.7957H22.3571V41.5907H15.8787C15.2578 41.5914 14.6626 41.8384 14.2236 42.2774C13.7846 42.7164 13.5376 43.3116 13.5369 43.9325V73.4273C13.5376 74.0482 13.7846 74.6435 14.2236 75.0825C14.6626 75.5215 15.2578 75.7685 15.8787 75.7692H45.3735C45.9944 75.7685 46.5897 75.5215 47.0287 75.0825C47.4677 74.6435 47.7147 74.0482 47.7154 73.4273V68.0515H45.5103V73.4273ZM75.2787 16.3692V45.864C75.278 46.4849 75.031 47.0801 74.592 47.5191C74.153 47.9582 73.5577 48.2051 72.9369 48.2059H66.4585V46.0008H72.9369C72.9731 46.0005 73.0077 45.986 73.0333 45.9604C73.0589 45.9348 73.0734 45.9002 73.0736 45.864V16.3692C73.0734 16.333 73.0589 16.2984 73.0333 16.2728C73.0077 16.2472 72.9731 16.2327 72.9369 16.2324H43.442C43.4058 16.2327 43.3712 16.2472 43.3456 16.2728C43.32 16.2984 43.3055 16.333 43.3053 16.3692V22.8476H41.1002V16.3692C41.1009 15.7483 41.3479 15.1531 41.7869 14.7141C42.2259 14.275 42.8212 14.0281 43.442 14.0273H72.9369C73.5577 14.0281 74.153 14.275 74.592 14.7141C75.031 15.1531 75.278 15.7483 75.2787 16.3692Z" fill="white"/>
<defs>
<linearGradient id="paint0_linear_911_2203" x1="0.306641" y1="8821.06" x2="8820.57" y2="0.793396" gradientUnits="userSpaceOnUse">
<stop stop-color="#C8511B"/>
<stop offset="1" stop-color="#FF9900"/>
</linearGradient>
</defs>
</svg>
