<svg width="97" height="97" viewBox="0 0 97 97" fill="none" xmlns="http://www.w3.org/2000/svg">
<path d="M0.12207 0.0664062H96.5296V96.4739H0.12207V0.0664062Z" fill="url(#paint0_linear_911_2204)"/>
<path d="M73.4351 51.7584L73.898 48.5002C78.1648 51.0561 78.2205 52.1117 78.2194 52.1407C78.2118 52.1467 77.4843 52.7541 73.4351 51.7584ZM71.0935 51.1077C63.7183 48.876 53.4475 44.1641 49.2911 42.1998C49.2911 42.1828 49.296 42.1674 49.296 42.1504C49.296 40.5537 47.9967 39.2544 46.3989 39.2544C44.8032 39.2544 43.504 40.5537 43.504 42.1504C43.504 43.7472 44.8032 45.0464 46.3989 45.0464C47.1001 45.0464 47.7365 44.7847 48.2389 44.3686C53.1293 46.6838 63.3206 51.3272 70.75 53.5205L67.8123 74.2553C67.804 74.3118 67.7999 74.3684 67.8002 74.4251C67.8002 76.2508 59.7174 79.6048 46.5107 79.6048C33.1643 79.6048 24.996 76.2508 24.996 74.4251C24.996 74.3699 24.9925 74.3153 24.9855 74.2613L18.847 29.4235C24.16 33.081 35.588 35.0159 46.5182 35.0159C57.4315 35.0159 68.84 33.0877 74.1639 29.4416L71.0935 51.1077ZM18.1985 24.7462C18.2851 23.1608 27.3979 16.9395 46.5182 16.9395C65.6355 16.9395 74.7498 23.1593 74.8379 24.7462V25.2874C73.7895 28.8436 61.9796 32.6061 46.5182 32.6061C31.0301 32.6061 19.2142 28.8315 18.1985 25.2705V24.7462ZM77.2481 24.7726C77.2481 20.5973 65.2763 14.5293 46.5182 14.5293C27.7594 14.5293 15.7883 20.5973 15.7883 24.7726L15.9013 25.6817L22.5873 74.5166C22.7477 79.9783 37.3121 82.0146 46.5107 82.0146C57.9252 82.0146 70.0522 79.3901 70.2089 74.5204L73.0966 54.1581C74.7027 54.5422 76.025 54.7388 77.0866 54.7388C78.512 54.7388 79.4761 54.3904 80.0605 53.6941C80.5403 53.1228 80.7233 52.431 80.5862 51.6944C80.2737 50.0269 78.2939 48.229 74.2618 45.9284L77.125 25.7284L77.2481 24.7726Z" fill="white"/>
<defs>
<linearGradient id="paint0_linear_911_2204" x1="0.12207" y1="9640.82" x2="9640.87" y2="0.0641174" gradientUnits="userSpaceOnUse">
<stop stop-color="#1B660F"/>
<stop offset="1" stop-color="#6CAE3E"/>
</linearGradient>
</defs>
</svg>
