<svg width="135" height="135" viewBox="0 0 135 135" fill="none" xmlns="http://www.w3.org/2000/svg">
<path d="M82.5017 46.8789H85.9856L95.9152 36.9493L96.4029 32.7338C90.7146 27.7132 83.8403 24.2256 76.4294 22.6004C69.0185 20.9752 61.3156 21.2661 54.0484 23.4456C46.7812 25.625 40.1895 29.6211 34.896 35.0564C29.6025 40.4917 25.782 47.1866 23.7954 54.509C24.9016 54.0556 26.1269 53.9822 27.2793 54.3L47.1385 51.0246C47.1385 51.0246 48.1489 49.3524 48.6715 49.4571C52.9266 44.7839 58.8071 41.9138 65.1091 41.4345C71.4112 40.9552 77.6581 42.9029 82.5711 46.8789H82.5017Z" fill="#F44336"/>
<path d="M110.06 54.5064C107.777 46.1018 103.091 38.546 96.5768 32.7656L82.6402 46.7022C85.5447 49.0753 87.8723 52.077 89.4476 55.4809C91.0229 58.8848 91.8046 62.6019 91.7339 66.352V68.826C93.3716 68.8121 94.9958 69.1226 96.5128 69.7397C98.0298 70.3568 99.4096 71.2682 100.573 72.4213C101.736 73.5744 102.659 74.9464 103.289 76.4581C103.919 77.9699 104.243 79.5914 104.243 81.2291C104.243 82.8668 103.919 84.4884 103.289 86.0001C102.659 87.5118 101.736 88.8838 100.573 90.0369C99.4096 91.1901 98.0298 92.1015 96.5128 92.7185C94.9958 93.3356 93.3716 93.6462 91.7339 93.6323H66.9272L64.4536 96.1407V111.018L66.9272 113.491H91.7339C98.661 113.545 105.422 111.368 111.015 107.282C116.609 103.196 120.739 97.4178 122.795 90.8024C124.85 84.187 124.722 77.0856 122.428 70.549C120.135 64.0123 115.798 58.3874 110.06 54.5064Z" fill="#448AFF"/>
<path d="M42.086 113.349H66.8923V93.4901H42.086C40.3187 93.4891 38.5721 93.1089 36.9644 92.375L33.4805 93.4552L23.4811 103.384L22.6099 106.869C28.2171 111.103 35.0595 113.38 42.086 113.349Z" fill="#43A047"/>
<path d="M42.0858 48.9338C35.3645 48.9739 28.8235 51.1123 23.3764 55.0503C17.9294 58.9883 13.8483 64.5293 11.7032 70.8992C9.55811 77.2692 9.4561 84.1501 11.4114 90.5809C13.3667 97.0116 17.2818 102.671 22.6097 106.769L36.9991 92.3799C35.1703 91.5539 33.5692 90.2965 32.3332 88.7156C31.0972 87.1348 30.2632 85.2776 29.9028 83.3036C29.5424 81.3295 29.6664 79.2975 30.264 77.3818C30.8616 75.4662 31.9151 73.7242 33.3341 72.3052C34.753 70.8863 36.4951 69.8328 38.4107 69.2351C40.3263 68.6375 42.3584 68.5136 44.3324 68.874C46.3065 69.2344 48.1636 70.0684 49.7445 71.3043C51.3254 72.5403 52.5828 74.1414 53.4088 75.9702L67.7982 61.5808C64.7781 57.6325 60.8856 54.4363 56.425 52.2423C51.9644 50.0483 47.0567 48.9159 42.0858 48.9338Z" fill="#FFC107"/>
</svg>
