<svg width="144" height="143" viewBox="0 0 144 143" fill="none" xmlns="http://www.w3.org/2000/svg">
<path d="M124.924 27.2891H81.7787L72.8827 45.0811H23.0649V120.697H134.265V27.2891H124.924ZM125.369 107.353H31.961V53.9771H125.369V107.353ZM125.814 45.0811H91.1195L95.5676 36.1851H125.369L125.814 45.0811Z" fill="#DBC27B"/>
<path d="M116.028 62.875H2.15845L19.0609 120.699H132.93L116.028 62.875Z" fill="#DBC27B"/>
<path d="M135.805 118.781C135.088 117.697 134.622 116.466 134.444 115.178C134.244 113.632 133.54 112.194 132.443 111.086C132.209 110.882 131.954 110.703 131.682 110.552C131.435 110.407 131.174 110.287 130.904 110.192C132.441 105.457 132.191 100.322 130.201 95.7583C128.054 90.7677 125.076 86.1775 121.394 82.1829C117.72 78.7469 115.468 74.0586 115.082 69.0435C115.176 60.659 116.039 45.1043 100.724 45.082C100.072 45.0834 99.4211 45.1086 98.7713 45.1576C81.6598 46.4921 86.2012 63.9149 85.9477 69.7463C85.7894 74.0328 84.2966 78.163 81.6776 81.5602C76.969 86.7262 73.236 92.7031 70.6599 99.201C69.4894 102.301 69.0894 105.64 69.4945 108.929C69.3403 109.065 69.192 109.205 69.0497 109.347C68 110.428 67.226 111.74 66.3587 112.621C65.4043 113.346 64.3065 113.86 63.1383 114.129C61.6698 114.515 60.4123 115.464 59.6377 116.771C59.2729 117.468 59.0923 118.248 59.1128 119.035C59.1283 119.759 59.2027 120.48 59.3352 121.192C59.659 122.429 59.7121 123.722 59.4909 124.982C59.015 125.86 58.7294 126.829 58.6528 127.826C58.5762 128.822 58.7102 129.823 59.0461 130.764C59.4743 131.395 60.038 131.922 60.6959 132.307C61.3539 132.691 62.0896 132.924 62.8492 132.988C66.6816 133.231 70.4624 134 74.0849 135.274C77.3024 137.072 81.0302 137.742 84.6711 137.169C85.7169 136.977 86.7035 136.543 87.5528 135.903C88.402 135.263 89.0906 134.434 89.5639 133.482C91.9347 133.482 94.5413 132.503 98.7091 132.281C101.542 132.058 105.074 133.251 109.149 133.033C109.253 133.458 109.41 133.869 109.616 134.256C110.31 135.646 111.412 136.791 112.774 137.54C114.136 138.288 115.694 138.604 117.239 138.446C120.83 137.996 124.105 136.17 126.376 133.353L125.882 132.953L126.38 133.348C129.239 130.848 132.509 128.862 136.046 127.477C136.731 127.192 137.334 126.741 137.8 126.164C138.266 125.587 138.581 124.902 138.714 124.172C138.795 122.682 137.887 121.014 135.805 118.781Z" fill="#20201F"/>
<path d="M137.424 124.101C137.366 125.017 136.676 125.702 135.4 126.441C131.733 127.86 128.358 129.942 125.445 132.583C123.397 135.14 120.441 136.808 117.194 137.24C115.896 137.398 114.582 137.143 113.437 136.511C112.292 135.88 111.375 134.904 110.816 133.722C110.108 131.562 110.185 129.221 111.034 127.112C111.879 124.701 112.509 122.22 112.915 119.697C112.958 117.325 113.222 114.962 113.702 112.638C113.827 111.847 114.124 111.093 114.572 110.429C115.02 109.765 115.608 109.207 116.296 108.795L116.473 108.689C116.441 109.842 116.765 110.978 117.402 111.94C118.039 112.903 118.957 113.645 120.032 114.066C121.39 114.153 122.749 113.93 124.008 113.415C125.267 112.899 126.393 112.104 127.3 111.09L128.149 111.059C128.756 110.982 129.372 111.028 129.961 111.193C130.55 111.358 131.1 111.639 131.579 112.02C132.451 112.971 133.006 114.17 133.167 115.45C133.356 116.951 133.926 118.379 134.822 119.6C136.836 121.739 137.477 123.18 137.424 124.101ZM88.9758 130.898C88.9442 132.144 88.472 133.339 87.6431 134.271C86.8142 135.202 85.6821 135.81 84.4477 135.986C81.1064 136.477 77.6965 135.851 74.7466 134.207C71.0356 132.824 67.1363 132.013 63.1818 131.8C62.6076 131.766 62.048 131.606 61.543 131.33C61.0379 131.055 60.5996 130.672 60.2594 130.208C60.0165 129.413 59.935 128.578 60.0198 127.752C60.1046 126.925 60.354 126.124 60.7532 125.395V125.373C61.0634 123.929 61.0268 122.432 60.6464 121.005C60.3209 119.798 60.38 118.52 60.8154 117.349C61.1167 116.832 61.5209 116.384 62.0029 116.03C62.485 115.677 63.0347 115.426 63.6177 115.294C64.9755 114.99 66.2431 114.371 67.3184 113.488C68.3459 112.443 69.0976 111.135 70.0228 110.205C70.3446 109.803 70.7498 109.475 71.2106 109.245C71.6714 109.015 72.1767 108.887 72.6916 108.871H72.7317C72.9462 108.873 73.1602 108.891 73.3722 108.924C75.0816 109.317 76.5677 110.367 77.5088 111.847L81.2096 118.345C82.6233 120.614 84.2385 122.75 86.0357 124.728C87.688 126.391 88.725 128.567 88.9758 130.898ZM107.422 70.3111C106.974 69.5959 106.287 69.063 105.482 68.8077C104.016 68.3462 102.586 67.7768 101.203 67.1041C99.7571 66.1147 98.0615 65.5521 96.3106 65.4806C95.6678 65.4771 95.0289 65.5808 94.4202 65.7875C93.1334 66.2906 91.9743 67.073 91.0264 68.0782C90.8929 68.1983 90.7239 68.3095 90.3058 68.6031C89.8877 68.8966 89.2605 69.3414 88.3576 69.9953C87.9905 70.2189 87.7118 70.5622 87.5684 70.9673C87.425 71.3724 87.4257 71.8146 87.5703 72.2193C88.115 73.4642 89.1071 74.4594 90.3503 75.0082C91.226 75.5915 92.0544 76.2429 92.8278 76.9564C93.2286 77.2743 93.6699 77.5375 94.14 77.7393C94.7165 77.9712 95.3292 78.1007 95.9503 78.1218C97.3835 78.2052 98.8085 77.8533 100.038 77.1121C101.025 76.4403 102.077 75.8696 103.178 75.4085C104.089 75.199 104.944 74.7968 105.686 74.229C106.428 73.6613 107.039 72.9411 107.48 72.117C107.606 71.8308 107.666 71.52 107.656 71.2075C107.646 70.8949 107.566 70.5886 107.422 70.3111Z" fill="#FDBB14"/>
<path d="M128.848 109.822H128.061C128.666 107.976 127.327 106.615 123.751 105.054C120.041 103.475 117.079 103.63 116.585 106.833C116.55 107 116.525 107.17 116.51 107.34C116.222 107.438 115.942 107.558 115.673 107.7C114.833 108.193 114.11 108.862 113.554 109.661C112.997 110.461 112.622 111.372 112.453 112.331C111.947 114.728 111.67 117.167 111.626 119.617C111.371 121.415 110.938 123.183 110.336 124.896C107.271 127.263 103.563 128.651 99.6973 128.879C95.8315 129.106 91.9868 128.163 88.665 126.173C88.159 125.419 87.6203 124.687 87.0504 123.98C86.6812 123.535 86.3075 123.059 85.9339 122.606C86.5709 122.617 87.204 122.504 87.7976 122.272C88.0867 122.155 88.3496 121.981 88.571 121.761C88.7925 121.541 88.968 121.279 89.0876 120.991C89.2491 120.175 89.2056 119.332 88.9611 118.537C88.7166 117.742 88.2786 117.02 87.6864 116.436C85.6619 114.026 83.2063 112.014 80.4451 110.503C78.2749 109.323 76.6177 107.382 75.7924 105.054C75.179 102.958 75.1574 100.734 75.7302 98.6264C76.8666 94.7785 78.6083 91.1359 80.8899 87.8355C81.3347 87.5242 81.0455 88.4093 79.2485 91.6297C77.6384 94.5698 74.6226 101.362 78.7504 106.668C78.9044 102.796 79.7904 98.9885 81.3614 95.4461C83.6476 90.451 88.4337 81.7907 88.8118 74.8829C89.0075 75.0208 89.7014 75.4612 89.9816 75.6257C90.8199 76.1991 91.618 76.8292 92.3702 77.5117C93.3806 78.33 94.6293 78.7983 95.9286 78.8461H96.3734C97.7959 78.8322 99.19 78.4457 100.417 77.7252C101.372 77.102 102.375 76.5533 103.415 76.0839C105.079 75.6492 106.559 74.69 107.636 73.3484C109.38 79.3962 111.739 85.2492 114.677 90.8157C116.772 94.4854 118.274 98.4637 119.125 102.603C119.824 102.597 120.521 102.682 121.198 102.856C121.943 100.119 121.926 97.229 121.148 94.5C120.371 91.7711 118.862 89.3066 116.785 87.3729C115.896 86.5412 115.851 86.172 116.296 86.1898C119.515 89.053 121.833 92.7894 122.968 96.9451C123.531 99.0761 123.557 101.313 123.044 103.457C123.316 103.564 123.594 103.682 123.875 103.813C128.039 105.783 129.591 107.491 128.848 109.822ZM107.618 63.923C107.646 64.9538 107.434 65.9769 107 66.9121C106.772 67.4179 106.472 67.8883 106.11 68.3088L105.75 68.1575C105.305 67.9796 104.94 67.8328 104.598 67.7127C104.255 67.5926 103.993 67.5037 103.708 67.4147C103.908 67.179 104.3 66.9076 104.442 66.5651C104.66 66.0508 104.779 65.5001 104.793 64.9416V64.866C104.809 64.331 104.727 63.7975 104.553 63.2914C104.409 62.8249 104.149 62.4025 103.797 62.0637C103.514 61.7704 103.128 61.5995 102.721 61.5878H102.685C102.299 61.594 101.928 61.7357 101.635 61.9881C101.259 62.3016 100.968 62.7057 100.79 63.1624C100.572 63.6781 100.452 64.2304 100.439 64.7904V64.8615C100.43 65.1745 100.454 65.4876 100.51 65.7956C99.7182 65.4482 98.8944 65.1786 98.0503 64.9905C98.0117 64.6954 97.988 64.3985 97.9791 64.1009V64.0164C97.9501 62.986 98.1602 61.9629 98.593 61.0274C98.9626 60.1434 99.5633 59.3752 100.332 58.8034C101.018 58.2707 101.861 57.9813 102.73 57.9805H102.774C103.627 57.9807 104.458 58.2534 105.145 58.7589C105.921 59.3107 106.535 60.0602 106.924 60.9295C107.363 61.8319 107.592 62.8217 107.596 63.8252V63.9052L107.618 63.923ZM94.5052 65.0172L94.1672 65.1195C93.6095 65.2993 93.0761 65.5473 92.5792 65.8579C92.6169 65.5254 92.6169 65.1896 92.5792 64.8571V64.7993C92.534 64.3582 92.423 63.9265 92.2501 63.5182C92.1055 63.1531 91.8751 62.8281 91.5784 62.5708C91.3771 62.3811 91.1122 62.2733 90.8356 62.2684H90.7556C90.6036 62.2835 90.4567 62.331 90.3248 62.4077C90.1928 62.4845 90.0788 62.5886 89.9905 62.7132C89.7471 63.0158 89.5808 63.373 89.5057 63.754C89.3953 64.2033 89.3637 64.6683 89.4123 65.1284V65.1818C89.4492 65.6271 89.5605 66.0631 89.7414 66.4717C89.8851 66.8361 90.1156 67.1598 90.4131 67.4147L90.551 67.517C90.2663 67.7305 90.075 67.8817 89.8393 68.0463L89.3011 68.4244C88.8203 67.9752 88.4398 67.4296 88.1846 66.8231C87.8119 66.0228 87.6018 65.1565 87.5663 64.2744C87.4965 63.3935 87.6023 62.5075 87.8777 61.6679C88.0879 60.9279 88.4863 60.2551 89.0342 59.7152C89.4744 59.2438 90.0803 58.9616 90.7244 58.9279H90.8712C91.467 58.9291 92.0434 59.1401 92.4992 59.5239C93.1086 59.9988 93.5839 60.6243 93.8781 61.3387C94.2513 62.1404 94.4615 63.0083 94.4963 63.8919C94.5205 64.2696 94.5205 64.6484 94.4963 65.0261L94.5052 65.0172Z" fill="white"/>
<path d="M101.793 73.4688C99.9642 74.5833 97.9007 75.2564 95.7662 75.4348C93.8728 75.3896 92.0495 74.7098 90.5887 73.5043C89.966 73.0284 89.4589 72.5569 89.0764 72.21C88.4137 71.7074 88.4937 71.0001 88.7651 71.0224C89.2099 71.0757 89.2899 71.654 89.579 71.912C89.966 72.2633 90.4686 72.7171 91.0424 73.1707C92.374 74.2751 94.037 74.9015 95.7662 74.95C97.7704 74.7623 99.7062 74.1236 101.429 73.0818C102.333 72.5337 103.209 71.9398 104.053 71.3026C104.684 70.8578 104.662 70.3196 105.183 70.3774C105.703 70.4352 105.316 70.9734 104.587 71.5873C103.726 72.3136 102.79 72.9445 101.793 73.4688ZM97.4075 67.2816C97.4832 67.5084 97.8523 67.4728 98.0792 67.5796C98.306 67.6863 98.4261 67.8821 98.6396 67.891C98.8531 67.8998 99.1645 67.8198 99.1912 67.6241C99.2179 67.4284 98.8354 67.2015 98.5818 67.1037C98.4159 67.0327 98.2374 66.9961 98.057 66.9961C97.8765 66.9961 97.698 67.0327 97.5321 67.1037C97.4609 67.1392 97.3853 67.2282 97.4075 67.2994V67.2816ZM95.1835 67.2816C95.1124 67.5084 94.7387 67.4728 94.5163 67.5796C94.2939 67.6863 94.1694 67.8821 93.9559 67.891C93.7424 67.8998 93.4266 67.8198 93.3999 67.6241C93.3732 67.4284 93.7602 67.2015 94.0137 67.1037C94.1796 67.0327 94.3581 66.9961 94.5386 66.9961C94.719 66.9961 94.8976 67.0327 95.0634 67.1037C95.1302 67.1392 95.2102 67.2282 95.1835 67.2994V67.2816Z" fill="#20201F"/>
</svg>
