<svg width="254" height="98" viewBox="0 0 254 98" fill="none" xmlns="http://www.w3.org/2000/svg">
<path d="M1.9546 96.2347L48.1823 48.8491C48.3247 48.708 48.4131 48.5214 48.432 48.3218C48.4509 48.1222 48.3991 47.9223 48.2856 47.757C45.4746 43.832 40.2873 43.1518 38.3651 40.5144C32.6708 32.7026 31.226 28.281 28.779 28.555C28.6083 28.5797 28.451 28.6623 28.3343 28.7895L11.6352 45.9085C2.02879 55.7489 0.647755 77.4384 0.397961 95.6016C0.397029 95.7824 0.450268 95.9594 0.550815 96.1096C0.651362 96.2599 0.794611 96.3766 0.962098 96.4448C1.12959 96.5129 1.31364 96.5293 1.49053 96.4919C1.66743 96.4544 1.82906 96.3649 1.9546 96.2347Z" fill="#017CEE"/>
<path d="M96.5636 95.0636L49.178 48.8325C49.0367 48.6895 48.8497 48.6008 48.6497 48.5819C48.4496 48.563 48.2493 48.6151 48.0838 48.7291C44.1593 51.5416 43.4787 56.7274 40.8413 58.6496C33.0299 64.3439 28.6088 65.7888 28.8823 68.2358C28.9071 68.4059 28.9902 68.5622 29.1168 68.6785L46.2353 85.3775C56.0757 94.9849 77.7652 96.366 95.929 96.6153C96.1087 96.6153 96.2845 96.5617 96.4337 96.4615C96.583 96.3612 96.699 96.2189 96.7671 96.0524C96.8351 95.886 96.8521 95.7031 96.8159 95.527C96.7797 95.3509 96.6918 95.1896 96.5636 95.0636Z" fill="#00AD46"/>
<path d="M46.235 85.381C40.8558 80.1328 38.3628 69.7513 48.6726 48.3438C31.9127 55.8341 26.0398 65.6789 28.928 68.4984L46.235 85.381Z" fill="#04D659"/>
<path d="M95.3928 0.458922L49.1666 47.8445C49.0235 47.9853 48.9347 48.1719 48.9157 48.3717C48.8967 48.5715 48.9488 48.7715 49.0627 48.9367C51.8757 52.8617 57.0601 53.5418 58.9837 56.1792C64.678 63.9911 66.1244 68.4127 68.5699 68.1387C68.7407 68.1145 68.8978 68.0316 69.0141 67.9042L85.7131 50.7852C95.3206 40.9448 96.7016 19.2553 96.9509 1.09206C96.9511 0.91138 96.8974 0.734736 96.7967 0.58477C96.6959 0.434805 96.5526 0.31835 96.3852 0.250331C96.2178 0.182311 96.0339 0.165827 95.8571 0.202991C95.6803 0.240154 95.5186 0.329272 95.3928 0.458922Z" fill="#00C7D4"/>
<path d="M85.7213 50.7813C80.4732 56.1601 70.0917 58.6531 48.6826 48.3438C56.1725 65.1037 66.0178 70.9765 68.8368 68.0883L85.7213 50.7813Z" fill="#11E1EE"/>
<path d="M0.781931 1.62455L48.1675 47.8507C48.3086 47.9934 48.4953 48.0819 48.695 48.1009C48.8948 48.1199 49.0948 48.0681 49.2602 47.9546C53.1847 45.1416 53.8653 39.9558 56.5023 38.0336C64.3141 32.3393 68.7357 30.8944 68.4617 28.4474C68.4369 28.2767 68.3541 28.1197 68.2272 28.0028L51.1082 11.3037C41.2678 1.69726 19.5783 0.316221 1.41507 0.0664276C1.23395 0.0651837 1.05662 0.118306 0.906008 0.218925C0.7554 0.319543 0.63844 0.463031 0.570253 0.630834C0.502067 0.798637 0.48579 0.983037 0.523526 1.16019C0.561263 1.33734 0.651278 1.4991 0.781931 1.62455Z" fill="#E43921"/>
<path d="M51.1168 11.3047C56.496 16.5528 58.989 26.9344 48.6797 48.3434C65.4391 40.8535 71.312 31.0062 68.4243 28.1888L51.1168 11.3047Z" fill="#FF7557"/>
<path d="M11.6355 45.9067C16.8836 40.5275 27.2652 38.0345 48.6742 48.3438C41.1839 31.5843 31.339 25.7115 28.5196 28.5992L11.6355 45.9067Z" fill="#0CB6FF"/>
<path d="M48.6809 50.4028C49.8222 50.4028 50.7475 49.4775 50.7475 48.3361C50.7475 47.1948 49.8222 46.2695 48.6809 46.2695C47.5395 46.2695 46.6143 47.1948 46.6143 48.3361C46.6143 49.4775 47.5395 50.4028 48.6809 50.4028Z" fill="#4A4848"/>
<path d="M109.829 31.563C109.732 31.5605 109.641 31.5212 109.573 31.4532C109.505 31.3852 109.465 31.2936 109.462 31.1974C109.459 31.1296 109.465 31.0617 109.481 30.9956L114.017 19.1643C114.055 19.0409 114.133 18.9338 114.24 18.8609C114.346 18.7879 114.474 18.7532 114.603 18.7627H115.846C116.11 18.7439 116.353 18.911 116.431 19.1643L120.948 30.9961L120.984 31.1974C120.982 31.2939 120.943 31.3858 120.875 31.454C120.806 31.5222 120.715 31.5615 120.618 31.5635H119.687C119.575 31.5704 119.465 31.5378 119.375 31.4715C119.311 31.41 119.261 31.3348 119.229 31.2514L118.224 28.6555H112.226L111.221 31.2514C111.187 31.3381 111.13 31.4142 111.057 31.4715C110.973 31.5355 110.87 31.5679 110.765 31.563H109.829ZM117.692 27.0825L115.224 20.5913L112.756 27.0825H117.692ZM123.141 35.0363C123.083 35.0372 123.026 35.0263 122.973 35.0044C122.919 34.9825 122.871 34.9499 122.831 34.9087C122.794 34.8701 122.765 34.8242 122.746 34.7741C122.727 34.7239 122.718 34.6704 122.721 34.6169V22.4804C122.718 22.4268 122.727 22.3734 122.746 22.3232C122.765 22.273 122.794 22.2272 122.831 22.1885C122.871 22.1474 122.919 22.1148 122.973 22.0929C123.026 22.0709 123.083 22.0601 123.141 22.0609H123.982C124.21 22.0708 124.392 22.2528 124.402 22.4804V23.2842C124.745 22.8186 125.199 22.446 125.722 22.2002C126.246 21.9545 126.822 21.8433 127.4 21.8769C127.94 21.8374 128.481 21.9261 128.98 22.1359C129.479 22.3456 129.922 22.6704 130.272 23.0838C130.951 23.9806 131.317 25.0752 131.315 26.2001C131.327 26.3336 131.333 26.5409 131.333 26.8218C131.333 27.1028 131.327 27.3099 131.315 27.4431C131.313 28.5674 130.947 29.6609 130.272 30.5593C129.92 30.9708 129.478 31.2943 128.979 31.5039C128.481 31.7135 127.94 31.8034 127.4 31.7663C126.833 31.7929 126.267 31.6822 125.751 31.4436C125.236 31.205 124.785 30.8455 124.438 30.3956V34.6382C124.441 34.6917 124.432 34.7452 124.413 34.7954C124.394 34.8456 124.365 34.8914 124.328 34.93C124.292 34.9722 124.247 35.0056 124.196 35.0278C124.145 35.05 124.09 35.0604 124.035 35.0581L123.141 35.0363ZM127.018 30.264C127.374 30.2953 127.732 30.2382 128.061 30.0977C128.39 29.9572 128.679 29.7378 128.902 29.4588C129.332 28.8354 129.561 28.0955 129.558 27.3382C129.57 27.2169 129.576 27.0405 129.576 26.809C129.576 24.5049 128.722 23.3529 127.014 23.3529C126.653 23.3293 126.292 23.3934 125.961 23.54C125.63 23.6865 125.339 23.911 125.114 24.1943C124.692 24.7656 124.456 25.4527 124.438 26.1625L124.418 26.858L124.438 27.5712C124.451 28.2598 124.696 28.924 125.133 29.4558C125.363 29.7272 125.653 29.9415 125.98 30.0818C126.306 30.222 126.661 30.2844 127.016 30.264H127.018ZM136.248 31.7401C135.672 31.7455 135.103 31.6205 134.583 31.3745C134.099 31.1546 133.677 30.8161 133.358 30.3902C133.07 29.9774 132.916 29.4854 132.919 28.9819C132.913 28.599 133 28.2203 133.171 27.8778C133.343 27.5352 133.594 27.2388 133.903 27.0133C134.7 26.4408 135.633 26.088 136.609 25.9904L139.333 25.6065V25.0767C139.333 23.8336 138.622 23.212 137.201 23.212C136.738 23.1929 136.281 23.3141 135.889 23.5597C135.572 23.7549 135.308 24.0254 135.121 24.3472C135.096 24.4387 135.046 24.5211 134.975 24.5846C134.945 24.6111 134.911 24.6313 134.873 24.644C134.835 24.6568 134.795 24.6618 134.755 24.6588H133.968C133.915 24.6624 133.861 24.6545 133.81 24.6356C133.76 24.6167 133.714 24.5872 133.676 24.5491C133.638 24.511 133.608 24.4652 133.589 24.4147C133.571 24.3643 133.563 24.3104 133.566 24.2566C133.606 23.8973 133.745 23.5563 133.968 23.2723C134.289 22.8521 134.71 22.519 135.193 22.3033C135.827 22.0047 136.523 21.861 137.224 21.8838C137.756 21.832 138.293 21.8914 138.802 22.0583C139.31 22.2252 139.778 22.4959 140.176 22.8533C140.777 23.4964 141.1 24.3511 141.073 25.2311V31.1569C141.074 31.2148 141.063 31.2723 141.041 31.3258C141.019 31.3794 140.987 31.4278 140.945 31.468C140.906 31.5051 140.86 31.534 140.81 31.5529C140.76 31.5717 140.707 31.5802 140.653 31.5778H139.812C139.755 31.584 139.698 31.5775 139.644 31.5586C139.59 31.5397 139.541 31.509 139.501 31.4687C139.46 31.4285 139.429 31.3796 139.41 31.3258C139.391 31.272 139.384 31.2146 139.39 31.1579V30.3724C139.086 30.7913 138.684 31.1292 138.219 31.3567C137.603 31.6438 136.926 31.7771 136.246 31.745L136.248 31.7401ZM136.632 30.3694C136.99 30.3825 137.348 30.3209 137.682 30.1885C138.016 30.0561 138.318 29.8558 138.571 29.6002C138.841 29.2947 139.048 28.9387 139.179 28.5527C139.311 28.1667 139.365 27.7585 139.338 27.3516V26.8396L137.217 27.1513C136.528 27.2149 135.86 27.427 135.26 27.773C135.065 27.8782 134.901 28.0337 134.786 28.2235C134.67 28.4132 134.608 28.6303 134.605 28.8523C134.597 29.0775 134.649 29.3006 134.755 29.4994C134.861 29.6982 135.017 29.8656 135.208 29.9851C135.635 30.2492 136.128 30.3844 136.63 30.3744L136.632 30.3694ZM147.527 31.7401C146.967 31.7716 146.407 31.6907 145.88 31.5023C145.352 31.3139 144.868 31.0217 144.455 30.6429C143.68 29.7926 143.26 28.6771 143.284 27.5267L143.266 26.7956L143.284 26.0641C143.26 24.921 143.68 23.8131 144.455 22.9725C144.865 22.5887 145.349 22.2919 145.876 22.1002C146.404 21.9084 146.966 21.8258 147.527 21.8571C148.298 21.8341 149.063 21.9973 149.757 22.333C150.304 22.596 150.771 23.0002 151.11 23.5038C151.396 23.9148 151.566 24.3951 151.602 24.8947C151.609 24.9487 151.603 25.0036 151.584 25.0546C151.565 25.1056 151.533 25.1509 151.492 25.1866C151.405 25.2605 151.294 25.2996 151.18 25.2964H150.303C150.205 25.3034 150.108 25.2775 150.027 25.2227C149.945 25.141 149.882 25.041 149.845 24.9308C149.699 24.4305 149.391 23.9931 148.968 23.6878C148.542 23.4184 148.045 23.2845 147.541 23.304C147.207 23.2892 146.874 23.345 146.563 23.468C146.252 23.5909 145.971 23.778 145.737 24.0172C145.25 24.6182 144.996 25.3756 145.024 26.1491L145.006 26.8055L145.024 27.4268C144.992 28.2091 145.246 28.9761 145.737 29.5854C145.973 29.8214 146.255 30.0053 146.565 30.1251C146.876 30.2449 147.209 30.298 147.541 30.2809C148.042 30.2996 148.538 30.1725 148.968 29.9148C149.388 29.5994 149.696 29.1572 149.845 28.6535C149.883 28.5436 149.945 28.4438 150.027 28.3617C150.065 28.3289 150.109 28.3039 150.156 28.2882C150.203 28.2725 150.253 28.2664 150.303 28.2702H151.18C151.238 28.2691 151.296 28.2799 151.349 28.3018C151.403 28.3238 151.452 28.3564 151.492 28.3978C151.533 28.4334 151.565 28.4788 151.584 28.5297C151.603 28.5807 151.609 28.6357 151.602 28.6896C151.562 29.1877 151.392 29.6666 151.11 30.0791C150.771 30.5827 150.304 30.9869 149.757 31.2499C149.065 31.5953 148.298 31.7654 147.525 31.745L147.527 31.7401ZM154.215 31.557C154.158 31.5632 154.1 31.5566 154.047 31.5376C153.993 31.5187 153.944 31.4879 153.903 31.4476C153.863 31.4073 153.832 31.3584 153.813 31.3046C153.794 31.2508 153.787 31.1934 153.793 31.1366V19.0006C153.791 18.947 153.799 18.8936 153.818 18.8434C153.837 18.7932 153.866 18.7474 153.903 18.7087C153.943 18.6672 153.992 18.6344 154.046 18.6122C154.099 18.5901 154.157 18.5792 154.215 18.5801H155.128C155.238 18.5843 155.343 18.6299 155.421 18.7078C155.499 18.7858 155.545 18.8903 155.55 19.0006V23.2644C155.88 22.8328 156.306 22.4827 156.793 22.241C157.347 21.9798 157.955 21.8543 158.567 21.8749C159.078 21.8463 159.588 21.9334 160.059 22.1297C160.531 22.3261 160.952 22.6265 161.291 23.0087C161.981 23.8445 162.332 24.9083 162.276 25.9904V31.146C162.277 31.204 162.266 31.2616 162.244 31.3153C162.222 31.3689 162.189 31.4174 162.147 31.4576C162.109 31.4947 162.063 31.5236 162.013 31.5425C161.962 31.5614 161.909 31.5698 161.855 31.5674H160.942C160.886 31.5733 160.828 31.5665 160.775 31.5475C160.721 31.5285 160.672 31.4977 160.632 31.4575C160.592 31.4173 160.561 31.3685 160.542 31.3149C160.523 31.2613 160.516 31.2041 160.522 31.1475V26.0739C160.568 25.3469 160.34 24.6291 159.883 24.0617C159.653 23.8172 159.372 23.6264 159.061 23.503C158.749 23.3796 158.413 23.3266 158.079 23.348C157.737 23.3326 157.395 23.3899 157.077 23.5161C156.758 23.6423 156.47 23.8345 156.232 24.08C155.755 24.6306 155.513 25.3456 155.556 26.0725V31.1361C155.557 31.194 155.547 31.2516 155.525 31.3052C155.503 31.3589 155.47 31.4074 155.428 31.4477C155.39 31.4848 155.344 31.5137 155.294 31.5326C155.244 31.5515 155.19 31.56 155.137 31.5575L154.215 31.557ZM168.722 31.7401C168.168 31.7661 167.613 31.6776 167.094 31.4802C166.575 31.2828 166.102 30.9806 165.705 30.5925C164.922 29.7166 164.487 28.585 164.48 27.4105L164.462 26.7892L164.48 26.1857C164.503 25.0219 164.944 23.9052 165.723 23.0398C166.563 22.2672 167.67 21.8491 168.811 21.873C169.953 21.8969 171.041 22.3608 171.849 23.1679C172.635 24.1495 173.032 25.3867 172.963 26.6428V26.9544C172.965 27.0121 172.954 27.0694 172.932 27.1228C172.91 27.1761 172.877 27.2244 172.836 27.2645C172.797 27.3017 172.751 27.3305 172.701 27.3494C172.651 27.3683 172.598 27.3768 172.544 27.3744H166.217V27.5386C166.233 28.274 166.482 28.9852 166.93 29.5691C167.142 29.8338 167.412 30.0456 167.72 30.1879C168.027 30.3301 168.364 30.3989 168.703 30.3887C169.181 30.4092 169.656 30.2956 170.074 30.0608C170.386 29.8779 170.66 29.6356 170.879 29.3475C170.942 29.2486 171.023 29.162 171.117 29.0917C171.215 29.0479 171.322 29.0292 171.429 29.0373H172.326C172.425 29.0344 172.522 29.067 172.599 29.1293C172.674 29.1927 172.715 29.2876 172.709 29.3851C172.658 29.7584 172.477 30.1018 172.198 30.3546C171.803 30.7784 171.323 31.1138 170.789 31.3389C170.137 31.6196 169.432 31.758 168.722 31.745V31.7401ZM171.227 26.1086V26.0542C171.26 25.3083 171.012 24.5773 170.531 24.0059C170.299 23.7522 170.016 23.5496 169.702 23.411C169.387 23.2724 169.047 23.2009 168.703 23.2009C168.359 23.2009 168.018 23.2724 167.704 23.411C167.389 23.5496 167.106 23.7522 166.874 24.0059C166.417 24.5879 166.184 25.3148 166.218 26.0542V26.1086H171.227Z" fill="#51504F"/>
<path d="M117.687 27.0802V27.2211C117.71 27.221 117.732 27.2155 117.752 27.2049C117.773 27.1943 117.79 27.1791 117.803 27.1604C117.816 27.1418 117.824 27.1203 117.827 27.0978C117.83 27.0753 117.827 27.0525 117.819 27.0312L117.687 27.0802ZM115.219 20.589L115.351 20.5395C115.34 20.5132 115.322 20.4907 115.299 20.4748C115.276 20.4589 115.248 20.4504 115.22 20.4504C115.191 20.4504 115.164 20.4589 115.14 20.4748C115.117 20.4907 115.099 20.5132 115.089 20.5395L115.219 20.589ZM112.751 27.0802L112.62 27.0307C112.612 27.052 112.609 27.0748 112.612 27.0973C112.615 27.1199 112.623 27.1414 112.636 27.1601C112.649 27.1788 112.666 27.1941 112.686 27.2047C112.706 27.2154 112.728 27.221 112.751 27.2211V27.0802ZM109.825 31.4196C109.794 31.421 109.764 31.4155 109.736 31.4036C109.707 31.3918 109.682 31.3737 109.661 31.3509L109.461 31.5492C109.507 31.597 109.563 31.635 109.624 31.6609C109.685 31.6869 109.751 31.7002 109.817 31.7001L109.825 31.4196ZM109.661 31.3509C109.639 31.3302 109.621 31.3047 109.609 31.2764C109.597 31.248 109.591 31.2174 109.592 31.1867H109.312C109.312 31.2531 109.325 31.3189 109.351 31.3801C109.377 31.4413 109.415 31.4966 109.463 31.5428L109.661 31.3509ZM109.592 31.1867C109.589 31.1318 109.593 31.0768 109.604 31.0229L109.337 30.9339C109.316 31.0147 109.307 31.0968 109.31 31.1802L109.592 31.1867ZM109.601 31.0358L114.135 19.2045L113.873 19.1046L109.338 30.9364L109.601 31.0358ZM114.137 19.2015C114.166 19.108 114.223 19.026 114.301 18.9671C114.386 18.9134 114.486 18.887 114.587 18.8914V18.6094C114.429 18.6046 114.274 18.6481 114.142 18.7341C114.014 18.8258 113.919 18.9557 113.87 19.1051L114.137 19.2015ZM114.589 18.8914H115.833V18.6094H114.589V18.8914ZM115.833 18.8914C115.934 18.8867 116.034 18.9131 116.119 18.9671C116.197 19.026 116.255 19.108 116.284 19.2015L116.548 19.1046C116.499 18.9552 116.403 18.8253 116.276 18.7336C116.143 18.6475 115.987 18.6042 115.83 18.6094L115.833 18.8914ZM116.287 19.203L120.804 31.0343L121.066 30.9344L116.55 19.1026L116.287 19.203ZM120.797 31.0116L120.833 31.2129L121.11 31.1624L121.074 30.9606L120.797 31.0116ZM120.832 31.1867C120.833 31.2174 120.827 31.248 120.815 31.2764C120.803 31.3047 120.785 31.3302 120.763 31.3509L120.961 31.5492C121.009 31.5031 121.047 31.4477 121.073 31.3865C121.099 31.3253 121.112 31.2596 121.112 31.1931L120.832 31.1867ZM120.763 31.3509C120.742 31.3736 120.717 31.3915 120.688 31.4034C120.66 31.4154 120.63 31.4211 120.599 31.4201V31.7001C120.733 31.7001 120.862 31.6457 120.955 31.5492L120.763 31.3509ZM120.599 31.4201H119.667V31.7001H120.599V31.4201ZM119.667 31.4201C119.589 31.4268 119.51 31.4058 119.446 31.3608L119.265 31.5774C119.381 31.665 119.523 31.709 119.667 31.7016V31.4201ZM119.456 31.3687C119.406 31.3234 119.367 31.2674 119.342 31.205L119.077 31.2935C119.114 31.3974 119.176 31.4914 119.257 31.5675L119.456 31.3687ZM119.341 31.205L118.335 28.6071L118.073 28.7085L119.078 31.3054L119.341 31.205ZM118.204 28.5186H112.207V28.799H118.204V28.5186ZM112.076 28.6086L111.069 31.2065L111.331 31.3084L112.336 28.712L112.076 28.6086ZM111.067 31.2114C111.041 31.276 110.999 31.3326 110.944 31.3756L111.126 31.5883C111.219 31.5151 111.29 31.4177 111.332 31.3064L111.067 31.2114ZM110.945 31.3756C110.887 31.4196 110.815 31.4405 110.742 31.4345V31.7149C110.881 31.7199 111.016 31.6759 111.124 31.5903L110.945 31.3756ZM110.742 31.4345H109.809V31.7149H110.742V31.4345ZM117.804 27.0441L115.336 20.5529L115.074 20.6528L117.542 27.144L117.804 27.0441ZM115.072 20.5529L112.604 27.0441L112.866 27.144L115.334 20.6528L115.072 20.5529ZM112.735 27.236H117.671V26.9555H112.735V27.236ZM124.382 23.2917H124.241C124.241 23.3214 124.251 23.3503 124.268 23.3744C124.285 23.3984 124.31 23.4164 124.338 23.4257C124.366 23.435 124.397 23.4352 124.425 23.4263C124.453 23.4173 124.478 23.3996 124.496 23.3758L124.382 23.2917ZM124.418 30.4012L124.53 30.3161C124.512 30.293 124.487 30.2761 124.459 30.2676C124.431 30.2592 124.401 30.2597 124.373 30.269C124.346 30.2784 124.322 30.2961 124.304 30.3198C124.287 30.3435 124.278 30.3719 124.278 30.4012H124.418ZM123.116 34.9163C123.077 34.9174 123.037 34.9102 123.001 34.8952C122.965 34.8802 122.932 34.8577 122.904 34.8292L122.707 35.0281C122.815 35.1364 122.963 35.1957 123.116 35.1918V34.9163ZM122.904 34.8292C122.88 34.8035 122.862 34.7731 122.85 34.7399C122.838 34.7067 122.833 34.6714 122.836 34.6363H122.554C122.548 34.7817 122.603 34.9232 122.705 35.0281L122.904 34.8292ZM122.836 34.6363V22.4993H122.554V34.6363H122.836ZM122.836 22.4993C122.833 22.4639 122.838 22.429 122.85 22.3956C122.862 22.3622 122.881 22.3317 122.905 22.3059L122.706 22.108C122.656 22.1596 122.616 22.2209 122.59 22.2883C122.564 22.3557 122.552 22.4276 122.555 22.4998L122.836 22.4993ZM122.905 22.3059C122.932 22.2775 122.965 22.2552 123.001 22.2403C123.038 22.2254 123.077 22.2182 123.116 22.2193V21.9374C122.963 21.9334 122.814 21.9928 122.706 22.1006L122.905 22.3059ZM123.116 22.2193H123.957V21.9374H123.116V22.2193ZM123.957 22.2193C123.992 22.2169 124.027 22.2228 124.06 22.2365C124.092 22.2501 124.12 22.2712 124.143 22.298L124.356 22.1159C124.307 22.0583 124.245 22.0125 124.176 21.9819C124.107 21.9512 124.032 21.9365 123.956 21.9389L123.957 22.2193ZM124.159 22.3143C124.214 22.3603 124.242 22.4291 124.238 22.4998H124.518C124.521 22.4243 124.506 22.3493 124.475 22.2803C124.445 22.2113 124.399 22.1501 124.341 22.1011L124.159 22.3143ZM124.238 22.4998V23.3031H124.518V22.4998H124.238ZM124.492 23.3867C124.822 22.939 125.259 22.5809 125.763 22.3453C126.267 22.1096 126.822 22.0037 127.377 22.0373V21.7568C126.777 21.7224 126.177 21.8384 125.633 22.0944C125.089 22.3505 124.617 22.7384 124.261 23.223L124.492 23.3867ZM127.377 22.0373C127.895 21.997 128.415 22.08 128.895 22.2795C129.375 22.4789 129.8 22.7892 130.137 23.1849L130.359 23.0112C129.996 22.5814 129.537 22.2432 129.019 22.0244C128.501 21.8055 127.938 21.7122 127.377 21.7519V22.0373ZM130.137 23.1849C130.796 24.0559 131.152 25.1188 131.149 26.2111L131.43 26.1997C131.43 25.0472 131.054 23.9261 130.357 23.0078L130.137 23.1849ZM131.149 26.219C131.16 26.3471 131.167 26.5469 131.167 26.8294H131.448C131.448 26.5489 131.448 26.3372 131.428 26.1948L131.149 26.219ZM131.167 26.8294C131.167 27.1098 131.167 27.3117 131.149 27.4393L131.428 27.464C131.441 27.323 131.448 27.1098 131.448 26.8294H131.167ZM131.149 27.4457C131.148 28.5379 130.793 29.6003 130.137 30.4734L130.357 30.6475C131.05 29.7277 131.426 28.6084 131.43 27.4571L131.149 27.4457ZM130.137 30.4719C129.799 30.8657 129.373 31.1747 128.893 31.374C128.414 31.5733 127.895 31.6574 127.377 31.6195V31.9004C127.937 31.9367 128.499 31.8417 129.016 31.623C129.533 31.4043 129.993 31.0679 130.357 30.6406L130.137 30.4719ZM127.377 31.6195C126.831 31.6467 126.287 31.5416 125.79 31.3133C125.293 31.0849 124.859 30.7399 124.525 30.3077L124.302 30.4719C124.662 30.9391 125.129 31.3127 125.664 31.561C126.199 31.8094 126.786 31.9251 127.375 31.8985L127.377 31.6195ZM124.274 30.3898V34.6328H124.556V30.3898H124.274ZM124.274 34.6328C124.276 34.668 124.271 34.7033 124.259 34.7365C124.248 34.7697 124.229 34.8001 124.205 34.8257L124.404 35.0246C124.506 34.9202 124.56 34.7783 124.555 34.6328H124.274ZM124.198 34.8342C124.176 34.8609 124.147 34.8819 124.114 34.8956C124.082 34.9094 124.047 34.9154 124.012 34.9133V35.1952C124.165 35.2002 124.312 35.1349 124.412 35.0182L124.198 34.8342ZM124.012 34.9133H123.117V35.1952H124.012V34.9133ZM126.992 30.421C127.37 30.4523 127.75 30.39 128.098 30.2395C128.447 30.0891 128.753 29.8551 128.989 29.5583L128.763 29.3941C128.552 29.6547 128.28 29.8593 127.972 29.9895C127.663 30.1197 127.327 30.1716 126.993 30.1405L126.992 30.421ZM128.987 29.5603C129.435 28.9142 129.675 28.1468 129.675 27.3606L129.394 27.3492C129.397 28.0788 129.177 28.7917 128.763 29.3926L128.987 29.5603ZM129.673 27.369C129.686 27.2391 129.693 27.0576 129.693 26.8244H129.411C129.411 27.0539 129.411 27.2261 129.393 27.3408L129.673 27.369ZM129.693 26.8244C129.758 25.8842 129.524 24.9474 129.025 24.1479C128.788 23.8393 128.478 23.5938 128.124 23.433C127.769 23.2722 127.38 23.2011 126.992 23.2259V23.5064C127.69 23.4569 128.367 23.7601 128.796 24.3136C129.258 25.065 129.473 25.9429 129.409 26.823L129.693 26.8244ZM126.992 23.2279C126.608 23.2038 126.225 23.2727 125.874 23.4289C125.524 23.5851 125.216 23.8238 124.977 24.1247L125.201 24.2889C125.413 24.0229 125.687 23.8124 125.998 23.6755C126.31 23.5387 126.651 23.4796 126.99 23.5034L126.992 23.2279ZM124.977 24.1247C124.537 24.7206 124.291 25.4374 124.273 26.1779L124.555 26.1913C124.572 25.5062 124.801 24.8433 125.21 24.2938L124.977 24.1247ZM124.273 26.1814L124.254 26.8769H124.535L124.553 26.1814H124.273ZM124.254 26.8838L124.273 27.5966H124.555L124.537 26.8833L124.254 26.8838ZM124.273 27.5985C124.287 28.3176 124.543 29.0109 124.999 29.5667L125.217 29.3877C124.801 28.8775 124.57 28.2418 124.561 27.5837L124.273 27.5985ZM124.999 29.5667C125.242 29.8535 125.549 30.0799 125.894 30.2284C126.24 30.3769 126.615 30.4433 126.99 30.4225V30.142C126.656 30.1628 126.322 30.1056 126.014 29.9749C125.706 29.8443 125.433 29.6437 125.215 29.3891L124.999 29.5667ZM139.348 30.3829H139.489C139.488 30.3533 139.478 30.3248 139.46 30.3012C139.442 30.2777 139.417 30.2604 139.389 30.2517C139.361 30.2431 139.33 30.2435 139.302 30.2531C139.274 30.2626 139.25 30.2806 139.233 30.3047L139.348 30.3829ZM139.31 26.8685H139.451C139.451 26.848 139.447 26.8278 139.438 26.8092C139.429 26.7906 139.417 26.7741 139.401 26.7609C139.386 26.7477 139.367 26.738 139.348 26.7326C139.328 26.7271 139.307 26.7261 139.287 26.7295L139.31 26.8685ZM136.22 31.6279C135.666 31.6334 135.117 31.5128 134.616 31.2752L134.495 31.5295C135.034 31.7842 135.623 31.9138 136.219 31.9084L136.22 31.6279ZM134.616 31.2752C134.152 31.0633 133.749 30.7385 133.444 30.3304L133.217 30.4947C133.55 30.9404 133.989 31.2952 134.495 31.5265L134.616 31.2752ZM133.447 30.3354C133.174 29.9463 133.029 29.4823 133.032 29.0073H132.75C132.747 29.5391 132.909 30.0588 133.214 30.4947L133.447 30.3354ZM133.032 29.0073C133.026 28.6445 133.108 28.2857 133.27 27.9614C133.433 27.637 133.671 27.3566 133.965 27.144L133.793 26.9229C133.465 27.1617 133.199 27.4758 133.018 27.8388C132.836 28.2018 132.745 28.6031 132.751 29.0088L133.032 29.0073ZM133.965 27.1425C134.742 26.5844 135.652 26.241 136.604 26.1468L136.564 25.8683C135.563 25.9687 134.607 26.3318 133.791 26.9209L133.965 27.1425ZM136.604 26.1468L139.328 25.7634L139.288 25.4845L136.563 25.8683L136.604 26.1468ZM139.45 25.6239V25.0942H139.169V25.6234L139.45 25.6239ZM139.45 25.0942C139.469 24.8161 139.427 24.5372 139.326 24.2772C139.226 24.0173 139.069 23.7828 138.867 23.5905C138.38 23.2237 137.778 23.0453 137.17 23.0884V23.3704C137.709 23.3272 138.246 23.4804 138.682 23.8017C138.854 23.9674 138.988 24.1692 139.073 24.3927C139.158 24.6162 139.192 24.8558 139.174 25.0942H139.45ZM137.17 23.0884C136.678 23.0688 136.191 23.1984 135.774 23.4604L135.938 23.6934C136.308 23.4614 136.74 23.347 137.176 23.3654L137.17 23.0884ZM135.777 23.4594C135.439 23.6652 135.157 23.9526 134.957 24.2953L135.203 24.4333C135.38 24.1321 135.628 23.879 135.925 23.6963L135.777 23.4594ZM134.957 24.3186C134.94 24.3842 134.905 24.4438 134.855 24.4907L135.031 24.7103C135.123 24.6297 135.189 24.5244 135.223 24.4071L134.957 24.3186ZM134.846 24.5016C134.812 24.5275 134.769 24.5388 134.726 24.5333V24.8137C134.784 24.8168 134.842 24.8082 134.897 24.7885C134.952 24.7688 135.002 24.7383 135.044 24.699L134.846 24.5016ZM134.726 24.5333H133.939V24.8137H134.726V24.5333ZM133.939 24.5333C133.865 24.5338 133.794 24.5069 133.739 24.4576L133.556 24.6708C133.661 24.7638 133.798 24.8142 133.939 24.8137V24.5333ZM133.753 24.4724C133.703 24.4172 133.676 24.3451 133.677 24.2706H133.396C133.395 24.4121 133.446 24.5486 133.539 24.6544L133.753 24.4724ZM133.677 24.2775C133.715 23.9439 133.845 23.6275 134.054 23.3639L133.824 23.1997C133.583 23.5062 133.435 23.8749 133.396 24.2627L133.677 24.2775ZM134.054 23.3654C134.361 22.9637 134.764 22.6457 135.226 22.4404L135.103 22.1882C134.599 22.4141 134.159 22.7625 133.824 23.2017L134.054 23.3654ZM135.228 22.4404C135.843 22.1512 136.517 22.0124 137.196 22.0353V21.7549C136.473 21.7318 135.755 21.8814 135.102 22.1911L135.228 22.4404ZM137.196 22.0353C137.708 21.9846 138.224 22.0404 138.713 22.1994C139.202 22.3583 139.653 22.6169 140.037 22.9588L140.243 22.7684C139.833 22.3977 139.35 22.1162 138.826 21.9417C138.301 21.7673 137.746 21.7036 137.196 21.7549V22.0353ZM140.038 22.9603C140.615 23.5773 140.923 24.3976 140.896 25.2416H141.176C141.203 24.3262 140.867 23.4372 140.242 22.7684L140.038 22.9603ZM140.896 25.2416V31.1674H141.176V25.2416H140.896ZM140.896 31.1674C140.897 31.2067 140.89 31.2458 140.875 31.2822C140.86 31.3186 140.837 31.3514 140.809 31.3786L141.007 31.5774C141.061 31.5236 141.103 31.4595 141.131 31.3889C141.16 31.3184 141.173 31.2429 141.171 31.1669L140.896 31.1674ZM140.809 31.3786C140.783 31.4028 140.753 31.4215 140.719 31.4334C140.686 31.4453 140.651 31.4502 140.616 31.4478V31.7283C140.761 31.7333 140.902 31.6788 141.007 31.5774L140.809 31.3786ZM140.616 31.4478H139.774V31.7283H140.615L140.616 31.4478ZM139.774 31.4478C139.694 31.4504 139.616 31.4235 139.555 31.3722L139.372 31.5854C139.484 31.6808 139.627 31.7323 139.774 31.7298V31.4478ZM139.571 31.387C139.518 31.3263 139.491 31.2477 139.494 31.1674H139.213C139.21 31.3143 139.261 31.4572 139.356 31.569L139.571 31.387ZM139.494 31.1674V30.3814H139.213V31.1674H139.494ZM139.238 30.3013C138.948 30.7028 138.563 31.0265 138.118 31.2441L138.247 31.4933C138.732 31.2544 139.152 30.9004 139.469 30.462L139.238 30.3013ZM138.118 31.2441C137.528 31.5234 136.879 31.6563 136.227 31.6314V31.9118C136.924 31.9365 137.618 31.793 138.249 31.4933L138.118 31.2441ZM136.61 30.5407C136.988 30.5542 137.364 30.4891 137.716 30.3497C138.067 30.2102 138.385 29.9993 138.651 29.7304L138.449 29.5336C138.21 29.7756 137.923 29.9651 137.606 30.0899C137.29 30.2148 136.95 30.2723 136.61 30.2587V30.5407ZM138.651 29.7304C138.933 29.4117 139.15 29.0403 139.289 28.6375C139.427 28.2347 139.484 27.8085 139.458 27.3834H139.177C139.204 27.7723 139.153 28.1627 139.028 28.532C138.903 28.9013 138.706 29.2422 138.449 29.5351L138.651 29.7304ZM139.458 27.3834V26.8719H139.177V27.3834H139.458ZM139.294 26.7275L137.173 27.0376L137.214 27.3166L139.334 27.0065L139.294 26.7275ZM137.173 27.0376C136.463 27.104 135.776 27.324 135.159 27.6821L135.315 27.9166C135.897 27.5823 136.545 27.3781 137.214 27.3181L137.173 27.0376ZM135.161 27.6807C134.945 27.7981 134.764 27.9708 134.637 28.1812C134.51 28.3916 134.441 28.6319 134.437 28.8777H134.719C134.723 28.679 134.78 28.4849 134.885 28.3158C134.989 28.1467 135.137 28.0088 135.313 27.9166L135.161 27.6807ZM134.437 28.8777C134.43 29.1259 134.487 29.3718 134.604 29.591C134.721 29.8102 134.893 29.995 135.103 30.1272L135.259 29.8947C135.087 29.7879 134.947 29.6376 134.852 29.459C134.757 29.2804 134.71 29.0799 134.718 28.8777H134.437ZM135.107 30.1306C135.558 30.4076 136.08 30.5486 136.609 30.5362V30.2553C136.133 30.2676 135.664 30.1416 135.259 29.8927L135.107 30.1306ZM147.505 31.5997C146.964 31.6316 146.422 31.5546 145.911 31.3733C145.4 31.192 144.93 30.91 144.53 30.5441L144.333 30.744C144.759 31.136 145.259 31.4387 145.803 31.6342C146.348 31.8297 146.926 31.914 147.504 31.8821L147.505 31.5997ZM144.532 30.5456C143.784 29.7218 143.379 28.6426 143.402 27.5298L143.121 27.5397C143.101 28.7222 143.534 29.8677 144.332 30.741L144.532 30.5456ZM143.402 27.5313L143.384 26.7997H143.104L143.121 27.5313H143.402ZM143.384 26.8061L143.402 26.0751H143.121L143.104 26.8061H143.384ZM143.402 26.0765C143.377 24.9691 143.782 23.8951 144.532 23.08L144.332 22.8816C143.532 23.7471 143.098 24.8885 143.121 26.0666L143.402 26.0765ZM144.532 23.08C144.929 22.7088 145.397 22.4221 145.908 22.2375C146.419 22.0529 146.962 21.9742 147.505 22.0061V21.7257C146.926 21.6941 146.346 21.7802 145.801 21.9789C145.256 22.1776 144.756 22.4847 144.333 22.8816L144.532 23.08ZM147.505 22.0061C148.253 21.9826 148.996 22.14 149.67 22.4652L149.8 22.2159C149.085 21.869 148.298 21.7002 147.504 21.7237L147.505 22.0061ZM149.67 22.4652C150.195 22.7161 150.644 23.1027 150.969 23.585L151.207 23.4361C150.855 22.9111 150.369 22.4898 149.8 22.2159L149.67 22.4652ZM150.971 23.5885C151.242 23.9763 151.404 24.4294 151.441 24.9008L151.722 24.8859C151.683 24.3619 151.505 23.8578 151.205 23.4262L150.971 23.5885ZM151.441 24.9151C151.446 24.9454 151.442 24.9762 151.432 25.0049C151.421 25.0336 151.404 25.0592 151.381 25.0793L151.564 25.2925C151.625 25.2431 151.671 25.1793 151.7 25.1069C151.729 25.0346 151.738 24.9562 151.729 24.879L151.441 24.9151ZM151.381 25.0793C151.319 25.1308 151.241 25.1577 151.161 25.155V25.435C151.309 25.438 151.452 25.3865 151.564 25.291L151.381 25.0793ZM151.161 25.155H150.284V25.435H151.161V25.155ZM150.284 25.155C150.218 25.1618 150.153 25.1466 150.097 25.112L149.921 25.3321C150.027 25.4073 150.154 25.4444 150.284 25.437V25.155ZM150.097 25.112C150.033 25.0445 149.985 24.964 149.955 24.876L149.697 24.9844C149.743 25.1164 149.819 25.2356 149.921 25.3321L150.097 25.112ZM149.959 24.8825C149.802 24.3535 149.473 23.8919 149.024 23.5707L148.872 23.8066C149.268 24.0952 149.556 24.5077 149.692 24.9789L149.959 24.8825ZM149.027 23.5707C148.579 23.2848 148.053 23.1423 147.522 23.1621V23.4426C147.997 23.4234 148.467 23.5486 148.87 23.8017L149.027 23.5707ZM147.522 23.1621C147.168 23.147 146.814 23.2067 146.485 23.3372C146.155 23.4678 145.857 23.6663 145.609 23.9199L145.813 24.1133C146.034 23.8872 146.301 23.7106 146.595 23.5952C146.89 23.4799 147.206 23.4283 147.522 23.4441V23.1621ZM145.609 23.9199C145.096 24.5476 144.829 25.3406 144.858 26.1507L145.139 26.1601C145.108 25.4183 145.347 24.6905 145.813 24.1118L145.609 23.9199ZM144.858 26.1517L144.84 26.8081H145.121L145.139 26.1517H144.858ZM144.84 26.818L144.858 27.4393L145.139 27.4314L145.121 26.8096L144.84 26.818ZM144.858 27.4413C144.827 28.257 145.094 29.056 145.609 29.6894L145.813 29.496C145.346 28.9112 145.106 28.1771 145.139 27.4294L144.858 27.4413ZM145.609 29.6894C145.858 29.9402 146.157 30.1358 146.487 30.2633C146.816 30.3908 147.169 30.4474 147.522 30.4294V30.1474C147.207 30.1648 146.891 30.1153 146.597 30.0022C146.302 29.889 146.035 29.7148 145.813 29.491L145.609 29.6894ZM147.522 30.4294C148.05 30.4484 148.572 30.3133 149.024 30.0406L148.872 29.8042C148.464 30.0469 147.995 30.166 147.522 30.1469V30.4294ZM149.027 30.0386C149.473 29.7063 149.799 29.2394 149.959 28.707L149.693 28.6136C149.555 29.0885 149.267 29.5064 148.873 29.8056L149.027 30.0386ZM149.955 28.7154C149.985 28.6274 150.033 28.5468 150.097 28.479L149.921 28.2594C149.82 28.3565 149.743 28.4761 149.697 28.6086L149.955 28.7154ZM150.108 28.4681C150.133 28.4484 150.161 28.4336 150.191 28.4248C150.221 28.416 150.253 28.4132 150.284 28.4167V28.1362C150.216 28.1323 150.148 28.142 150.083 28.1648C150.019 28.1877 149.96 28.2232 149.91 28.2693L150.108 28.4681ZM150.284 28.4167H151.161V28.1362H150.284V28.4167ZM151.161 28.4167C151.2 28.4156 151.239 28.4228 151.276 28.4378C151.312 28.4528 151.345 28.4752 151.372 28.5037L151.571 28.3054C151.517 28.2518 151.453 28.2097 151.383 28.1815C151.312 28.1532 151.237 28.1395 151.161 28.1412V28.4167ZM151.381 28.5107C151.404 28.5307 151.421 28.5562 151.432 28.5846C151.442 28.6131 151.446 28.6438 151.441 28.6739L151.72 28.7021C151.73 28.625 151.72 28.5467 151.691 28.4744C151.663 28.4022 151.616 28.3384 151.556 28.2891L151.381 28.5107ZM151.441 28.6887C151.402 29.1632 151.239 29.6191 150.969 30.0109L151.205 30.1618C151.501 29.729 151.679 29.2266 151.722 28.7041L151.441 28.6887ZM150.969 30.0109C150.644 30.4934 150.195 30.8802 149.67 31.1313L149.8 31.3806C150.369 31.1065 150.855 30.6852 151.207 30.1603L150.969 30.0109ZM149.668 31.1328C148.995 31.4596 148.252 31.6172 147.504 31.5918V31.8722C148.298 31.8989 149.086 31.7301 149.8 31.3806L149.668 31.1328ZM155.527 23.2457H155.387C155.388 23.2748 155.397 23.303 155.414 23.3266C155.431 23.3502 155.455 23.368 155.482 23.3775C155.51 23.3871 155.539 23.3879 155.567 23.3799C155.595 23.3719 155.62 23.3554 155.638 23.3328L155.527 23.2457ZM154.193 31.4132C154.113 31.4158 154.035 31.3888 153.974 31.3375L153.79 31.5507C153.902 31.6467 154.045 31.6981 154.192 31.6952L154.193 31.4132ZM153.99 31.3524C153.939 31.2909 153.912 31.2128 153.914 31.1328H153.632C153.63 31.2797 153.68 31.4226 153.775 31.5344L153.99 31.3524ZM153.914 31.1328V18.9962H153.632V31.1328H153.914ZM153.914 18.9962C153.912 18.9611 153.917 18.9258 153.929 18.8926C153.941 18.8594 153.96 18.829 153.984 18.8033L153.785 18.6045C153.735 18.6562 153.695 18.7176 153.669 18.7849C153.643 18.8523 153.631 18.9241 153.634 18.9962H153.914ZM153.984 18.8033C154.011 18.7748 154.044 18.7523 154.08 18.7372C154.116 18.7221 154.156 18.7148 154.195 18.7158V18.4353C154.119 18.4337 154.044 18.4474 153.973 18.4756C153.903 18.5038 153.839 18.546 153.785 18.5995L153.984 18.8033ZM154.195 18.7158H155.109V18.4353H154.195V18.7158ZM155.109 18.7158C155.143 18.7134 155.178 18.7194 155.211 18.7331C155.243 18.7469 155.271 18.7681 155.294 18.7949L155.507 18.6109C155.458 18.5533 155.396 18.5075 155.327 18.4768C155.258 18.4462 155.183 18.4315 155.107 18.4338L155.109 18.7158ZM155.309 18.8098C155.336 18.8323 155.357 18.8607 155.37 18.8929C155.384 18.925 155.39 18.9599 155.387 18.9948H155.669C155.672 18.9193 155.657 18.8443 155.626 18.7753C155.596 18.7063 155.55 18.645 155.492 18.5961L155.309 18.8098ZM155.387 18.9948V23.2586H155.669V18.9948H155.387ZM155.638 23.3427C155.956 22.9274 156.364 22.5907 156.832 22.3583L156.709 22.1061C156.202 22.357 155.76 22.7212 155.417 23.1705L155.638 23.3427ZM156.835 22.3583C157.37 22.1068 157.956 21.9863 158.546 22.0071V21.7272C157.912 21.7067 157.282 21.8372 156.708 22.108L156.835 22.3583ZM158.546 22.0071C159.037 21.9775 159.528 22.0597 159.983 22.2475C160.437 22.4353 160.843 22.7239 161.17 23.0914L161.383 22.9084C161.03 22.5109 160.593 22.1981 160.102 21.9934C159.612 21.7886 159.082 21.6971 158.551 21.7257L158.546 22.0071ZM161.17 23.0953C161.838 23.9049 162.178 24.9352 162.123 25.983H162.403C162.459 24.8666 162.093 23.77 161.38 22.9093L161.17 23.0953ZM162.123 25.983V31.1387H162.403V25.983H162.123ZM162.123 31.1387C162.124 31.1781 162.117 31.2178 162.102 31.2543C162.087 31.2907 162.064 31.3237 162.036 31.3509L162.235 31.5492C162.343 31.4404 162.401 31.2925 162.399 31.1392L162.123 31.1387ZM162.036 31.3509C162.01 31.375 161.98 31.3937 161.947 31.4056C161.913 31.4175 161.878 31.4224 161.843 31.4201V31.7001C161.988 31.7051 162.13 31.6506 162.235 31.5492L162.036 31.3509ZM161.843 31.4201H160.929V31.7001H161.843L161.843 31.4201ZM160.929 31.4201C160.849 31.4227 160.771 31.3958 160.709 31.3445L160.526 31.5572C160.638 31.6531 160.781 31.7046 160.927 31.7016L160.929 31.4201ZM160.726 31.3593C160.675 31.2977 160.648 31.2194 160.65 31.1392H160.369C160.365 31.2861 160.416 31.4291 160.511 31.5413L160.726 31.3593ZM160.65 31.1392V26.0701H160.369V31.1337L160.65 31.1392ZM160.65 26.0751C160.697 25.3131 160.456 24.5615 159.975 23.9689L159.765 24.1558C160.199 24.6968 160.414 25.381 160.368 26.0731L160.65 26.0751ZM159.976 23.9708C159.733 23.7102 159.435 23.5067 159.103 23.3751C158.772 23.2435 158.415 23.187 158.059 23.2096V23.4901C158.375 23.4676 158.691 23.5157 158.986 23.6309C159.281 23.746 159.546 23.9254 159.763 24.1558L159.976 23.9708ZM158.059 23.2096C157.698 23.1948 157.338 23.2562 157.002 23.3898C156.666 23.5234 156.363 23.7263 156.111 23.9852L156.314 24.1791C156.54 23.9481 156.812 23.7674 157.113 23.6489C157.414 23.5304 157.736 23.4768 158.059 23.4915V23.2096ZM156.111 23.9852C155.607 24.5616 155.35 25.3126 155.395 26.0765H155.677C155.633 25.3853 155.862 24.7045 156.315 24.1806L156.111 23.9852ZM155.395 26.0765V31.1412H155.677V26.0701L155.395 26.0765ZM155.395 31.1412C155.396 31.1805 155.389 31.2196 155.374 31.2559C155.36 31.2923 155.337 31.3252 155.309 31.3524L155.507 31.5507C155.56 31.497 155.602 31.433 155.631 31.3627C155.659 31.2923 155.672 31.217 155.671 31.1412H155.395ZM155.309 31.3524C155.283 31.3767 155.252 31.3953 155.219 31.4073C155.186 31.4192 155.15 31.4241 155.115 31.4216V31.7016C155.261 31.7065 155.402 31.6521 155.507 31.5507L155.309 31.3524ZM155.115 31.4216H154.202V31.7016H155.115V31.4216ZM168.705 31.6037C168.168 31.6291 167.632 31.5436 167.13 31.3525C166.628 31.1614 166.171 30.8689 165.787 30.4932L165.587 30.6901C165.997 31.0922 166.485 31.4057 167.021 31.6112C167.557 31.8166 168.13 31.9095 168.703 31.8841L168.705 31.6037ZM165.788 30.4947C165.029 29.6425 164.607 28.5428 164.601 27.4017L164.321 27.4165C164.33 28.6245 164.78 29.7876 165.585 30.6881L165.788 30.4947ZM164.603 27.4051L164.585 26.7834H164.304L164.322 27.4051H164.603ZM164.585 26.7918L164.603 26.1883L164.321 26.1799L164.303 26.7834L164.585 26.7918ZM164.603 26.1933C164.624 25.0625 165.052 23.9772 165.808 23.1359L165.605 22.9425C164.804 23.8315 164.349 24.9786 164.322 26.175L164.603 26.1933ZM165.807 23.1359C166.182 22.7579 166.632 22.4624 167.128 22.2684C167.623 22.0743 168.154 21.986 168.686 22.0091V21.7286C168.117 21.7059 167.548 21.802 167.018 22.011C166.487 22.22 166.006 22.5372 165.605 22.9425L165.807 23.1359ZM168.686 22.0091C169.254 21.9756 169.823 22.0706 170.349 22.287C170.875 22.5034 171.345 22.8356 171.725 23.2591L171.939 23.0751C171.532 22.621 171.029 22.2642 170.466 22.0312C169.903 21.7981 169.295 21.6947 168.686 21.7286V22.0091ZM171.727 23.2591C172.491 24.2148 172.876 25.4187 172.808 26.6404H173.09C173.16 25.3507 172.751 24.0806 171.942 23.0736L171.727 23.2591ZM172.808 26.6404V26.9521H173.09V26.6404H172.808ZM172.808 26.9521C172.809 26.9914 172.802 27.0306 172.787 27.0671C172.772 27.1035 172.75 27.1365 172.721 27.1638L172.919 27.3621C173.028 27.2533 173.087 27.1054 173.083 26.9521H172.808ZM172.721 27.1638C172.695 27.188 172.665 27.2067 172.631 27.2186C172.598 27.2305 172.563 27.2354 172.527 27.233V27.513C172.673 27.5179 172.815 27.4635 172.92 27.3621L172.721 27.1638ZM172.527 27.233H166.2V27.513H172.527V27.233ZM166.059 27.374V27.5377H166.341V27.374H166.059ZM166.059 27.5377C166.077 28.3022 166.337 29.0412 166.802 29.6483L167.023 29.4747C166.594 28.9139 166.355 28.2309 166.34 27.5248L166.059 27.5377ZM166.804 29.6498C167.028 29.9315 167.315 30.1571 167.642 30.3089C167.969 30.4606 168.326 30.5344 168.686 30.5243V30.2439C168.368 30.2537 168.052 30.1891 167.763 30.0553C167.474 29.9216 167.22 29.7222 167.022 29.4732L166.804 29.6498ZM168.686 30.5243C169.192 30.5452 169.693 30.4235 170.133 30.1732L169.985 29.9337C169.59 30.1558 169.141 30.2628 168.688 30.2424L168.686 30.5243ZM170.133 30.1732C170.461 29.9803 170.748 29.7252 170.978 29.4223L170.748 29.2581C170.539 29.5303 170.28 29.7597 169.984 29.9337L170.133 30.1732ZM170.974 29.4253C171.016 29.3685 171.06 29.314 171.108 29.2615C171.121 29.247 171.135 29.2333 171.15 29.2205L171.163 29.2106L171.036 28.9598C170.985 28.9893 170.939 29.0269 170.9 29.0711C170.847 29.1305 170.797 29.1924 170.75 29.2566L170.974 29.4253ZM171.171 29.2056C171.247 29.176 171.329 29.1646 171.41 29.171V28.891C171.278 28.8826 171.146 28.9085 171.027 28.9662L171.171 29.2056ZM171.41 29.171H172.308V28.891H171.41V29.171ZM172.308 29.171C172.374 29.1677 172.439 29.1888 172.491 29.2304L172.672 29.0137C172.569 28.93 172.44 28.8858 172.308 28.8891V29.171ZM172.491 29.2304C172.534 29.2675 172.555 29.3219 172.551 29.3778H172.831C172.833 29.3086 172.819 29.2399 172.791 29.1768C172.762 29.1137 172.72 29.0579 172.667 29.0137L172.491 29.2304ZM172.551 29.3778C172.497 29.7159 172.329 30.0252 172.073 30.2533L172.283 30.4422C172.586 30.1639 172.781 29.7865 172.831 29.3778H172.551ZM172.073 30.2553C171.692 30.6656 171.228 30.9903 170.712 31.2079L170.83 31.4642C171.382 31.2294 171.879 30.8804 172.286 30.4403L172.073 30.2553ZM170.713 31.2065C170.08 31.478 169.395 31.6112 168.706 31.5972V31.8772C169.436 31.891 170.16 31.7496 170.83 31.4622L170.713 31.2065ZM171.352 26.1042V26.0498H171.071V26.1042H171.352ZM171.352 26.0498C171.385 25.2697 171.125 24.5053 170.622 23.908L170.41 24.0955C170.866 24.6419 171.1 25.3395 171.066 26.0503L171.352 26.0498ZM170.623 23.9179C170.387 23.6371 170.09 23.4142 169.754 23.2661C169.418 23.118 169.053 23.0488 168.686 23.0637V23.3456C169.012 23.3317 169.336 23.3925 169.634 23.5233C169.932 23.6542 170.197 23.8516 170.407 24.1004L170.623 23.9179ZM168.686 23.0637C168.32 23.0491 167.955 23.1186 167.62 23.2668C167.284 23.4149 166.987 23.6378 166.751 23.9184L166.966 24.0985C167.176 23.8497 167.44 23.6524 167.739 23.5216C168.037 23.3908 168.361 23.3301 168.686 23.3441V23.0637ZM166.749 23.9184C166.271 24.5235 166.026 25.2798 166.057 26.0503H166.339C166.306 25.3434 166.528 24.6482 166.966 24.092L166.749 23.9184ZM166.057 26.0503V26.1047H166.339V26.0503H166.057ZM166.198 26.2452H171.209V25.9647H166.198V26.2452ZM106.027 74.5103C105.782 74.5045 105.549 74.4047 105.376 74.2315C105.202 74.0584 105.103 73.8252 105.097 73.5804C105.089 73.4086 105.104 73.2365 105.143 73.0689L116.666 43.0096C116.761 42.696 116.96 42.4241 117.23 42.2385C117.5 42.0529 117.825 41.9646 118.152 41.9881H121.311C121.638 41.9647 121.963 42.053 122.233 42.2387C122.504 42.4244 122.703 42.6964 122.798 43.0101L134.279 73.0689L134.372 73.5804C134.365 73.8249 134.265 74.0576 134.092 74.2306C133.919 74.4036 133.686 74.5037 133.442 74.5103H131.072C130.79 74.528 130.51 74.4458 130.281 74.2778C130.117 74.1225 129.99 73.9316 129.91 73.7199L127.356 67.1218H112.116L109.561 73.7199C109.475 73.9401 109.33 74.1327 109.143 74.2773C108.931 74.4406 108.668 74.5232 108.4 74.5103H106.027ZM126.004 63.1286L119.733 46.6358L113.463 63.1261L126.004 63.1286ZM139.426 45.8459C139.282 45.8614 139.137 45.8444 139 45.7962C138.863 45.7481 138.739 45.6699 138.636 45.5675C138.534 45.4651 138.456 45.341 138.407 45.2044C138.359 45.0678 138.342 44.922 138.357 44.7779V42.2686C138.349 41.9798 138.449 41.6983 138.636 41.4782C138.738 41.3722 138.861 41.2884 138.997 41.232C139.133 41.1756 139.279 41.1478 139.426 41.1502H142.354C142.5 41.1496 142.646 41.178 142.781 41.2338C142.917 41.2895 143.04 41.3716 143.144 41.4753C143.247 41.5789 143.33 41.7021 143.385 41.8377C143.441 41.9732 143.47 42.1185 143.469 42.2651V44.7745C143.474 45.0712 143.355 45.3572 143.141 45.5634C142.922 45.7507 142.641 45.8501 142.352 45.8424L139.426 45.8459ZM139.799 74.5118C139.655 74.527 139.509 74.5099 139.372 74.4616C139.236 74.4132 139.112 74.335 139.009 74.2325C138.907 74.1301 138.828 74.006 138.78 73.8693C138.732 73.7327 138.714 73.587 138.729 73.4429V51.42C138.716 51.1445 138.817 50.8759 139.008 50.677C139.111 50.5713 139.234 50.4877 139.37 50.4313C139.506 50.3749 139.652 50.3469 139.799 50.3491H142.028C142.308 50.3599 142.573 50.4759 142.771 50.6738C142.969 50.8718 143.086 51.1372 143.097 51.417V73.4379C143.102 73.7352 142.983 74.0216 142.769 74.2284C142.57 74.4193 142.301 74.5202 142.026 74.5068L139.799 74.5118ZM151.051 74.5118C150.907 74.527 150.761 74.5098 150.625 74.4614C150.488 74.4131 150.364 74.3348 150.262 74.2323C150.16 74.1298 150.081 74.0057 150.033 73.8691C149.985 73.7325 149.968 73.5869 149.984 73.4429V51.466C149.976 51.1777 150.075 50.8968 150.262 50.677C150.364 50.571 150.487 50.4872 150.623 50.4308C150.759 50.3743 150.906 50.3465 151.053 50.3491H153.185C153.332 50.3484 153.477 50.3768 153.612 50.4326C153.748 50.4885 153.871 50.5706 153.975 50.6743C154.079 50.778 154.161 50.9012 154.217 51.0369C154.273 51.1725 154.301 51.3178 154.3 51.4645V53.5078C154.993 52.4375 155.965 51.5773 157.112 51.0204C158.258 50.4636 159.536 50.2314 160.805 50.3491H162.608C162.888 50.3602 163.153 50.4762 163.351 50.6742C163.549 50.8721 163.665 51.1373 163.676 51.417V53.3214C163.681 53.4619 163.654 53.6017 163.597 53.7303C163.541 53.8589 163.455 53.9729 163.348 54.0638C163.25 54.1584 163.133 54.2319 163.005 54.2798C162.878 54.3278 162.742 54.3492 162.605 54.3428H159.817C159.092 54.3036 158.366 54.4156 157.686 54.6716C157.006 54.9277 156.387 55.3222 155.868 55.8302C155.373 56.3568 154.99 56.9782 154.742 57.657C154.495 58.3359 154.387 59.0579 154.426 59.7794V73.4379C154.431 73.7352 154.313 74.0216 154.098 74.2284C153.878 74.4154 153.597 74.5146 153.308 74.5068L151.051 74.5118ZM171.116 74.5118C170.972 74.5268 170.826 74.5095 170.69 74.461C170.553 74.4126 170.429 74.3343 170.327 74.2319C170.224 74.1295 170.146 74.0055 170.098 73.8689C170.05 73.7324 170.033 73.5869 170.048 73.4429V54.0673H166.098C165.954 54.0825 165.809 54.0653 165.673 54.017C165.536 53.9687 165.412 53.8905 165.31 53.7881C165.208 53.6857 165.129 53.5618 165.081 53.4253C165.033 53.2888 165.016 53.1433 165.031 52.9994V51.42C165.018 51.1445 165.119 50.8759 165.309 50.677C165.412 50.5713 165.534 50.4876 165.67 50.4312C165.806 50.3747 165.951 50.3468 166.098 50.3491H170.048V48.0257C170.048 42.7601 172.711 40.1278 178.038 40.1288H180.639C180.919 40.1395 181.184 40.2554 181.383 40.4534C181.581 40.6514 181.697 40.9168 181.708 41.1967V42.7761C181.711 42.923 181.683 43.0687 181.626 43.2044C181.57 43.34 181.486 43.4626 181.38 43.5646C181.182 43.7555 180.913 43.8564 180.637 43.8435H178.13C177.588 43.7847 177.041 43.8551 176.532 44.049C176.023 44.2429 175.567 44.5548 175.202 44.959C174.571 45.9373 174.277 47.0957 174.366 48.2567V50.3481H184.308V41.1992C184.295 40.9242 184.396 40.6551 184.587 40.4562C184.689 40.3505 184.812 40.2669 184.948 40.2105C185.084 40.1541 185.23 40.1261 185.377 40.1283H187.509C187.789 40.1389 188.055 40.2548 188.253 40.4527C188.451 40.6507 188.568 40.9162 188.579 41.1962V73.4379C188.584 73.7352 188.465 74.0216 188.25 74.2284C188.051 74.4193 187.782 74.5202 187.506 74.5068H185.374C185.23 74.5224 185.084 74.5054 184.947 74.4572C184.811 74.409 184.686 74.3307 184.584 74.2282C184.481 74.1257 184.403 74.0015 184.355 73.8647C184.306 73.728 184.289 73.5821 184.305 73.4379V54.0673H174.362V73.4409C174.365 73.5881 174.337 73.7342 174.281 73.8702C174.224 74.0062 174.14 74.1291 174.034 74.2313C173.835 74.4228 173.566 74.5232 173.29 74.5103L171.116 74.5118ZM205.392 74.9763C203.941 75.0643 202.488 74.8539 201.122 74.3583C199.755 73.8626 198.505 73.0922 197.448 72.0945C195.522 70.008 194.459 67.2685 194.475 64.429L194.427 62.4312L194.475 60.4338C194.466 57.6007 195.547 54.8727 197.494 52.8144C202.036 48.9116 208.747 48.9116 213.289 52.8144C215.236 54.873 216.316 57.6008 216.308 60.4338C216.339 60.7738 216.354 61.4396 216.354 62.4312C216.354 63.4228 216.339 64.0887 216.308 64.429C216.322 67.2768 215.241 70.021 213.289 72.0945C212.242 73.0942 210.999 73.8662 209.638 74.3619C208.278 74.8575 206.829 75.066 205.384 74.9743L205.392 74.9763ZM205.392 71.399C206.247 71.4423 207.1 71.2985 207.894 70.9776C208.687 70.6567 209.4 70.1665 209.984 69.5411C211.227 68.0418 211.887 66.1444 211.843 64.1975C211.873 63.8886 211.888 63.3004 211.888 62.4331C211.888 61.5659 211.873 60.9776 211.843 60.6683C211.887 58.7216 211.227 56.8244 209.984 55.3252C209.4 54.6997 208.687 54.2094 207.894 53.8884C207.101 53.5674 206.247 53.4235 205.392 53.4668C204.53 53.4252 203.669 53.5697 202.867 53.8903C202.065 54.211 201.342 54.7003 200.746 55.3252C199.509 56.8243 198.867 58.7261 198.942 60.6683L198.896 62.4331L198.942 64.1975C198.867 66.1398 199.509 68.0419 200.746 69.5411C201.341 70.1646 202.063 70.653 202.864 70.9732C203.664 71.2935 204.523 71.4382 205.384 71.3975L205.392 71.399ZM227.951 74.5153C227.618 74.5371 227.289 74.4381 227.023 74.2363C226.768 73.9917 226.577 73.6888 226.465 73.3538L219.867 51.7974L219.775 51.3334C219.771 51.2042 219.794 51.0756 219.842 50.9556C219.89 50.8356 219.962 50.7268 220.054 50.636C220.245 50.4606 220.493 50.3615 220.752 50.3575H222.795C222.931 50.351 223.067 50.3723 223.195 50.4202C223.323 50.4681 223.439 50.5415 223.538 50.636C223.728 50.7576 223.875 50.9372 223.956 51.1479L229.114 68.6617L234.642 51.3334C234.708 51.0757 234.855 50.8458 235.061 50.677C235.178 50.5651 235.316 50.4782 235.468 50.4218C235.62 50.3654 235.782 50.3407 235.943 50.3491H237.523C237.685 50.3405 237.847 50.3651 237.999 50.4215C238.151 50.4779 238.289 50.5649 238.407 50.677C238.612 50.8452 238.759 51.0757 238.825 51.3334L244.353 68.6617L249.51 51.1479C249.568 50.9491 249.681 50.772 249.838 50.636C250.058 50.4489 250.339 50.3497 250.628 50.3575H252.719C252.967 50.3545 253.205 50.4559 253.375 50.636C253.56 50.82 253.661 51.0722 253.654 51.3334L253.56 51.7974L247.01 73.3538C246.899 73.6889 246.707 73.9918 246.452 74.2363C246.168 74.4438 245.819 74.5428 245.468 74.5153H243.665C243.309 74.5518 242.954 74.4523 242.669 74.2367C242.384 74.0211 242.192 73.7056 242.131 73.3538L236.742 56.7225L231.352 73.3538C231.268 73.7023 231.063 74.0099 230.774 74.2223C230.485 74.4348 230.131 74.5385 229.773 74.5153H227.951Z" fill="#51504F"/>
</svg>
