<svg width="331" height="331" viewBox="0 0 331 331" fill="none" xmlns="http://www.w3.org/2000/svg">
<path d="M57.8486 182.917C57.8307 183.159 57.7371 183.39 57.581 183.576C57.3664 183.783 57.1038 183.933 56.8168 184.013C56.4668 184.133 55.9976 184.218 55.4092 184.268C54.666 184.351 53.9183 184.388 53.1705 184.379C52.2442 184.379 51.492 184.342 50.9139 184.268C50.4364 184.238 49.9641 184.152 49.5063 184.013C49.2386 183.933 48.9976 183.782 48.809 183.576C48.7002 183.374 48.6537 183.145 48.6752 182.917L50.1136 163.585C50.1954 162.585 50.16 161.579 50.0081 160.587C49.9104 159.774 49.6449 158.989 49.2284 158.284C48.8868 157.649 48.366 157.128 47.7308 156.786C47.1235 156.421 46.3696 156.238 45.469 156.238C44.3728 156.238 43.2329 156.664 42.0492 157.517C40.8656 158.37 39.5549 159.612 38.1174 161.246L36.5066 182.917C36.4887 183.159 36.395 183.39 36.239 183.576C36.0141 183.788 35.7386 183.938 35.4387 184.013C35.0887 184.133 34.6196 184.218 34.0312 184.268C33.3007 184.35 32.566 184.387 31.8311 184.379C30.9305 184.379 30.1902 184.342 29.6104 184.268C29.133 184.238 28.6606 184.152 28.2029 184.013C27.9351 183.933 27.6941 183.782 27.5056 183.576C27.3759 183.382 27.316 183.15 27.3357 182.917L28.7741 163.585C28.856 162.585 28.8206 161.579 28.6686 160.587C28.5687 159.779 28.3163 158.998 27.925 158.284C27.5833 157.649 27.0626 157.128 26.4274 156.786C25.7368 156.403 24.9552 156.213 24.1655 156.238C23.0454 156.238 21.8926 156.664 20.7072 157.517C19.5235 158.37 18.2249 159.612 16.8114 161.246L15.198 182.917C15.1801 183.159 15.0864 183.39 14.9304 183.576C14.7056 183.788 14.43 183.938 14.1301 184.013C13.7802 184.133 13.311 184.218 12.7226 184.268C11.9794 184.351 11.2317 184.388 10.4839 184.379C9.58328 184.379 8.84306 184.342 8.26324 184.268C7.78577 184.238 7.31343 184.152 6.8557 184.013C6.58795 183.933 6.34694 183.782 6.15837 183.576C6.02873 183.382 5.96885 183.15 5.98853 182.917L8.41248 150.317C8.42384 150.092 8.50375 149.876 8.64149 149.697C8.81982 149.473 9.06079 149.307 9.33368 149.221C9.73008 149.087 10.1414 149.001 10.5585 148.966C11.0749 148.894 11.7113 148.857 12.4678 148.856C13.2466 148.856 13.8899 148.893 14.3977 148.966C14.9055 149.016 15.2889 149.101 15.5479 149.221C15.831 149.341 16.0265 149.5 16.1346 149.697C16.2427 149.869 16.2882 150.075 16.271 150.317L15.9905 154.082C17.9376 152.133 19.8374 150.671 21.6901 149.697C23.5651 148.723 25.477 148.236 27.4258 148.236C28.7656 148.236 29.9604 148.381 31.0102 148.673C32.0635 148.941 32.9839 149.343 33.7713 149.88C34.5878 150.391 35.2723 151.012 35.8247 151.743C36.3805 152.474 36.8316 153.29 37.1782 154.192C38.2297 153.146 39.247 152.245 40.23 151.488C41.2352 150.733 42.2062 150.124 43.1428 149.661C44.0381 149.198 44.9847 148.843 45.963 148.601C46.8907 148.359 47.8453 148.237 48.8038 148.236C50.9722 148.236 52.7726 148.601 54.205 149.332C56.3536 150.428 56.7576 151.061 57.563 152.329C58.3967 153.573 58.9456 155.035 59.2098 156.714C59.478 158.48 59.541 160.271 59.3977 162.051L57.8486 182.917ZM94.7147 183.028C94.7082 183.185 94.6667 183.338 94.5932 183.477C94.5198 183.616 94.4162 183.737 94.2901 183.831C94.0328 184.026 93.6331 184.16 93.091 184.232C92.3259 184.35 91.5517 184.399 90.7777 184.379C89.6815 184.379 88.8813 184.33 88.3769 184.232C87.8949 184.16 87.5518 184.026 87.3477 183.831C87.1675 183.635 87.0903 183.367 87.1161 183.028L87.3091 180.434C85.9064 181.838 84.2614 182.978 82.4534 183.797C80.6325 184.61 78.6579 185.022 76.6638 185.004C74.9329 185.004 73.3547 184.772 71.9291 184.309C70.5981 183.912 69.3655 183.24 68.3112 182.335C67.3213 181.42 66.5667 180.28 66.1111 179.011C65.6256 177.695 65.4472 176.16 65.5759 174.405C65.7166 172.502 66.2046 170.858 67.04 169.472C67.9236 168.032 69.1565 166.838 70.6245 166.001C72.1787 165.075 74.0691 164.393 76.2958 163.955C78.5225 163.516 81.0845 163.296 83.9819 163.296H87.1624L87.3091 161.323C87.3945 160.432 87.3503 159.533 87.1778 158.654C87.0719 157.939 86.7669 157.267 86.2978 156.717C85.8741 156.204 85.2685 155.826 84.4811 155.585C83.7195 155.341 82.7537 155.219 81.5837 155.219C80.0484 155.219 78.6589 155.39 77.4151 155.731C76.3034 156.035 75.2134 156.413 74.1523 156.863C73.1951 157.279 72.3871 157.656 71.7284 157.996C71.0937 158.339 70.5816 158.509 70.1922 158.508C69.932 158.509 69.6797 158.419 69.4794 158.253C69.2769 158.044 69.1208 157.795 69.0214 157.522C68.9121 157.141 68.8431 156.75 68.8155 156.354C68.779 155.842 68.7807 155.329 68.8207 154.818C68.8773 154.063 68.9828 153.466 69.1372 153.027C69.2706 152.566 69.5439 152.158 69.9194 151.859C70.2866 151.493 70.9127 151.104 71.7979 150.69C72.683 150.253 73.7115 149.851 74.8831 149.484C76.1258 149.104 77.3931 148.811 78.676 148.606C80.0727 148.361 81.4882 148.238 82.9063 148.241C85.4641 148.241 87.6256 148.496 89.3908 149.007C91.1817 149.495 92.6227 150.262 93.7137 151.311C94.8082 152.335 95.5621 153.662 95.9756 155.294C96.389 156.925 96.5134 158.862 96.3487 161.104L94.7147 183.028ZM86.7275 169.068H83.2203C81.733 169.068 80.4575 169.178 79.3939 169.397C78.3303 169.617 77.4529 169.946 76.7616 170.383C76.0719 170.822 75.5444 171.358 75.179 171.991C74.8294 172.647 74.6257 173.37 74.5821 174.112C74.4809 175.475 74.8274 176.548 75.6216 177.328C76.4416 178.107 77.6184 178.496 79.152 178.496C80.4438 178.496 81.6498 178.168 82.77 177.511C83.9159 176.852 85.0961 175.89 86.3107 174.624L86.7275 169.068ZM122.737 179.703C122.658 180.777 122.523 181.606 122.333 182.189C122.17 182.75 121.969 183.152 121.731 183.396C121.424 183.659 121.075 183.868 120.699 184.016C120.202 184.207 119.69 184.353 119.168 184.453C118.547 184.61 117.916 184.72 117.279 184.783C116.609 184.857 115.936 184.894 115.262 184.893C113.435 184.893 111.868 184.662 110.563 184.198C109.258 183.735 108.202 183.029 107.395 182.078C106.591 181.104 106.036 179.886 105.731 178.424C105.272 176.232 105.347 175.233 105.496 173.234L106.739 156.532H102.828C102.365 156.532 102.032 156.251 101.83 155.69C101.629 155.107 101.578 154.144 101.678 152.803C101.729 152.096 101.798 151.499 101.884 151.012C101.992 150.525 102.117 150.147 102.259 149.88C102.364 149.635 102.531 149.421 102.743 149.26C102.946 149.138 103.178 149.075 103.415 149.077H107.287L107.828 141.805C107.843 141.568 107.923 141.34 108.059 141.146C108.267 140.921 108.532 140.757 108.826 140.67C109.203 140.523 109.686 140.425 110.272 140.377C110.888 140.303 111.634 140.266 112.511 140.266C113.411 140.266 114.152 140.303 114.732 140.377C115.337 140.427 115.805 140.525 116.134 140.67C116.41 140.752 116.653 140.918 116.829 141.146C116.958 141.34 117.018 141.573 116.999 141.805L116.458 149.077H123.547C123.791 149.077 123.993 149.138 124.155 149.26C124.363 149.413 124.514 149.631 124.584 149.88C124.687 150.147 124.745 150.525 124.757 151.012C124.793 151.499 124.785 152.096 124.734 152.803C124.634 154.144 124.441 155.107 124.155 155.69C123.87 156.251 123.496 156.532 123.033 156.532H115.905L114.765 171.845C114.633 173.624 114.813 174.963 115.305 175.864C115.799 176.741 116.766 177.179 118.205 177.179C118.693 177.179 119.133 177.142 119.528 177.068C119.924 176.97 120.272 176.873 120.573 176.775L121.363 176.481C121.549 176.393 121.751 176.344 121.957 176.335C122.103 176.335 122.233 176.384 122.348 176.481C122.489 176.555 122.586 176.726 122.639 176.994C122.694 177.237 122.729 177.579 122.744 178.018C122.792 178.459 122.79 179.02 122.737 179.703ZM163.288 166.142C163.071 169.042 162.56 171.661 161.754 174.001C160.972 176.315 159.924 178.289 158.61 179.922C157.338 181.522 155.717 182.81 153.87 183.686C152.026 184.563 149.959 185.001 147.668 185.001C146.72 185.001 145.85 184.904 145.059 184.708C144.281 184.533 143.528 184.263 142.815 183.905C142.079 183.493 141.38 183.016 140.728 182.48C139.981 181.867 139.273 181.207 138.608 180.506L137.466 195.855C137.448 196.097 137.354 196.328 137.198 196.514C136.98 196.744 136.702 196.909 136.395 196.99C136.042 197.136 135.571 197.245 134.983 197.319C134.1 197.43 133.647 197.43 132.744 197.43C131.843 197.43 131.103 197.393 130.523 197.319C130.043 197.275 129.572 197.165 129.123 196.99C128.847 196.908 128.604 196.742 128.429 196.514C128.299 196.32 128.239 196.088 128.259 195.855L131.645 150.317C131.656 150.092 131.736 149.876 131.874 149.697C132.043 149.479 132.271 149.314 132.53 149.221C132.927 149.087 133.338 149.001 133.755 148.966C134.271 148.894 134.908 148.857 135.664 148.856C136.395 148.856 137.002 148.893 137.484 148.966C137.991 149.016 138.387 149.101 138.67 149.221C138.979 149.341 139.186 149.5 139.293 149.697C139.401 149.869 139.446 150.075 139.429 150.317L139.143 154.154C140.166 153.179 141.155 152.327 142.11 151.596C143.031 150.881 144.02 150.257 145.062 149.733C146.013 149.231 147.024 148.851 148.07 148.601C149.113 148.357 150.206 148.236 151.351 148.236C153.739 148.236 155.738 148.711 157.349 149.661C158.961 150.587 160.231 151.866 161.157 153.498C162.107 155.129 162.746 157.03 163.071 159.2C163.399 161.368 163.471 163.682 163.288 166.142ZM153.664 166.801C153.767 165.412 153.756 164.084 153.63 162.818C153.557 161.636 153.284 160.474 152.825 159.383C152.456 158.441 151.834 157.619 151.029 157.008C150.269 156.399 149.281 156.094 148.065 156.094C147.456 156.094 146.839 156.192 146.215 156.387C145.618 156.559 144.987 156.851 144.323 157.265C143.683 157.678 143.01 158.214 142.303 158.873C141.496 159.64 140.74 160.458 140.039 161.323L139.241 172.068C140.411 173.7 141.548 174.967 142.651 175.869C143.755 176.746 144.941 177.184 146.207 177.184C147.401 177.184 148.434 176.879 149.308 176.27C150.206 175.661 150.959 174.87 151.567 173.895C152.177 172.897 152.651 171.776 152.987 170.532C153.346 169.287 153.571 168.043 153.664 166.801ZM178.634 182.917C178.616 183.159 178.523 183.39 178.367 183.576C178.142 183.788 177.866 183.938 177.566 184.013C177.216 184.133 176.747 184.218 176.159 184.268C175.57 184.342 174.824 184.379 173.92 184.379C172.564 184.379 172.278 184.343 171.699 184.268C171.222 184.238 170.75 184.152 170.292 184.013C170.024 183.933 169.783 183.782 169.595 183.576C169.465 183.382 169.405 183.15 169.425 182.917L172.999 134.86C173.017 134.618 173.11 134.387 173.266 134.201C173.474 133.976 173.739 133.812 174.033 133.725C174.411 133.579 174.894 133.47 175.482 133.396C176.365 133.285 176.817 133.285 177.721 133.285C178.621 133.285 179.361 133.322 179.941 133.396C180.811 133.507 180.976 133.579 181.305 133.725C181.662 133.845 181.906 134.004 182.038 134.201C182.237 134.497 182.226 134.616 182.208 134.86L178.634 182.917ZM247.58 179.703C247.501 180.777 247.367 181.606 247.176 182.189C247.013 182.75 246.813 183.152 246.574 183.396C246.267 183.659 245.919 183.868 245.542 184.016C245.046 184.207 244.533 184.353 244.011 184.453C243.391 184.61 242.759 184.72 242.122 184.783C241.453 184.857 240.779 184.894 240.105 184.893C238.278 184.893 236.712 184.662 235.406 184.198C234.101 183.735 233.045 183.029 232.239 182.078C231.434 181.104 230.879 179.886 230.574 178.424C230.116 176.232 230.191 175.233 230.34 173.234L231.583 156.532H227.671C227.208 156.532 226.875 156.251 226.673 155.69C226.472 155.107 226.422 154.144 226.521 152.803C226.573 152.094 226.641 151.497 226.727 151.012C226.835 150.525 226.96 150.147 227.103 149.88C227.208 149.635 227.374 149.421 227.587 149.26C227.789 149.138 228.022 149.075 228.258 149.077H232.131L232.671 141.805C232.686 141.568 232.766 141.34 232.903 141.146C233.111 140.921 233.376 140.757 233.67 140.67C234.047 140.523 234.529 140.425 235.116 140.377C235.732 140.305 236.478 140.268 237.354 140.266C238.255 140.266 238.995 140.303 239.575 140.377C240.181 140.425 240.648 140.523 240.977 140.67C241.253 140.752 241.497 140.918 241.672 141.146C241.802 141.34 241.862 141.573 241.842 141.805L241.302 149.077H248.391C248.634 149.077 248.837 149.138 248.998 149.26C249.206 149.413 249.358 149.631 249.428 149.88C249.531 150.147 249.588 150.525 249.6 151.012C249.636 151.497 249.628 152.094 249.577 152.803C249.476 154.144 249.283 155.107 248.998 155.69C248.713 156.251 248.339 156.532 247.876 156.532H240.748L239.608 171.845C239.476 173.624 239.656 174.963 240.149 175.864C240.643 176.741 241.61 177.179 243.049 177.179C243.536 177.179 243.977 177.142 244.371 177.068C244.769 176.97 245.118 176.873 245.416 176.775L246.206 176.481C246.392 176.393 246.595 176.344 246.801 176.335C246.946 176.335 247.077 176.384 247.192 176.481C247.332 176.555 247.429 176.726 247.482 176.994C247.537 177.237 247.572 177.579 247.588 178.018C247.633 178.459 247.63 179.02 247.58 179.703ZM263.274 182.917C263.256 183.159 263.163 183.39 263.006 183.576C262.782 183.788 262.506 183.938 262.206 184.013C261.856 184.133 261.387 184.218 260.799 184.268C260.055 184.351 259.308 184.388 258.56 184.379C257.659 184.379 256.919 184.342 256.339 184.268C255.862 184.238 255.39 184.152 254.932 184.013C254.664 183.933 254.423 183.782 254.234 183.576C254.105 183.382 254.045 183.15 254.065 182.917L257.639 134.86C257.656 134.616 257.745 134.397 257.906 134.201C258.148 133.908 258.323 133.849 258.673 133.725C259.051 133.579 259.534 133.47 260.122 133.396C260.712 133.324 261.458 133.287 262.361 133.285C263.714 133.283 264.002 133.321 264.581 133.396C265.161 133.468 265.616 133.578 265.945 133.725C266.302 133.845 266.546 134.004 266.678 134.201C266.808 134.395 266.868 134.628 266.848 134.86L263.274 182.917ZM281.693 182.917C281.675 183.159 281.581 183.39 281.425 183.576C281.201 183.788 280.925 183.938 280.625 184.013C280.275 184.133 279.806 184.218 279.218 184.268C278.474 184.351 277.727 184.388 276.979 184.379C276.078 184.379 275.338 184.342 274.758 184.268C274.281 184.238 273.808 184.152 273.351 184.013C273.083 183.933 272.842 183.782 272.653 183.576C272.524 183.382 272.464 183.15 272.484 182.917L274.902 150.392C274.914 150.16 275.008 149.94 275.167 149.772C275.375 149.547 275.64 149.382 275.934 149.296C276.312 149.15 276.794 149.04 277.383 148.966C277.971 148.893 278.718 148.856 279.622 148.856C280.522 148.856 281.262 148.893 281.842 148.966C282.422 149.04 282.877 149.15 283.206 149.296C283.563 149.416 283.807 149.574 283.939 149.772C284.074 149.949 284.135 150.171 284.112 150.392L281.693 182.917ZM285.633 139.281C285.495 141.134 285.023 142.412 284.215 143.117C283.003 144.175 281.979 144.178 279.933 144.178C277.862 144.178 276.487 143.836 275.806 143.153C275.149 142.471 274.887 141.241 275.021 139.464C275.158 137.611 275.619 136.332 276.402 135.627C277.212 134.896 278.652 134.531 280.723 134.531C282.769 134.531 284.132 134.884 284.809 135.591C285.49 136.274 285.765 137.504 285.633 139.281ZM324.966 166.181C324.75 169.08 324.24 171.687 323.435 174.001C322.228 177.472 321.57 178.288 320.255 179.922C318.94 181.556 317.373 182.809 315.554 183.686C313.759 184.563 311.753 185.001 309.535 185.001C308.51 185.009 307.488 184.898 306.488 184.672C305.555 184.475 304.657 184.143 303.82 183.686C302.951 183.189 302.138 182.601 301.393 181.932C300.541 181.14 299.75 180.285 299.026 179.374L298.764 182.92C298.749 183.174 298.654 183.417 298.493 183.614C298.307 183.819 298.069 183.971 297.804 184.052C297.502 184.172 297.094 184.257 296.579 184.307C296.064 184.356 295.442 184.38 294.711 184.379C293.956 184.379 293.325 184.355 292.817 184.307C292.412 184.274 292.013 184.188 291.631 184.052C291.396 183.966 291.191 183.814 291.041 183.614C290.929 183.401 290.884 183.159 290.91 182.92L294.484 134.863C294.502 134.62 294.596 134.39 294.752 134.204C294.96 133.979 295.225 133.814 295.519 133.728C295.896 133.582 296.379 133.472 296.967 133.399C297.558 133.326 298.304 133.29 299.206 133.288C300.107 133.288 300.847 133.325 301.427 133.399C302.007 133.472 302.461 133.582 302.791 133.728C303.147 133.848 303.392 134.007 303.524 134.204C303.654 134.398 303.713 134.63 303.694 134.863L302.353 152.88C303.243 152.052 304.124 151.345 304.996 150.76C306.303 149.882 306.73 149.7 307.587 149.334C308.445 148.945 309.318 148.664 310.206 148.493C311.129 148.323 312.065 148.238 313.004 148.238C315.415 148.238 317.426 148.725 319.035 149.7C320.627 150.627 321.942 151.964 322.841 153.572C323.791 155.205 324.429 157.118 324.753 159.311C325.074 161.477 325.145 163.767 324.966 166.181ZM315.379 166.837C315.482 165.448 315.471 164.108 315.348 162.818C315.274 161.636 315.002 160.474 314.542 159.383C314.151 158.443 313.518 157.623 312.708 157.008C311.949 156.399 310.948 156.094 309.705 156.094C309.096 156.094 308.493 156.179 307.896 156.349C307.299 156.52 306.668 156.813 306.004 157.226C305.365 157.64 304.691 158.176 303.985 158.835C303.165 159.588 302.407 160.408 301.72 161.284L300.915 172.102C302.081 173.759 303.218 175.026 304.324 175.903C305.455 176.755 306.666 177.181 307.958 177.181C309.151 177.181 310.185 176.877 311.058 176.268C311.931 175.659 312.672 174.867 313.281 173.893C313.914 172.917 314.399 171.809 314.735 170.568C315.068 169.348 315.284 168.099 315.379 166.837Z" fill="#11557C"/>
<path d="M229.08 180.78C237.308 167.466 233.186 150.003 219.872 141.775C206.559 133.547 189.096 137.67 180.867 150.983C172.639 164.297 176.762 181.76 190.076 189.988C203.389 198.216 220.852 194.094 229.08 180.78Z" fill="white"/>
<path opacity="0.9" d="M204.94 165.839H231.153M204.94 165.839L223.472 147.307M204.94 165.839V139.629M204.94 165.839L186.407 147.307M204.94 165.839H178.729M204.94 165.839L186.407 184.372M204.94 165.839V192.055M204.94 165.839L223.472 184.372" stroke="#858585" stroke-width="0.412838" stroke-miterlimit="7.976" stroke-linecap="round" stroke-linejoin="round" stroke-dasharray="0.2 0.39"/>
<path opacity="0.9" d="M207.865 165.842L207.778 165.14L207.523 164.478L207.119 163.899L206.581 163.436L205.948 163.109L205.256 162.947L204.548 162.958L203.859 163.143L203.239 163.488L202.719 163.969L202.333 164.566L202.101 165.235L202.042 165.945L202.155 166.65L202.431 167.304L202.858 167.872L203.411 168.323L204.054 168.619L204.754 168.755L205.462 168.716L206.138 168.51L206.746 168.143L207.248 167.641L207.616 167.033L207.821 166.357L207.865 165.842Z" stroke="#818181" stroke-width="0.412838" stroke-miterlimit="199.409" stroke-linecap="square" stroke-linejoin="round" stroke-dasharray="0.2 0.39"/>
<path opacity="0.9" d="M213.684 165.825L213.599 164.608L213.341 163.417L212.927 162.269L212.353 161.193L211.638 160.208L210.794 159.333L209.837 158.579L208.782 157.967L207.65 157.511L206.466 157.22L205.251 157.092L204.034 157.133L202.833 157.344L201.675 157.722L200.581 158.26L199.57 158.942L198.664 159.758L197.879 160.694L197.236 161.729L196.739 162.843L196.405 164.014L196.235 165.221V166.438L196.402 167.644L196.737 168.813L197.236 169.929L197.879 170.961L198.664 171.898L199.57 172.716L200.581 173.398L201.675 173.933L202.833 174.312L204.034 174.523L205.251 174.566L206.463 174.438L207.647 174.144L208.779 173.689L209.834 173.079L210.794 172.325L211.638 171.45L212.353 170.465L212.927 169.387L213.344 168.239L213.599 167.05L213.684 165.825Z" stroke="#818181" stroke-width="0.412838" stroke-miterlimit="199.409" stroke-linecap="square" stroke-linejoin="round" stroke-dasharray="0.2 0.39"/>
<path opacity="0.9" d="M219.507 165.838L219.427 164.32L219.188 162.812L218.794 161.34L218.246 159.918L217.554 158.559L216.726 157.283L215.768 156.099L214.693 155.018L213.506 154.061L212.228 153.232L210.872 152.54L209.446 151.995L207.974 151.598L206.471 151.362L204.948 151.279L203.43 151.362L201.925 151.598L200.453 151.995L199.027 152.54L197.668 153.235L196.392 154.061L195.209 155.021L194.128 156.096L193.173 157.28L192.345 158.559L191.65 159.918L191.104 161.34L190.711 162.812L190.471 164.318L190.389 165.838L190.471 167.359L190.711 168.864L191.104 170.336L191.652 171.759L192.345 173.118L193.173 174.397L194.13 175.581L195.206 176.659L196.392 177.616L197.668 178.445L199.027 179.139L200.453 179.685L201.925 180.078L203.427 180.318L204.948 180.398L206.471 180.318L207.974 180.078L209.446 179.685L210.872 179.137L212.228 178.442L213.506 177.618L214.69 176.659L215.771 175.581L216.726 174.397L217.554 173.118L218.249 171.759L218.794 170.336L219.188 168.864L219.427 167.359L219.507 165.838Z" stroke="#818181" stroke-width="0.412838" stroke-miterlimit="199.409" stroke-linecap="square" stroke-linejoin="round" stroke-dasharray="0.2 0.39"/>
<path opacity="0.9" d="M225.339 165.835L225.226 163.701L224.891 161.597L224.338 159.535L223.574 157.544L222.604 155.645L221.441 153.851L220.1 152.197L218.59 150.686L216.932 149.343L215.142 148.18L213.243 147.212L211.251 146.448L209.187 145.895L207.082 145.56L204.949 145.447L202.819 145.56L200.711 145.895L198.653 146.448L196.658 147.212L194.759 148.18L192.968 149.343L191.311 150.686L189.801 152.197L188.458 153.851L187.294 155.645L186.327 157.544L185.563 159.535L185.012 161.597L184.678 163.701L184.562 165.837L184.675 167.968L185.009 170.073L185.563 172.134L186.327 174.128L187.294 176.027L188.458 177.818L189.801 179.475L191.311 180.983L192.968 182.326L194.759 183.489L196.658 184.459L198.65 185.221L200.711 185.774L202.819 186.109L204.949 186.225L207.085 186.109L209.187 185.774L211.251 185.221L213.243 184.459L215.142 183.489L216.932 182.326L218.59 180.983L220.1 179.475L221.441 177.818L222.604 176.027L223.574 174.128L224.338 172.134L224.889 170.075L225.223 167.965L225.339 165.835Z" stroke="#818181" stroke-width="0.412838" stroke-miterlimit="199.409" stroke-linecap="square" stroke-linejoin="round" stroke-dasharray="0.2 0.39"/>
<path d="M204.953 192.461C201.459 192.471 197.997 191.787 194.768 190.45C191.539 189.112 188.608 187.148 186.143 184.67C183.665 182.205 181.701 179.274 180.363 176.045C179.026 172.816 178.342 169.354 178.352 165.86C178.342 162.365 179.026 158.903 180.363 155.674C181.701 152.445 183.665 149.514 186.143 147.05C188.608 144.572 191.539 142.607 194.768 141.27C197.997 139.932 201.459 139.248 204.953 139.258C212.058 139.258 218.74 142.024 223.763 147.05C226.241 149.514 228.206 152.445 229.543 155.674C230.881 158.903 231.564 162.365 231.555 165.86C231.555 172.964 228.789 179.647 223.763 184.67C221.299 187.148 218.368 189.112 215.139 190.45C211.91 191.787 208.448 192.471 204.953 192.461ZM204.953 140.04C198.057 140.04 191.573 142.727 186.697 147.603C184.292 149.995 182.385 152.84 181.087 155.974C179.789 159.108 179.125 162.468 179.134 165.86C179.134 172.756 181.82 179.24 186.697 184.116C191.573 188.993 198.057 191.679 204.953 191.679C211.849 191.679 218.334 188.993 223.21 184.116C228.086 179.24 230.773 172.756 230.773 165.86C230.773 158.963 228.086 152.479 223.21 147.603C220.818 145.198 217.973 143.291 214.839 141.993C211.705 140.695 208.345 140.031 204.953 140.04Z" fill="#11557C"/>
<path opacity="0.6" d="M204.944 165.885L205 165.867L205.057 165.849L205.114 165.831L205.17 165.813L205.227 165.795L205.284 165.777L205.34 165.759L205.397 165.741L205.453 165.722L205.51 165.704L205.567 165.686L205.623 165.668L205.68 165.65L205.736 165.632L205.793 165.614L205.85 165.596L205.906 165.578L205.963 165.56L206.019 165.542L206.076 165.524L206.133 165.506L206.189 165.488L206.246 165.47L206.302 165.452L206.359 165.434L206.416 165.416L206.472 165.398L206.529 165.38L206.586 165.362L206.642 165.344L206.699 165.326L206.755 165.308L206.812 165.29L206.869 165.272L206.925 165.254L206.982 165.236L207.038 165.218L207.095 165.2L207.152 165.182L207.208 165.164L207.265 165.146L207.321 165.128L207.378 165.11L207.435 165.092L207.491 165.074L207.548 165.056L207.605 165.038L207.661 165.02L207.718 165.002L207.774 164.984L207.831 164.966L207.888 164.948L207.944 164.93L208.001 164.912L208.057 164.894L208.114 164.876L208.171 164.858L208.227 164.84L208.284 164.822L208.34 164.804L208.397 164.786L208.454 164.768L208.51 164.75L208.567 164.732L208.624 164.714L208.68 164.696L208.737 164.678L208.793 164.66L208.85 164.642L208.907 164.624L208.963 164.606L209.02 164.588L209.076 164.57L209.133 164.552L209.19 164.534L209.246 164.516L209.303 164.498L209.264 164.482L209.321 164.464L209.377 164.446L209.434 164.428L209.491 164.41L209.547 164.392L209.604 164.374L209.661 164.356L209.717 164.338L209.774 164.32L209.83 164.302L209.887 164.284L209.944 164.266L210 164.248L210.057 164.23L210.113 164.212L210.17 164.194L210.227 164.176L210.283 164.158L210.34 164.14L210.396 164.122L210.453 164.104L210.51 164.086L210.515 164.104L210.52 164.122L210.525 164.14L210.53 164.158L210.535 164.176L210.541 164.194L210.546 164.212L210.551 164.23L210.556 164.248L210.561 164.266L210.566 164.284L210.571 164.302L210.577 164.32L210.582 164.338L210.587 164.356L210.592 164.374L210.597 164.392L210.602 164.41L210.607 164.428L210.613 164.446L210.618 164.464L210.623 164.482L210.628 164.5L210.633 164.518L210.638 164.536L210.643 164.554L210.649 164.572L210.654 164.59L210.659 164.608L210.664 164.626L210.669 164.644L210.674 164.662L210.677 164.68L210.679 164.698L210.682 164.716L210.685 164.734L210.687 164.752L210.69 164.77L210.692 164.788L210.695 164.806L210.698 164.824L210.7 164.842L210.703 164.86L210.705 164.878L210.708 164.896L210.71 164.915L210.713 164.933L210.716 164.951L210.718 164.969L210.721 164.987L210.723 165.005L210.726 165.023L210.728 165.041L210.731 165.059L210.734 165.077L210.736 165.095L210.739 165.113L210.741 165.131L210.744 165.149L210.746 165.167L210.749 165.185L210.752 165.203L210.754 165.221L210.757 165.239L210.759 165.257L210.762 165.275L210.764 165.293L210.767 165.311L210.77 165.329L210.772 165.347L210.775 165.365L210.777 165.383L210.78 165.401L210.782 165.419L210.785 165.437L210.788 165.455L210.79 165.473L210.793 165.491V165.887H204.993L204.944 165.885Z" fill="#004CFF"/>
<path opacity="0.6" d="M204.944 165.841L205.006 165.676L205.067 165.512L205.129 165.347L205.191 165.182L205.253 165.018L205.314 164.853L205.376 164.688L205.438 164.524L205.5 164.359L205.561 164.194L205.623 164.029L205.685 163.865L205.747 163.7L205.808 163.535L205.87 163.371L205.932 163.206L205.994 163.041L206.055 162.877L206.117 162.712L206.179 162.547L206.241 162.383L206.302 162.218L206.364 162.053L206.426 161.889L206.488 161.724L206.55 161.559L206.611 161.395L206.673 161.23L206.735 161.065L206.797 160.9L206.858 160.736L206.92 160.571L206.982 160.406L207.044 160.242L207.105 160.077L207.167 159.912L207.229 159.748L207.291 159.583L207.352 159.418L207.414 159.254L207.476 159.089L207.538 158.924L207.599 158.76L207.661 158.595L207.723 158.43L207.785 158.266L207.846 158.101L207.908 157.936L207.97 157.771L208.032 157.607L208.093 157.442L208.155 157.277L208.217 157.113L208.279 156.948L208.34 156.783L208.402 156.619L208.464 156.454L208.526 156.289L208.587 156.125L208.649 155.96L208.711 155.795L208.75 155.697L208.811 155.533L208.873 155.368L208.935 155.203L208.997 155.039L209.058 154.874L209.12 154.709L209.182 154.545L209.244 154.38L209.305 154.215L209.367 154.051L209.429 153.886L209.491 153.721L209.552 153.557L209.614 153.392L209.676 153.227L209.738 153.063L209.799 152.898L209.861 152.733L209.923 152.568L209.985 152.404L210.046 152.239L210.108 152.074L210.17 151.91L210.232 151.745L210.294 151.58L210.355 151.416L210.417 151.251L210.479 151.086L210.541 150.922L210.602 150.757L210.664 150.592L210.726 150.428L210.788 150.263L210.849 150.098L210.911 149.933L210.973 149.769L211.035 149.604L211.096 149.439L211.148 149.46L211.199 149.481L211.251 149.501L211.302 149.522L211.354 149.542L211.405 149.563L211.457 149.584L211.508 149.604L211.56 149.625L211.611 149.645L211.662 149.666L211.714 149.686L211.765 149.707L211.817 149.728L211.868 149.748L211.92 149.769L211.971 149.792L212.023 149.815L212.074 149.838L212.123 149.861L212.172 149.885L212.221 149.908L212.27 149.931L212.319 149.954L212.368 149.977L212.416 150L212.465 150.024L212.514 150.047L212.563 150.07L212.612 150.093L212.661 150.116L212.71 150.139L212.759 150.163L212.808 150.188L212.856 150.214L212.905 150.24L212.954 150.265L213.003 150.291L213.052 150.317L213.101 150.343L213.15 150.368L213.199 150.394L213.248 150.42L213.296 150.446L213.345 150.471L213.394 150.497L213.443 150.523L213.492 150.548L213.541 150.574L213.59 150.6L213.639 150.628L213.688 150.657L213.734 150.685L213.78 150.713L213.827 150.741L213.873 150.77L213.919 150.798L213.965 150.826L214.012 150.855L214.058 150.883L214.104 150.911L214.151 150.94L214.197 150.968L214.243 150.996L214.29 151.025L214.336 151.053L214.382 151.081L214.429 151.112L214.475 151.143L214.521 151.174L214.568 151.205L214.614 151.236L214.66 151.266L214.707 151.297L214.753 151.328L214.799 151.359L214.845 151.39L214.892 151.421L214.938 151.452L214.984 151.483L215.028 151.513L215.072 151.544L215.116 151.575L215.159 151.606L215.203 151.637L215.247 151.67L215.291 151.704L215.334 151.737L215.378 151.771L215.422 151.804L215.466 151.838L215.509 151.871L215.553 151.905L215.597 151.938L215.641 151.971L215.684 152.005L215.728 152.038L215.772 152.072L215.816 152.105L215.859 152.139L215.751 152.275L215.643 152.411L215.535 152.548L215.427 152.684L215.319 152.821L215.211 152.957L215.103 153.093L214.995 153.23L214.887 153.366L214.779 153.503L214.671 153.639L214.562 153.775L214.454 153.912L214.346 154.048L214.238 154.184L214.13 154.321L214.022 154.457L213.914 154.594L213.806 154.73L213.698 154.866L213.59 155.003L213.482 155.139L213.374 155.275L213.266 155.412L213.157 155.548L213.049 155.685L212.941 155.821L212.833 155.957L212.725 156.094L212.617 156.23L212.509 156.366L212.352 156.552L212.244 156.688L212.136 156.825L212.028 156.961L211.92 157.097L211.812 157.234L211.704 157.37L211.596 157.506L211.487 157.643L211.379 157.779L211.271 157.916L211.163 158.052L211.055 158.188L210.947 158.325L210.839 158.461L210.731 158.597L210.623 158.734L210.515 158.87L210.407 159.007L210.299 159.143L210.191 159.279L210.083 159.416L209.974 159.552L209.866 159.688L209.758 159.825L209.65 159.961L209.542 160.098L209.434 160.234L209.326 160.37L209.218 160.507L209.11 160.643L209.002 160.78L208.894 160.916L208.786 161.052L208.678 161.189L208.569 161.325L208.461 161.461L208.353 161.598L208.212 161.744L208.104 161.881L207.996 162.017L207.888 162.154L207.779 162.29L207.671 162.426L207.563 162.563L207.455 162.699L207.347 162.835L207.239 162.972L207.131 163.108L207.023 163.245L206.915 163.381L206.807 163.517L206.699 163.654L206.591 163.79L206.483 163.927L206.375 164.063L206.266 164.199L206.158 164.336L206.05 164.472L205.942 164.608L205.834 164.745L205.726 164.881L205.618 165.018L205.51 165.154L205.379 165.295L205.271 165.432L205.163 165.568L205.054 165.705L204.944 165.841Z" fill="#CEFF29"/>
<path opacity="0.6" d="M204.945 165.842L204.796 165.662L204.647 165.482L204.498 165.302L204.348 165.122L204.199 164.942L204.05 164.761L203.901 164.581L203.751 164.401L203.602 164.221L203.453 164.041L203.304 163.861L203.154 163.681L203.005 163.501L202.856 163.32L202.707 163.14L202.557 162.96L202.408 162.78L202.259 162.6L202.11 162.42L201.961 162.24L201.811 162.06L201.662 161.879L201.513 161.699L201.364 161.519L201.214 161.339L201.065 161.159L200.916 160.979L200.767 160.799L200.617 160.619L200.468 160.438L200.319 160.258L200.17 160.078L200.02 159.898L199.871 159.718L199.722 159.538L199.573 159.358L199.423 159.178L199.274 158.997L199.125 158.817L198.973 158.689L198.824 158.509L198.675 158.328L198.525 158.148L198.376 157.968L198.227 157.788L198.078 157.608L197.928 157.428L197.779 157.248L197.63 157.068L197.481 156.887L197.331 156.707L197.182 156.527L197.033 156.347L196.884 156.167L196.734 155.987L196.585 155.807L196.436 155.627L196.287 155.446L196.137 155.266L195.988 155.086L195.839 154.906L195.69 154.726L195.54 154.546L195.391 154.366L195.242 154.186L195.093 154.005L194.943 153.825L194.794 153.645L194.645 153.465L194.496 153.285L194.346 153.105L194.197 152.925L194.048 152.745L193.899 152.565L193.749 152.384L193.6 152.204L193.451 152.024L193.302 151.844L193.152 151.664L193.003 151.484L192.854 151.304L192.705 151.124L192.555 150.943L192.406 150.763L192.257 150.583L192.108 150.403L191.959 150.223L191.809 150.043L191.66 149.863L191.511 149.683L191.362 149.502L191.212 149.322L191.063 149.142L190.914 148.962L190.765 148.782L190.615 148.602L190.466 148.422L190.317 148.242L190.168 148.061L190.018 147.881L190.103 147.812L190.188 147.742L190.273 147.673L190.358 147.603L190.443 147.534L190.528 147.467L190.615 147.4L190.703 147.333L190.79 147.266L190.878 147.199L190.965 147.132L191.053 147.066L191.14 147.001L191.228 146.937L191.318 146.873L191.408 146.808L191.498 146.744L191.588 146.68L191.678 146.618L191.768 146.556L191.858 146.494L191.948 146.433L192.038 146.371L192.131 146.309L192.224 146.25L192.316 146.191L192.409 146.132L192.501 146.072L192.594 146.013L192.687 145.954L192.779 145.897L192.872 145.841L192.967 145.784L193.062 145.728L193.158 145.671L193.253 145.614L193.348 145.56L193.443 145.506L193.538 145.452L193.634 145.398L193.729 145.344L193.824 145.293L193.922 145.241L194.02 145.19L194.117 145.138L194.215 145.087L194.313 145.035L194.411 144.986L194.509 144.938L194.606 144.889L194.704 144.84L194.802 144.791L194.9 144.745L195 144.698L195.1 144.652L195.201 144.606L195.301 144.559L195.401 144.513L195.502 144.469L195.602 144.425L195.702 144.382L195.803 144.338L195.903 144.294L196.004 144.253L196.104 144.212L196.207 144.171L196.31 144.13L196.413 144.088L196.516 144.047L196.619 144.009L196.721 143.97L196.824 143.931L196.927 143.893L197.03 143.854L197.133 143.818L197.236 143.782L197.339 143.746L197.442 143.71L197.545 143.674L197.648 143.641L197.753 143.607L197.859 143.574L197.964 143.54L198.07 143.507L198.175 143.473L198.281 143.443L198.386 143.412L198.492 143.381L198.597 143.35L198.703 143.319L198.808 143.291L198.914 143.262L199.019 143.234L199.125 143.206L199.23 143.177L199.336 143.152L199.441 143.126L199.547 143.1L199.655 143.075L199.763 143.049L199.814 143.275L199.866 143.502L199.917 143.728L199.969 143.955L200.02 144.181L200.072 144.407L200.123 144.634L200.175 144.86L200.226 145.087L200.278 145.313L200.329 145.54L200.381 145.766L200.432 145.993L200.483 146.219L200.535 146.445L200.586 146.672L200.638 146.898L200.689 147.125L200.741 147.351L200.792 147.578L200.844 147.804L200.895 148.031L200.947 148.257L200.998 148.483L201.05 148.71L201.101 148.936L201.153 149.163L201.204 149.389L201.255 149.616L201.307 149.842L201.358 150.069L201.41 150.295L201.461 150.521L201.513 150.748L201.564 150.974L201.616 151.201L201.667 151.427L201.719 151.654L201.77 151.88L201.822 152.106L201.873 152.333L201.924 152.559L201.976 152.786L202.027 153.012L202.079 153.239L202.13 153.465L202.182 153.692L202.233 153.918L202.285 154.144L202.336 154.371L202.388 154.597L202.439 154.824L202.491 155.05L202.542 155.277L202.593 155.503L202.645 155.73L202.696 155.956L202.748 156.182L202.799 156.409L202.851 156.635L202.902 156.862L202.954 157.088L203.005 157.315L203.057 157.541L203.108 157.767L203.16 157.994L203.211 158.22L203.263 158.447L203.314 158.673L203.365 158.9L203.417 159.126L203.468 159.353L203.52 159.579L203.571 159.805L203.623 160.032L203.674 160.258L203.726 160.485L203.777 160.711L203.829 160.938L203.88 161.164L203.932 161.391L203.983 161.617L204.034 161.843L204.086 162.07L204.137 162.296L204.189 162.523L204.24 162.749L204.292 162.976L204.343 163.202L204.395 163.429L204.446 163.655L204.498 163.881L204.549 164.108L204.601 164.334L204.652 164.561L204.704 164.787L204.755 165.014L204.806 165.24L204.858 165.466L204.945 165.842Z" fill="#FF6800"/>
<path opacity="0.6" d="M204.95 165.85L204.749 165.886L204.549 165.922L204.348 165.958L204.147 165.994L203.947 166.03L203.746 166.066L203.545 166.102L203.344 166.138L203.144 166.174L202.943 166.21L202.742 166.246L202.542 166.282L202.341 166.318L202.14 166.354L201.939 166.39L201.739 166.426L201.538 166.462L201.337 166.498L201.137 166.534L200.936 166.57L200.735 166.606L200.535 166.642L200.334 166.678L200.133 166.715L199.932 166.751L199.732 166.787L199.531 166.823L199.33 166.859L199.13 166.895L198.929 166.931L198.728 166.967L198.527 167.003L198.327 167.039L198.126 167.075L197.925 167.111L197.725 167.147L197.524 167.183L197.323 167.219L197.122 167.255L196.922 167.291L196.721 167.327L196.52 167.363L196.32 167.399L196.119 167.435L195.918 167.471L195.718 167.507L195.517 167.543L195.316 167.579L195.115 167.615L194.92 167.672L194.719 167.708L194.518 167.744L194.318 167.78L194.117 167.816L193.916 167.852L193.716 167.888L193.515 167.924L193.317 167.963L193.116 167.999L192.915 168.035L192.715 168.071L192.514 168.107L192.313 168.143L192.112 168.179L191.912 168.215L191.711 168.251L191.51 168.287L191.31 168.323L191.109 168.359L190.908 168.395L190.708 168.431L190.507 168.467L190.306 168.503L190.105 168.539L189.905 168.575L189.704 168.611L189.503 168.647L189.303 168.683L189.102 168.719L188.901 168.755L188.7 168.791L188.5 168.827L188.299 168.863L188.098 168.899L187.898 168.935L187.697 168.971L187.496 169.007L187.295 169.043L187.095 169.079L186.894 169.115L186.693 169.151L186.493 169.187L186.292 169.223L186.091 169.259L185.891 169.295L185.69 169.331L185.489 169.367L185.288 169.403L185.088 169.44L184.887 169.476L184.864 169.349L184.843 169.223L184.825 169.113L184.805 168.987L184.787 168.861L184.769 168.734L184.751 168.608L184.733 168.482L184.717 168.356L184.702 168.23L184.686 168.104L184.673 167.978L184.661 167.849L184.648 167.721L184.637 167.592L184.627 167.463L184.617 167.335L184.609 167.206L184.601 167.077L184.594 166.949L184.586 166.82L184.581 166.691L184.576 166.563L184.57 166.434L184.568 166.308L184.565 166.179L184.563 166.051V165.665L184.565 165.536L184.568 165.407L184.57 165.279L184.576 165.15L184.581 165.021L184.586 164.893L184.591 164.764L184.599 164.635L184.606 164.507L184.614 164.378L184.624 164.249L184.635 164.121L184.645 163.992L184.658 163.863L184.671 163.735L184.684 163.609L184.699 163.483L184.715 163.356L184.73 163.23L184.748 163.104L184.766 162.978L184.784 162.852L184.802 162.726L184.823 162.6L184.843 162.474L184.864 162.348L184.887 162.222L184.91 162.096L184.933 161.97L184.959 161.843L184.985 161.717L185.01 161.591L185.039 161.465L185.067 161.339L185.095 161.213L185.124 161.09L185.155 160.966L185.185 160.842L185.216 160.719L185.25 160.595L185.283 160.472L185.317 160.348L185.353 160.225L185.389 160.101L185.425 159.978L185.461 159.854L185.499 159.731L185.538 159.61L185.577 159.489L185.618 159.368L185.659 159.247L185.7 159.126L185.744 159.005L185.788 158.884L185.831 158.763L185.875 158.642L185.921 158.521L185.968 158.403L186.014 158.285L186.063 158.166L186.112 158.058L186.161 157.94L186.21 157.822L186.261 157.703L186.313 157.585L186.364 157.469L186.418 157.353L186.472 157.237L186.526 157.122L186.58 157.006L186.763 157.093L186.946 157.181L187.128 157.268L187.311 157.356L187.494 157.443L187.676 157.531L187.859 157.618L188.042 157.706L188.224 157.793L188.407 157.881L188.59 157.968L188.772 158.056L188.955 158.143L189.138 158.231L189.321 158.318L189.503 158.406L189.686 158.493L189.869 158.581L190.051 158.668L190.234 158.756L190.417 158.843L190.599 158.931L190.782 159.018L190.965 159.106L191.148 159.193L191.33 159.281L191.513 159.368L191.696 159.456L191.878 159.543L192.061 159.631L192.244 159.718L192.426 159.805L192.609 159.893L192.792 159.98L192.974 160.068L193.157 160.155L193.34 160.243L193.523 160.33L193.705 160.418L193.888 160.505L194.071 160.593L194.253 160.68L194.436 160.768L194.619 160.855L194.801 160.943L194.984 161.03L195.167 161.118L195.35 161.205L195.532 161.293L195.715 161.38L195.898 161.468L196.08 161.555L196.263 161.643L196.446 161.73L196.628 161.818L196.811 161.905L196.994 161.993L197.177 162.08L197.359 162.168L197.542 162.255L197.725 162.343L197.907 162.43L198.09 162.518L198.273 162.605L198.455 162.693L198.638 162.78L198.821 162.868L199.003 162.955L199.186 163.043L199.369 163.13L199.552 163.218L199.734 163.305L199.917 163.393L200.1 163.48L200.282 163.568L200.465 163.655L200.648 163.742L200.83 163.83L201.013 163.917L201.196 164.005L201.379 164.092L201.561 164.18L201.744 164.267L201.927 164.355L202.109 164.442L202.292 164.53L202.475 164.617L202.657 164.705L202.84 164.792L203.023 164.88L203.205 164.967L203.388 165.055L203.571 165.142L203.754 165.23L203.936 165.317L204.119 165.405L204.302 165.492L204.484 165.58L204.667 165.667L204.95 165.85Z" fill="#FFC400"/>
<path opacity="0.6" d="M204.949 165.861L204.854 165.928L204.759 165.995L204.664 166.062L204.568 166.129L204.473 166.196L204.378 166.263L204.283 166.33L204.188 166.397L204.092 166.463L203.997 166.53L203.902 166.597L203.807 166.664L203.711 166.731L203.609 166.79L203.513 166.857L203.418 166.924L203.323 166.991L203.228 167.058L203.132 167.125L203.037 167.192L202.942 167.259L202.847 167.325L202.752 167.392L202.656 167.459L202.561 167.526L202.466 167.593L202.371 167.66L202.276 167.727L202.18 167.794L202.085 167.861L201.99 167.928L201.895 167.995L201.8 168.061L201.704 168.128L201.609 168.195L201.514 168.262L201.419 168.329L201.324 168.396L201.228 168.463L201.133 168.53L201.038 168.597L200.943 168.664L200.848 168.73L200.752 168.797L200.657 168.864L200.562 168.931L200.467 168.998L200.371 169.065L200.276 169.132L200.181 169.199L200.086 169.266L199.991 169.333L199.895 169.399L199.8 169.466L199.705 169.533L199.61 169.6L199.491 169.644L199.396 169.711L199.301 169.778L199.206 169.845L199.111 169.912L199.015 169.978L198.92 170.045L198.825 170.112L198.73 170.179L198.635 170.246L198.539 170.313L198.444 170.38L198.349 170.447L198.254 170.514L198.159 170.581L198.063 170.647L197.968 170.714L197.863 170.771L197.767 170.838L197.672 170.905L197.577 170.972L197.482 171.039L197.387 171.106L197.291 171.172L197.196 171.239L197.101 171.306L197.006 171.373L196.911 171.44L196.815 171.507L196.72 171.574L196.625 171.641L196.53 171.708L196.434 171.775L196.339 171.841L196.244 171.908L196.149 171.975L196.043 172.032L195.948 172.099L195.853 172.166L195.758 172.233L195.663 172.299L195.567 172.366L195.472 172.433L195.377 172.5L195.367 172.485L195.356 172.469L195.346 172.454L195.336 172.438L195.325 172.423L195.315 172.408L195.305 172.392L195.295 172.377L195.284 172.361L195.274 172.346L195.264 172.33L195.251 172.315L195.241 172.299L195.23 172.284L195.22 172.269L195.21 172.253L195.199 172.238L195.189 172.222L195.179 172.207L195.168 172.191L195.158 172.176L195.148 172.161L195.138 172.145L195.127 172.13L195.117 172.114L195.107 172.099L195.096 172.083L195.086 172.068L195.076 172.052L195.066 172.037L195.055 172.022L195.045 172.006L195.035 171.991L195.024 171.975L195.014 171.96L195.004 171.944L194.994 171.929L194.983 171.913L194.973 171.898L194.963 171.883L194.952 171.867L194.942 171.852L194.932 171.836L194.921 171.821L194.911 171.805L194.901 171.79L194.891 171.775L194.88 171.759L194.87 171.744L194.86 171.728L194.849 171.713L194.839 171.697L194.829 171.682L194.819 171.666L194.808 171.651L194.798 171.636L194.788 171.62L194.777 171.605L194.77 171.589L194.762 171.574L194.754 171.558L194.746 171.543L194.739 171.527L194.731 171.512L194.723 171.497L194.716 171.481L194.708 171.466L194.7 171.45L194.692 171.435L194.685 171.419L194.677 171.404L194.669 171.389L194.662 171.373L194.654 171.358L194.646 171.342L194.638 171.327L194.631 171.311L194.623 171.296L194.615 171.28L194.608 171.265L194.6 171.25L194.592 171.234L194.584 171.219L194.577 171.203L194.569 171.188L194.561 171.172L194.553 171.157L194.546 171.142L194.538 171.126L194.53 171.111L194.523 171.095L194.515 171.08L194.507 171.064L194.499 171.049L194.492 171.033L194.484 171.018L194.476 171.003L194.469 170.987L194.461 170.972L194.453 170.956L194.559 170.905L194.664 170.853L194.77 170.802L194.875 170.75L194.981 170.699L195.086 170.647L195.192 170.596L195.297 170.545L195.403 170.493L195.508 170.442L195.614 170.39L195.719 170.339L195.825 170.287L195.93 170.236L196.036 170.184L196.141 170.133L196.247 170.081L196.352 170.03L196.458 169.978L196.563 169.927L196.669 169.876L196.774 169.824L196.88 169.773L196.985 169.721L197.091 169.67L197.196 169.618L197.302 169.567L197.407 169.515L197.513 169.464L197.618 169.412L197.724 169.361L197.829 169.309L197.935 169.258L198.04 169.206L198.146 169.155L198.251 169.104L198.357 169.052L198.462 169.001L198.568 168.949L198.673 168.898L198.779 168.846L198.884 168.795L198.99 168.743L199.095 168.692L199.201 168.64L199.306 168.589L199.412 168.537L199.517 168.486L199.623 168.435L199.728 168.383L199.834 168.332L199.939 168.28L200.045 168.229L200.15 168.177L200.256 168.126L200.361 168.074L200.467 168.023L200.572 167.971L200.678 167.92L200.783 167.868L200.889 167.817L200.994 167.765L201.1 167.714L201.205 167.663L201.311 167.611L201.416 167.56L201.522 167.508L201.627 167.457L201.733 167.405L201.838 167.354L201.944 167.302L202.049 167.251L202.155 167.199L202.26 167.148L202.366 167.096L202.471 167.045L202.577 166.994L202.682 166.942L202.788 166.891L202.893 166.839L202.999 166.788L203.104 166.736L203.21 166.685L203.315 166.633L203.421 166.582L203.526 166.53L203.632 166.479L203.737 166.427L203.843 166.376L203.948 166.325L204.054 166.273L204.159 166.222L204.265 166.17L204.37 166.119L204.476 166.067L204.581 166.016L204.687 165.964L204.792 165.913L204.898 165.861H204.949Z" fill="#29FFCE"/>
<path opacity="0.6" d="M204.946 165.861L204.969 166.005L204.992 166.15L205.015 166.294L205.038 166.438L205.062 166.582L205.085 166.726L205.108 166.87L205.131 167.014L205.154 167.158L205.177 167.302L205.2 167.446L205.224 167.591L205.247 167.735L205.27 167.879L205.293 168.023L205.316 168.167L205.339 168.311L205.363 168.455L205.386 168.599L205.409 168.743L205.432 168.887L205.455 169.032L205.478 169.176L205.502 169.32L205.525 169.464L205.548 169.608L205.571 169.752L205.594 169.896L205.617 170.04L205.641 170.184L205.664 170.328L205.687 170.472L205.71 170.617L205.733 170.761L205.756 170.905L205.779 171.049L205.803 171.193L205.826 171.337L205.849 171.481L205.872 171.625L205.895 171.769L205.918 171.913L205.942 172.058L205.965 172.202L205.988 172.346L206.011 172.49L206.034 172.634L206.057 172.778L206.081 172.922L206.104 173.066L206.127 173.21L206.15 173.354L206.173 173.499L206.196 173.643L206.219 173.787L206.243 173.931L206.266 174.075L206.289 174.219L206.312 174.363L206.335 174.507L206.358 174.651L206.382 174.795L206.405 174.94L206.428 175.084L206.451 175.228L206.474 175.372L206.497 175.516L206.521 175.66L206.544 175.804L206.567 175.948L206.59 176.092L206.613 176.236L206.636 176.381L206.659 176.525L206.683 176.669L206.706 176.813L206.729 176.957L206.752 177.101L206.873 177.204L206.896 177.348L206.919 177.492L206.943 177.636L206.966 177.78L206.989 177.924L207.012 178.069L207.035 178.213L207.058 178.357L207.081 178.501L207.105 178.645L207.128 178.789L207.151 178.933L207.174 179.077L207.197 179.221L207.22 179.365L207.244 179.51L207.267 179.654L207.29 179.798L207.313 179.942L207.336 180.086L207.359 180.23L207.303 180.24L207.246 180.251L207.19 180.261L207.133 180.269L207.076 180.276L207.02 180.284L206.963 180.292L206.907 180.3L206.85 180.307L206.793 180.315L206.737 180.323L206.68 180.33L206.623 180.338L206.567 180.346L206.51 180.351L206.454 180.356L206.397 180.361L206.34 180.366L206.284 180.372L206.227 180.377L206.171 180.382L206.114 180.387L206.057 180.392L206.001 180.397L205.944 180.402L205.888 180.408L205.831 180.41L205.774 180.413L205.718 180.415L205.661 180.418L205.604 180.42L205.548 180.423L205.491 180.426L205.435 180.428L205.378 180.431L205.321 180.433L205.265 180.436H204.585L204.529 180.433L204.472 180.431L204.416 180.428L204.359 180.426L204.302 180.423L204.246 180.42L204.189 180.418L204.133 180.415L204.076 180.413L204.019 180.41L203.963 180.408L203.906 180.402L203.85 180.397L203.793 180.392L203.736 180.387L203.68 180.382L203.623 180.377L203.567 180.372L203.51 180.366L203.453 180.361L203.397 180.356L203.34 180.351L203.283 180.346L203.227 180.338L203.17 180.33L203.114 180.323L203.057 180.315L202.998 180.292L202.941 180.284L202.885 180.276L202.828 180.269L202.771 180.261L202.715 180.253L202.658 180.245L202.602 180.235L202.545 180.225L202.488 180.215L202.432 180.204L202.375 180.194L202.319 180.184L202.262 180.173L202.205 180.163L202.149 180.153L202.092 180.143L202.035 180.132L201.979 180.122L201.922 180.109L201.866 180.096L201.809 180.083L201.752 180.07L201.696 180.058L201.729 179.916L201.763 179.775L201.796 179.633L201.83 179.492L201.863 179.35L201.897 179.208L201.93 179.067L201.963 178.925L201.997 178.784L202.03 178.642L202.064 178.501L202.097 178.359L202.131 178.218L202.164 178.076L202.198 177.935L202.231 177.793L202.264 177.652L202.298 177.51L202.331 177.369L202.365 177.227L202.398 177.086L202.432 176.944L202.465 176.803L202.499 176.661L202.532 176.519L202.566 176.378L202.599 176.236L202.632 176.095L202.666 175.953L202.699 175.812L202.733 175.67L202.766 175.529L202.8 175.387L202.833 175.246L202.867 175.104L202.9 174.963L202.934 174.821L202.967 174.68L203 174.538L203.034 174.397L203.067 174.255L203.101 174.114L203.134 173.972L203.168 173.831L203.201 173.689L203.235 173.547L203.268 173.406L203.301 173.264L203.335 173.123L203.368 172.981L203.402 172.84L203.435 172.698L203.469 172.557L203.502 172.415L203.536 172.274L203.569 172.132L203.603 171.991L203.636 171.849L203.669 171.708L203.703 171.566L203.736 171.425L203.77 171.283L203.803 171.142L203.837 171L203.87 170.858L203.904 170.717L203.937 170.575L203.971 170.434L204.004 170.292L204.037 170.151L204.071 170.009L204.104 169.868L204.138 169.726L204.171 169.585L204.205 169.443L204.238 169.302L204.272 169.16L204.305 169.019L204.338 168.877L204.372 168.736L204.405 168.594L204.439 168.453L204.472 168.311L204.506 168.169L204.539 168.028L204.573 167.886L204.606 167.745L204.64 167.603L204.673 167.462L204.706 167.32L204.74 167.179L204.773 167.037L204.807 166.896L204.84 166.754L204.874 166.613L204.907 166.471L204.941 166.33L204.974 166.188L205.008 166.047L204.946 165.861Z" fill="#7DFF7A"/>
<path opacity="0.6" d="M204.944 165.861L205.127 166.005L205.309 166.15L205.492 166.294L205.675 166.438L205.857 166.582L206.04 166.726L206.223 166.87L206.405 167.014L206.588 167.158L206.771 167.302L206.954 167.446L207.136 167.591L207.319 167.735L207.502 167.879L207.684 168.023L207.867 168.167L208.05 168.311L208.232 168.455L208.415 168.599L208.598 168.743L208.78 168.887L208.963 169.032L209.146 169.176L209.329 169.32L209.511 169.464L209.694 169.608L209.877 169.752L210.059 169.896L210.242 170.04L210.425 170.184L210.607 170.328L210.79 170.472L210.973 170.617L211.156 170.761L211.338 170.905L211.521 171.049L211.704 171.193L211.886 171.337L212.069 171.481L212.252 171.625L212.434 171.769L212.617 171.913L212.8 172.058L212.982 172.202L213.165 172.346L213.348 172.49L213.531 172.634L213.713 172.778L213.896 172.922L214.079 173.066L214.261 173.21L214.444 173.354L214.627 173.499L214.809 173.643L214.992 173.787L215.175 173.931L215.358 174.075L215.54 174.219L215.723 174.363L215.906 174.507L216.088 174.651L216.271 174.795L216.454 174.94L216.636 175.084L216.819 175.228L217.002 175.372L217.185 175.516L217.367 175.66L217.55 175.804L217.733 175.948L217.915 176.092L218.098 176.236L218.281 176.381L218.463 176.525L218.646 176.669L218.829 176.813L219.011 176.957L219.194 177.101L219.377 177.245L219.56 177.389L219.742 177.533L219.925 177.677L220.108 177.822L220.29 177.966L220.473 178.11L220.656 178.254L220.838 178.398L221.021 178.542L221.204 178.686L221.387 178.83L221.569 178.974L221.752 179.118L221.935 179.263L222.117 179.407L222.3 179.551L222.483 179.695L222.665 179.839L222.848 179.983L223.031 180.127L223.213 180.271L223.18 180.315L223.147 180.359L223.113 180.402L223.08 180.446L223.046 180.49L223.013 180.534L222.979 180.577L222.946 180.621L222.912 180.665L222.879 180.709L222.843 180.75L222.807 180.791L222.771 180.832L222.735 180.873L222.699 180.915L222.663 180.956L222.627 180.997L222.591 181.038L222.555 181.079L222.519 181.12L222.483 181.162L222.447 181.203L222.411 181.244L222.375 181.285L222.339 181.326L222.303 181.367L222.267 181.409L222.231 181.45L222.195 181.491L222.158 181.532L222.122 181.573L222.086 181.614L222.05 181.656L222.014 181.697L221.978 181.738L221.942 181.779L221.904 181.82L221.865 181.861L221.827 181.903L221.788 181.944L221.749 181.985L221.711 182.024L221.672 182.062L221.634 182.101L221.595 182.139L221.556 182.178L221.518 182.217L221.479 182.255L221.441 182.294L221.402 182.332L221.363 182.371L221.325 182.41L221.286 182.448L221.248 182.487L221.209 182.525L221.17 182.564L221.132 182.603L221.093 182.641L221.055 182.68L221.016 182.718L220.977 182.757L220.939 182.796L220.9 182.834L220.862 182.873L220.82 182.911L220.779 182.95L220.738 182.989L220.697 183.027L220.656 183.066L220.615 183.102L220.573 183.138L220.532 183.174L220.491 183.21L220.45 183.246L220.409 183.282L220.368 183.318L220.326 183.354L220.285 183.39L220.244 183.426L220.203 183.462L220.162 183.498L220.121 183.534L220.079 183.57L220.038 183.606L219.997 183.642L219.956 183.678L219.915 183.714L219.874 183.75L219.832 183.786L219.791 183.822L219.75 183.858L219.709 183.894L219.668 183.93L219.626 183.966L219.583 184.002L219.539 184.036L219.495 184.069L219.451 184.103L219.408 184.136L219.364 184.17L219.22 183.987L219.076 183.804L218.932 183.622L218.788 183.439L218.644 183.256L218.499 183.073L218.355 182.891L218.211 182.708L218.067 182.525L217.923 182.343L217.779 182.16L217.635 181.977L217.491 181.795L217.347 181.612L217.203 181.429L217.058 181.246L216.914 181.064L216.77 180.881L216.626 180.698L216.482 180.516L216.338 180.333L216.194 180.15L216.05 179.968L215.906 179.785L215.762 179.602L215.617 179.419L215.473 179.237L215.329 179.054L215.185 178.871L215.041 178.689L214.897 178.506L214.753 178.323L214.609 178.141L214.465 177.958L214.321 177.775L214.176 177.593L214.032 177.41L213.888 177.227L213.744 177.044L213.6 176.862L213.456 176.679L213.312 176.496L213.168 176.314L213.024 176.131L212.88 175.948L212.735 175.766L212.591 175.583L212.447 175.4L212.352 175.153L212.208 174.97L212.064 174.788L211.92 174.605L211.776 174.422L211.632 174.24L211.487 174.057L211.343 173.874L211.199 173.692L211.055 173.509L210.911 173.326L210.767 173.143L210.623 172.961L210.479 172.778L210.335 172.595L210.191 172.413L210.046 172.23L209.902 172.047L209.758 171.865L209.614 171.682L209.47 171.499L209.326 171.316L209.182 171.134L209.038 170.951L208.894 170.768L208.75 170.586L208.606 170.403L208.461 170.22L208.317 170.038L208.173 169.855L208.029 169.672L207.885 169.49L207.741 169.307L207.597 169.124L207.453 168.941L207.309 168.759L207.165 168.576L207.02 168.393L206.876 168.211L206.732 168.028L206.588 167.845L206.395 167.683L206.251 167.5L206.107 167.318L205.963 167.135L205.819 166.952L205.675 166.77L205.531 166.587L205.386 166.404L205.242 166.222L205.098 166.039L204.944 165.861Z" fill="#FF6800"/>
<path d="M210.774 166.044H204.948C204.907 166.043 204.867 166.027 204.836 166C204.805 165.973 204.784 165.935 204.778 165.894C204.772 165.853 204.78 165.811 204.801 165.776C204.822 165.74 204.855 165.713 204.894 165.699L210.434 163.901C210.479 163.887 210.527 163.891 210.569 163.912C210.611 163.933 210.643 163.97 210.658 164.014C210.854 164.614 210.951 165.239 210.951 165.869C210.95 165.916 210.931 165.96 210.898 165.992C210.865 166.025 210.82 166.044 210.774 166.044ZM206.07 165.689H210.594C210.579 165.216 210.504 164.747 210.372 164.292L206.07 165.689Z" fill="#2C2C2C"/>
<path d="M204.953 166.053C204.925 166.053 204.897 166.046 204.871 166.032C204.846 166.019 204.825 166 204.808 165.976C204.792 165.953 204.781 165.926 204.778 165.898C204.774 165.87 204.777 165.841 204.786 165.814L210.926 149.454C210.943 149.41 210.976 149.375 211.019 149.356C211.062 149.336 211.11 149.335 211.155 149.351C212.89 149.999 214.512 150.919 215.959 152.076C216.036 152.137 216.049 152.248 215.987 152.325L205.092 165.986C205.075 166.007 205.054 166.024 205.03 166.035C205.006 166.047 204.98 166.053 204.953 166.053ZM211.196 149.747L205.512 164.89L215.598 152.243C214.262 151.199 212.778 150.358 211.196 149.747Z" fill="#2C2C2C"/>
<path d="M204.947 166.049C204.921 166.049 204.895 166.043 204.871 166.032C204.848 166.02 204.827 166.004 204.81 165.984L189.878 148.098C189.849 148.062 189.835 148.015 189.839 147.969C189.843 147.922 189.866 147.879 189.901 147.849C192.746 145.476 196.112 143.808 199.723 142.983C199.769 142.973 199.817 142.981 199.857 143.006C199.897 143.031 199.926 143.071 199.937 143.116L205.122 165.83C205.13 165.869 205.125 165.91 205.108 165.945C205.091 165.981 205.062 166.01 205.026 166.028C205.001 166.039 204.974 166.046 204.947 166.049ZM190.264 148.011L204.607 165.192L199.628 143.371C196.194 144.184 192.991 145.771 190.264 148.011Z" fill="#2C2C2C"/>
<path d="M184.882 169.702C184.84 169.702 184.801 169.687 184.769 169.661C184.737 169.635 184.715 169.599 184.707 169.558C183.932 165.285 184.53 160.876 186.413 156.962C186.434 156.921 186.47 156.889 186.514 156.873C186.559 156.858 186.607 156.86 186.649 156.88L205.017 165.724C205.05 165.741 205.077 165.767 205.095 165.8C205.112 165.833 205.119 165.87 205.115 165.907C205.109 165.944 205.093 165.979 205.067 166.006C205.041 166.033 205.007 166.051 204.971 166.059L184.913 169.7L184.882 169.702ZM186.657 157.276C184.893 161.029 184.324 165.232 185.026 169.319L204.371 165.809L186.657 157.276Z" fill="#2C2C2C"/>
<path d="M195.376 172.686L195.345 172.683C195.299 172.674 195.258 172.647 195.231 172.608C194.879 172.099 194.566 171.563 194.297 171.005C194.277 170.963 194.274 170.914 194.29 170.869C194.306 170.825 194.338 170.789 194.38 170.769L204.876 165.715C204.916 165.696 204.962 165.692 205.005 165.705C205.048 165.718 205.084 165.746 205.107 165.784C205.129 165.823 205.136 165.868 205.126 165.911C205.117 165.954 205.092 165.992 205.056 166.018L195.481 172.652C195.449 172.671 195.413 172.682 195.376 172.686ZM194.691 171.01C194.909 171.441 195.152 171.858 195.419 172.261L202.995 167.012L194.691 171.01Z" fill="#2C2C2C"/>
<path d="M204.954 180.616C203.848 180.616 202.739 180.492 201.668 180.248C201.622 180.237 201.583 180.208 201.558 180.168C201.533 180.128 201.524 180.08 201.534 180.034L204.774 165.838C204.792 165.755 204.869 165.686 204.952 165.699C204.992 165.7 205.031 165.716 205.062 165.742C205.093 165.769 205.114 165.805 205.121 165.845L207.561 180.201C207.568 180.248 207.558 180.295 207.531 180.334C207.504 180.372 207.463 180.398 207.417 180.407C206.603 180.546 205.779 180.616 204.954 180.616ZM201.92 179.939C203.651 180.305 205.434 180.354 207.183 180.086L204.923 166.785L201.92 179.939Z" fill="#2C2C2C"/>
<path d="M219.478 184.265C219.451 184.265 219.425 184.259 219.401 184.248C219.377 184.236 219.355 184.219 219.339 184.199L204.813 165.983C204.787 165.949 204.774 165.906 204.776 165.863C204.779 165.82 204.796 165.78 204.826 165.749C204.857 165.719 204.897 165.7 204.94 165.698C204.983 165.695 205.026 165.707 205.06 165.733L223.438 180.056C223.474 180.085 223.498 180.128 223.504 180.174C223.51 180.221 223.497 180.268 223.469 180.305C222.336 181.763 221.034 183.081 219.588 184.229C219.555 184.25 219.517 184.262 219.478 184.265ZM206.025 166.935L219.506 183.838C220.826 182.768 222.025 181.556 223.08 180.223L206.025 166.935Z" fill="#2C2C2C"/>
</svg>
