<svg width="182" height="124" viewBox="0 0 182 124" fill="none" xmlns="http://www.w3.org/2000/svg">
<path d="M54.5897 81.5132L60.0896 99.3584C61.3253 103.41 61.8406 106.239 61.6342 107.851C64.6422 99.7946 66.744 91.0154 67.9396 81.5132H74.5529C71.7089 96.9831 67.9591 108.224 63.3033 115.237C59.676 120.641 55.7024 123.343 51.3753 123.343C50.2216 123.343 48.7993 122.994 47.1115 122.302V118.573C47.9361 118.694 48.9036 118.759 50.0163 118.759C52.0345 118.758 53.6623 118.2 54.8997 117.083C56.3818 115.722 57.1237 114.193 57.1237 112.498C57.1237 111.341 56.5451 108.966 55.3931 105.374L47.7301 81.5132H54.5897ZM12.497 70.5449L22.5706 101.281H22.6329L32.7684 70.5449H41.0493C42.8625 85.7876 43.9335 99.7342 44.2623 112.376H37.2807C37.0347 100.559 36.3551 89.446 35.2419 79.0372H35.1811L24.5497 112.376H19.2329L8.6658 79.0372H8.60359C7.82008 89.0336 7.32571 100.146 7.12046 112.376H0.753906C1.16534 97.5021 2.19497 83.5598 3.84281 70.5449H12.497Z" fill="#00758F"/>
<path d="M125.349 69.9261C136.185 69.9261 141.603 76.849 141.603 90.6881C141.603 98.2084 139.973 103.889 136.718 107.726C136.131 108.428 135.482 109.034 134.799 109.595L142.468 113.386L142.46 113.386L139.738 118.088L129.751 112.261C128.096 112.751 126.275 112.996 124.29 112.996C118.969 112.996 114.995 111.446 112.367 108.348C109.483 104.922 108.042 99.5275 108.042 92.1748C108.042 84.697 109.668 79.038 112.925 75.1955C115.891 71.6807 120.033 69.9261 125.349 69.9261ZM92.1656 69.9866C96.0385 69.9866 99.56 71.0229 102.732 73.0882L101.121 76.6783C98.4067 75.5246 95.7306 74.9453 93.0917 74.9453C90.9504 74.9453 89.3005 75.4606 88.1503 76.4977C86.9938 77.5256 86.2784 78.8482 86.2784 80.4607C86.2784 82.9385 88.0435 85.0872 91.3028 86.9026C92.3706 87.4862 93.4346 88.0766 94.4949 88.6738L94.7381 88.8106L94.8601 88.8791L95.1036 89.0159L95.2252 89.0845L95.4684 89.2216C97.9355 90.6125 100.257 91.9401 100.257 91.9401C103.516 94.2535 105.14 96.72 105.14 100.782C105.14 104.33 103.84 107.242 101.249 109.521C98.6555 111.789 95.1715 112.927 90.8083 112.927C86.7276 112.927 82.7727 111.618 78.9419 109.021L80.7339 105.428C84.0307 107.08 87.0139 107.906 89.6928 107.906C92.2052 107.906 94.1719 107.345 95.5946 106.237C97.0144 105.121 97.8652 103.565 97.8652 101.591C97.8652 99.1076 96.1375 96.9844 92.968 95.2033C91.9759 94.6552 90.9868 94.1018 90.0007 93.5431L89.7578 93.4056C89.3118 93.1535 88.8625 92.8983 88.4225 92.6485L88.1839 92.5127C86.0437 91.2954 84.1933 90.2318 84.1933 90.2318C81.0248 87.9142 79.436 85.4276 79.436 81.3302C79.436 77.9416 80.6208 75.2026 82.9869 73.119C85.3589 71.0307 88.4185 69.9866 92.1656 69.9866ZM154.338 70.5465V107.232H167.5V112.377H147.662V70.5468L154.338 70.5465ZM174.814 107.247V108.117H173.367V112.373H172.26V108.117H170.757V107.247H174.814ZM177.486 107.247L178.876 110.741L180.152 107.247H181.72V112.373H180.677V108.472L179.225 112.373H178.473L177.018 108.472H176.962V112.373H175.975V107.247H177.486ZM124.667 75.0704C118.282 75.0704 115.087 80.3405 115.087 90.8737C115.087 96.9073 115.933 101.282 117.623 104.009C119.188 106.533 121.64 107.793 124.977 107.793C131.363 107.793 134.557 102.481 134.557 91.8641C134.557 85.915 133.711 81.5773 132.023 78.8489C130.456 76.3309 128.006 75.0704 124.668 75.0704" fill="#F29111"/>
<path d="M107.928 2.70329C110.047 -2.50179 117.453 1.44002 120.328 3.25823C121.032 3.71313 121.84 4.67419 122.648 5.02942C123.908 5.07891 125.167 5.17752 126.429 5.23019C128.797 5.78654 131.014 6.24109 132.88 7.3036C141.55 12.4094 147.193 17.6123 152.387 26.2064C153.497 28.0267 154.052 29.9966 154.959 31.9664C156.217 34.9026 157.631 37.9848 159.091 40.7613C159.745 42.0775 160.251 43.5412 161.159 44.6529C161.513 45.1612 162.52 45.311 163.122 45.6146C164.787 46.476 166.803 47.1299 168.368 48.1408C171.291 49.9633 174.117 52.135 176.685 54.3582C177.643 55.2164 178.296 56.4313 179.208 57.339V57.7971C178.398 58.0456 177.591 58.3 176.783 58.504C175.019 58.9571 173.457 58.8546 171.745 59.3081C170.688 59.6149 169.374 60.0196 168.265 60.1225L168.368 60.2257C169.02 62.0902 172.551 63.6066 174.165 64.7217C176.126 66.137 177.943 67.8534 179.406 69.8247C179.911 70.3277 180.416 70.7854 180.919 71.287C181.27 71.7952 181.369 72.4527 181.725 72.9058V73.0592C181.331 72.9203 181.048 72.6552 180.78 72.3781L180.62 72.2109C180.459 72.0448 180.298 71.8815 180.114 71.7468C179.001 70.9869 177.896 70.0778 176.783 69.3712C174.87 68.1574 172.652 67.4529 170.688 66.2346C169.577 65.5273 168.518 64.7217 167.46 63.9123C166.5 63.2029 165.443 61.8407 164.84 60.8298C164.485 60.2713 164.436 59.6149 164.03 59.2109C164.103 58.5362 164.721 58.3357 165.345 58.171L165.489 58.1332C165.704 58.0774 165.914 58.0215 166.098 57.9476C168.719 56.835 171.843 56.4313 175.877 56.5324C175.725 55.5194 173.205 54.2571 172.4 53.6506C170.784 52.4863 169.074 51.2715 167.36 50.2118C166.452 49.6568 164.888 49.2518 163.882 48.7983C162.52 48.2419 159.495 47.6859 158.741 46.6263C157.46 44.9558 156.539 42.9633 155.646 40.9507L155.402 40.4014L155.159 39.8525C154.102 37.4288 152.79 34.9019 151.732 32.4203C151.178 31.2097 150.924 30.1471 150.318 28.986C146.639 21.8609 141.195 15.8956 134.594 11.7003C132.425 10.3352 130.006 9.07197 127.336 8.21341C125.823 7.75638 124.007 8.00911 122.395 7.65847H121.334C120.428 7.40327 119.672 6.44327 118.965 5.93711C117.405 4.87744 115.842 4.16592 113.976 3.40986C113.322 3.10659 111.454 2.40037 110.803 2.95637C110.399 3.05781 110.194 3.21015 110.095 3.61522C109.693 4.21964 110.047 5.13016 110.296 5.68757C111.054 7.30289 112.111 8.26289 113.071 9.62797C113.925 10.8386 114.986 12.2036 115.591 13.5199C116.898 16.3494 117.506 19.4843 118.717 22.3134C119.166 23.3773 119.876 24.5879 120.529 25.5475C121.083 26.3093 122.09 26.8599 122.395 27.8242C123.002 28.8351 121.486 32.1707 121.135 33.23C119.822 37.3751 120.076 43.1369 121.588 46.7298L121.669 46.9193L121.749 47.1112C122.301 48.4271 122.892 49.8442 124.36 50.2121C124.461 50.1117 124.36 50.1644 124.561 50.1117C124.916 47.3307 125.016 44.6525 125.975 42.4766C126.529 41.1161 127.634 40.1544 128.393 39.0438C128.898 39.3464 128.898 40.2586 129.199 40.8623C129.855 42.4282 130.56 44.145 131.368 45.7154C133.028 48.9496 134.896 52.0851 137.012 54.9142C137.721 55.9248 138.726 57.0371 139.633 57.9473C140.037 58.2997 140.49 58.5033 140.794 58.9568H140.893V59.1095C139.38 58.5521 138.422 56.9876 137.216 56.0743C134.945 54.3575 132.226 51.7794 130.661 49.3055C130.006 47.8853 129.299 46.5241 128.593 45.111V45.0088C128.292 45.4125 128.393 45.8133 128.242 46.4241C127.587 48.9496 128.091 51.8306 125.823 52.739C123.252 53.8029 121.334 51.0223 120.529 49.7586C117.957 45.5645 117.253 38.4889 119.067 32.7773C119.47 31.5129 119.524 29.9966 120.228 28.9871C120.076 28.0744 119.372 27.8249 118.965 27.2657C118.26 26.31 117.656 25.1966 117.103 24.1351C116.042 22.0617 115.287 19.5843 114.482 17.3607C114.128 16.4526 114.026 15.541 113.673 14.6814C113.071 13.3694 111.961 12.0531 111.104 10.8923C109.944 9.22396 106.567 5.99049 107.928 2.70329ZM124.46 12.6055C124.595 12.7406 124.758 12.8586 124.926 12.9749L125.129 13.1142C125.399 13.3015 125.661 13.4987 125.822 13.7674C126.076 14.1229 126.123 14.4739 126.428 14.8302C126.428 16.0451 126.076 16.8527 125.365 17.3561C125.365 17.3561 125.317 17.4091 125.267 17.4586C124.864 16.6488 124.511 15.8432 124.105 15.0342C123.605 14.328 122.899 13.7677 122.492 12.9608H122.394V12.8593C123.002 12.7091 123.605 12.6055 124.46 12.6055Z" fill="#00758F"/>
</svg>
