<svg width="204" height="204" viewBox="0 0 204 204" fill="none" xmlns="http://www.w3.org/2000/svg">
<path d="M83.3704 90.1535C83.552 90.1746 83.7246 90.221 83.8882 90.2928C84.0529 90.3736 84.2049 90.4717 84.3316 90.5953C84.5005 90.7536 84.6604 90.9246 84.8114 91.1083L98.0875 107.892C97.9823 106.899 97.9295 105.901 97.9291 104.902V90.0965H103.646V118.039H100.266C99.8346 118.05 99.4051 117.973 99.0043 117.813C98.6064 117.616 98.2632 117.325 98.0051 116.964L84.8304 100.34C84.8673 100.82 84.899 101.294 84.9254 101.762C84.9497 102.228 84.9618 102.666 84.9618 103.076V118.056H79.2517V90.0996H82.6642C82.8969 90.0996 83.1376 90.117 83.3704 90.1535ZM112.019 98.1486V110.766C112.019 111.752 112.242 112.513 112.689 113.048C112.935 113.325 113.242 113.542 113.585 113.682C113.928 113.822 114.299 113.881 114.668 113.855C115.299 113.855 115.924 113.724 116.5 113.453C117.104 113.157 117.661 112.776 118.155 112.321V98.1486H124.101V118.034H120.423C120.101 118.061 119.781 117.976 119.514 117.794C119.247 117.613 119.051 117.345 118.958 117.037L118.597 115.887C118.225 116.251 117.828 116.589 117.409 116.897C116.561 117.512 115.595 117.944 114.572 118.167C113.995 118.294 113.405 118.355 112.814 118.351C111.825 118.368 110.845 118.174 109.937 117.782C109.119 117.424 108.394 116.884 107.816 116.202C107.224 115.5 106.78 114.686 106.51 113.808C106.209 112.825 106.06 111.803 106.067 110.775V98.1501L112.019 98.1486ZM127.936 118.041V98.1486H131.62C131.947 98.1368 132.271 98.2222 132.551 98.394C132.809 98.5765 132.996 98.8421 133.081 99.1462L133.396 100.22C133.721 99.8782 134.067 99.5577 134.432 99.2602C134.792 98.9704 135.182 98.7208 135.596 98.5159C136.501 98.0549 137.505 97.8207 138.521 97.8335C139.592 97.7899 140.646 98.1177 141.504 98.7614C142.311 99.4106 142.932 100.27 143.292 101.244C143.608 100.658 144.02 100.12 144.511 99.6703C144.978 99.2487 145.5 98.8938 146.064 98.6157C146.627 98.3491 147.219 98.1498 147.828 98.0219C148.438 97.8981 149.058 97.8345 149.68 97.8319C150.713 97.8126 151.741 97.9844 152.712 98.3386C153.553 98.6549 154.31 99.1604 154.924 99.816C155.542 100.505 156.006 101.314 156.276 102.199C156.601 103.234 156.757 104.314 156.739 105.398V118.034H150.791V105.401C150.791 103.345 149.909 102.317 148.144 102.318C147.399 102.294 146.671 102.584 146.142 103.114C145.611 103.64 145.345 104.403 145.345 105.403V118.039H139.404V105.403C139.404 104.262 139.181 103.464 138.734 103.008C138.286 102.547 137.626 102.317 136.755 102.318C136.227 102.316 135.706 102.44 135.235 102.679C134.737 102.935 134.28 103.265 133.881 103.658V118.047L127.936 118.041ZM166.677 108.699V118.039H160.192V90.098H170.05C171.767 90.0585 173.48 90.2931 175.123 90.7932C176.406 91.1828 177.594 91.8353 178.612 92.7092C179.506 93.5028 180.2 94.4962 180.639 95.6086C181.077 96.7567 181.289 97.9839 181.277 99.2095C181.289 100.52 181.062 101.822 180.607 103.051C180.168 104.196 179.464 105.22 178.553 106.041C177.538 106.931 176.345 107.594 175.054 107.987C173.435 108.491 171.745 108.732 170.05 108.701L166.677 108.699ZM166.677 103.81H170.05C171.738 103.81 172.957 103.412 173.696 102.603C174.436 101.795 174.808 100.682 174.808 99.2301C174.817 98.6363 174.721 98.0456 174.525 97.4851C174.341 96.9737 174.042 96.5111 173.652 96.1328C173.23 95.7349 172.725 95.4349 172.173 95.2539C171.488 95.0314 170.771 94.9244 170.051 94.9372H166.677V103.81ZM192.801 123.201C192.666 123.542 192.446 123.843 192.162 124.075C191.788 124.288 191.36 124.384 190.931 124.351H186.469L190.311 116.3L182.376 98.147H187.627C188.011 98.1284 188.39 98.2425 188.7 98.47C188.946 98.6548 189.134 98.9074 189.239 99.1968L192.499 107.77C192.8 108.541 193.048 109.33 193.243 110.139C193.374 109.727 193.515 109.325 193.666 108.932C193.822 108.533 193.969 108.131 194.109 107.726L197.066 99.1905C197.175 98.8827 197.386 98.6217 197.664 98.451C197.951 98.261 198.287 98.1533 198.627 98.1533H203.422L192.801 123.201Z" fill="#003042"/>
<path d="M28.9921 81.0032L17.119 75.0128L4.08521 81.5163L16.2861 87.6381L28.9921 81.0032ZM34.4393 83.7506L46.8857 90.0371L33.9706 96.52L21.7587 90.3918L34.4393 83.7506ZM51.0709 75.1015L63.8592 81.5163L52.4232 87.2596L39.9436 80.9668L51.0709 75.1015ZM45.5603 72.3399L34.0482 66.5664L22.6549 72.2512L34.5201 78.2305L45.5603 72.3399ZM36.5628 121.923V137.639L50.5071 130.675L50.4945 114.954L36.5628 121.923ZM50.4881 109.47L50.4755 93.9135L36.5628 100.832V116.395L50.4881 109.47ZM67.2416 106.556V122.334L55.3416 128.268L55.3305 112.566L67.2416 106.556ZM67.2416 101.039V85.578L55.3178 91.5066L55.3305 107.093L67.2416 101.039Z" fill="#4DABCF"/>
<path d="M31.6306 100.83L22.2404 96.1035V116.518C22.2404 116.518 10.7473 92.0656 9.68639 89.8724C9.54704 89.5874 8.9849 89.2707 8.83922 89.1963C6.14156 87.8076 3.43903 86.4283 0.731689 85.0586L0.731689 121.143L9.08624 125.617V106.748C9.08624 106.748 20.4542 128.6 20.5666 128.838C20.687 129.08 21.8255 131.378 23.0432 132.187C24.6679 133.26 31.6258 137.45 31.6258 137.45L31.6306 100.83Z" fill="#4C75CF"/>
</svg>
