<svg width="204" height="204" viewBox="0 0 204 204" fill="none" xmlns="http://www.w3.org/2000/svg">
<path d="M18.7645 183.047C14.9007 183.047 10.9752 181.451 8.5113 178.32V195.227H0.7854V153.494H7.77339L8.04892 158.07C10.4463 154.54 14.706 152.677 18.7661 152.681C26.5521 152.681 32.2955 159.205 32.2955 167.863C32.2955 176.52 26.549 183.053 18.7629 183.048L18.7645 183.047ZM16.3718 158.417C11.8604 158.417 8.17877 161.945 8.17877 167.87C8.17877 173.796 11.8382 177.324 16.3671 177.324C20.8959 177.324 24.5474 173.796 24.5474 167.87C24.5474 161.945 20.8943 158.417 16.3702 158.417H16.3718ZM61.4098 182.255L61.1421 177.663C58.7479 181.191 54.4851 183.055 50.4282 183.055C42.6373 183.055 36.9019 176.529 36.9019 167.874C36.9019 159.221 42.6263 152.694 50.4282 152.699C54.4835 152.699 58.7479 154.577 61.1421 158.089L61.4113 153.499H68.4009V182.258L61.4098 182.255ZM52.8256 158.418C48.3158 158.418 44.6373 161.947 44.6373 167.872C44.6373 173.797 48.2952 177.326 52.824 177.326C57.3528 177.326 61.0107 173.797 61.0107 167.877C61.0107 161.954 57.3528 158.442 52.824 158.42L52.8256 158.418ZM95.4186 182.261V166.334C95.4186 160.743 93.4867 158.878 89.9603 158.878C86.3008 158.878 82.3056 162.203 82.3009 166.198V182.242H74.5829V153.499H81.6596L81.9889 158.827C83.9208 155.164 88.2485 152.702 92.6412 152.702C100.294 152.702 103.162 158.031 103.162 165.155V182.261H95.4186ZM131.453 182.264L131.184 177.671C128.791 181.199 124.531 183.061 120.468 183.061C112.68 183.061 106.942 176.537 106.942 167.883C106.942 159.229 112.668 152.707 120.468 152.707C124.327 152.707 128.257 154.306 130.72 157.435V142.324H138.441V182.266L131.453 182.264ZM122.87 158.444C118.341 158.444 114.679 161.972 114.679 167.897C114.679 173.823 118.337 177.346 122.865 177.351C127.394 177.351 131.052 173.823 131.052 167.897C131.052 161.972 127.394 158.444 122.87 158.444ZM167.457 182.269L167.192 177.677C164.795 181.205 160.532 183.07 156.475 183.066C148.686 183.066 142.949 176.542 142.949 167.889C142.949 159.236 148.675 152.71 156.475 152.713C160.532 152.713 164.795 154.593 167.192 158.105L167.46 153.513H174.467V182.269H167.457ZM158.873 158.444C154.345 158.444 150.686 161.972 150.686 167.897C150.686 173.823 154.345 177.351 158.873 177.351C163.4 177.351 167.059 173.823 167.059 167.897C167.059 161.972 163.401 158.444 158.873 158.444ZM191.559 183.205C187.496 183.173 183.517 182.046 180.041 179.943L181.305 174.6C183.635 175.999 187.164 177.799 191.423 177.799C194.484 177.799 196.617 176.866 196.617 174.467C196.617 172.407 194.421 171.672 190.49 170.741C183.439 169.208 180.907 165.483 180.91 161.421C180.91 156.911 184.438 152.636 192.228 152.636C196.954 152.636 201.079 154.702 201.996 155.232L200.745 160.323C198.231 158.807 195.361 157.98 192.426 157.924C189.297 157.924 187.764 158.989 187.764 160.719C187.764 162.648 189.762 163.516 192.825 164.247C200.41 165.847 203.474 169.373 203.474 173.237C203.474 179.413 198.945 183.205 191.559 183.205ZM83.821 16.4004H97.5358V44.8845H83.821V16.4004ZM83.821 74.9077H97.5358V103.39H83.821V74.9077Z" fill="#130754"/>
<path d="M83.8206 53.1934H97.5368V66.631H83.8206V53.1934Z" fill="#FFCA00"/>
<path d="M61.7874 39.8203H75.5036V134.498H61.7874V39.8203ZM105.403 98.4068H119.121V126.889H105.403V98.4068ZM105.403 39.8551H119.121V68.3376H105.403V39.8551Z" fill="#130754"/>
<path d="M105.403 76.6504H119.12V90.0864H105.403V76.6504Z" fill="#E70488"/>
<path d="M126.977 8.97656H140.695V103.651H126.977V8.97656Z" fill="#130754"/>
</svg>
