<svg width="108" height="143" viewBox="0 0 108 143" fill="none" xmlns="http://www.w3.org/2000/svg">
<mask id="mask0_911_2192" style="mask-type:luminance" maskUnits="userSpaceOnUse" x="0" y="0" width="108" height="143">
<path d="M59.8708 6.07333C59.8708 2.80458 62.5211 0.154297 65.7899 0.154297H101.305C104.574 0.154297 107.224 2.80458 107.224 6.07333V136.295C107.224 139.563 104.574 142.213 101.305 142.213H6.59872C3.32998 142.213 0.679688 139.563 0.679688 136.294V77.1034C0.679688 73.8342 3.32998 71.1843 6.59872 71.1843H30.2757V41.5884C30.2757 38.3192 32.9255 35.6689 36.1947 35.6689H59.8708V6.07333Z" fill="white"/>
</mask>
<g mask="url(#mask0_911_2192)">
<path d="M107.223 0.154297V142.213H59.8704V0.154297H107.223Z" fill="url(#paint0_linear_911_2192)"/>
</g>
<mask id="mask1_911_2192" style="mask-type:luminance" maskUnits="userSpaceOnUse" x="0" y="0" width="108" height="143">
<path d="M59.8708 6.07333C59.8708 2.80458 62.5211 0.154297 65.7899 0.154297H101.305C104.574 0.154297 107.224 2.80458 107.224 6.07333V136.295C107.224 139.563 104.574 142.213 101.305 142.213H6.59872C3.32998 142.213 0.679688 139.563 0.679688 136.294V77.1034C0.679688 73.8342 3.32998 71.1843 6.59872 71.1843H30.2757V41.5884C30.2757 38.3192 32.9255 35.6689 36.1947 35.6689H59.8708V6.07333Z" fill="white"/>
</mask>
<g mask="url(#mask1_911_2192)">
<path d="M77.6282 42.1827V142.808H30.2747V36.2637H71.7087C74.9775 36.2637 77.6277 38.9135 77.6277 42.1827" fill="black" fill-opacity="0.2"/>
</g>
<mask id="mask2_911_2192" style="mask-type:luminance" maskUnits="userSpaceOnUse" x="0" y="0" width="108" height="143">
<path d="M59.8708 6.07333C59.8708 2.80458 62.5211 0.154297 65.7899 0.154297H101.305C104.574 0.154297 107.224 2.80458 107.224 6.07333V136.295C107.224 139.563 104.574 142.213 101.305 142.213H6.59872C3.32998 142.213 0.679688 139.563 0.679688 136.294V77.1034C0.679688 73.8342 3.32998 71.1843 6.59872 71.1843H30.2757V41.5884C30.2757 38.3192 32.9255 35.6689 36.1947 35.6689H59.8708V6.07333Z" fill="white"/>
</mask>
<g mask="url(#mask2_911_2192)">
<path d="M77.6282 44.5484V145.173H30.2747V38.6289H71.7087C74.9775 38.6289 77.6277 41.2792 77.6277 44.5484" fill="black" fill-opacity="0.18"/>
</g>
<mask id="mask3_911_2192" style="mask-type:luminance" maskUnits="userSpaceOnUse" x="0" y="0" width="108" height="143">
<path d="M59.8708 6.07333C59.8708 2.80458 62.5211 0.154297 65.7899 0.154297H101.305C104.574 0.154297 107.224 2.80458 107.224 6.07333V136.295C107.224 139.563 104.574 142.213 101.305 142.213H6.59872C3.32998 142.213 0.679688 139.563 0.679688 136.294V77.1034C0.679688 73.8342 3.32998 71.1843 6.59872 71.1843H30.2757V41.5884C30.2757 38.3192 32.9255 35.6689 36.1947 35.6689H59.8708V6.07333Z" fill="white"/>
</mask>
<g mask="url(#mask3_911_2192)">
<path d="M77.6282 41.5855V142.21H30.2747V35.666H71.7087C74.9775 35.666 77.6277 38.3163 77.6277 41.5855" fill="url(#paint1_linear_911_2192)"/>
</g>
<mask id="mask4_911_2192" style="mask-type:luminance" maskUnits="userSpaceOnUse" x="0" y="0" width="108" height="143">
<path d="M59.8708 6.07333C59.8708 2.80458 62.5211 0.154297 65.7899 0.154297H101.305C104.574 0.154297 107.224 2.80458 107.224 6.07333V136.295C107.224 139.563 104.574 142.213 101.305 142.213H6.59872C3.32998 142.213 0.679688 139.563 0.679688 136.294V77.1034C0.679688 73.8342 3.32998 71.1843 6.59872 71.1843H30.2757V41.5884C30.2757 38.3192 32.9255 35.6689 36.1947 35.6689H59.8708V6.07333Z" fill="white"/>
</mask>
<g mask="url(#mask4_911_2192)">
<path d="M0.679688 71.1836V142.213H48.0328V77.103C48.0328 73.8339 45.3825 71.184 42.1137 71.184L0.679688 71.1836Z" fill="url(#paint2_linear_911_2192)"/>
</g>
<defs>
<linearGradient id="paint0_linear_911_2192" x1="2076.78" y1="0.154262" x2="7310.67" y2="11094.5" gradientUnits="userSpaceOnUse">
<stop stop-color="#E6AD10"/>
<stop offset="1" stop-color="#C87E0E"/>
</linearGradient>
<linearGradient id="paint1_linear_911_2192" x1="1930.19" y1="35.6659" x2="6296.52" y2="8503.98" gradientUnits="userSpaceOnUse">
<stop stop-color="#F6D751"/>
<stop offset="1" stop-color="#E6AD10"/>
</linearGradient>
<linearGradient id="paint2_linear_911_2192" x1="1315.86" y1="71.1836" x2="3974.23" y2="6371.33" gradientUnits="userSpaceOnUse">
<stop stop-color="#F9E589"/>
<stop offset="1" stop-color="#F6D751"/>
</linearGradient>
</defs>
</svg>
