<svg width="204" height="204" viewBox="0 0 204 204" fill="none" xmlns="http://www.w3.org/2000/svg">
<path fill-rule="evenodd" clip-rule="evenodd" d="M82.7581 37.2062C88.7057 37.2062 94.6533 37.2981 100.593 37.1429C102.169 37.1017 104.995 38.405 104.869 35.1303C104.772 32.4652 102.3 33.4296 100.802 33.4058C94.0928 33.2997 87.3613 33.0448 80.6789 33.4644C75.9237 33.7605 74.5223 31.9553 75.1193 27.5944C75.3251 26.09 75.1272 24.5319 75.1589 22.999C75.3679 12.7918 77.835 9.31757 87.735 6.7998C98.6422 4.02867 109.804 4.12051 120.681 6.50844C130.459 8.65567 134.521 16.2628 134.027 23.2999C133.425 31.8873 133.891 40.549 133.883 49.1791C133.869 60.0309 128.262 65.7901 117.321 65.9405C108.311 66.064 99.2898 66.1622 90.2845 65.912C79.5515 65.6111 71.6783 74.5263 71.6245 84.629C71.6245 85.3954 71.7559 86.1872 71.6039 86.9267C70.8311 90.6368 73.919 96.6336 69.9856 97.7357C63.9999 99.4174 56.9913 99.4173 51.7119 94.0762C49.9226 92.271 48.4151 90.2489 47.6202 87.9116C43.378 75.4574 42.7082 62.8447 46.7017 50.1957C49.191 42.3004 55.9621 37.3899 64.3499 37.249C70.4844 37.1461 76.6204 37.2284 82.7549 37.2284L82.7581 37.2062ZM93.6874 19.5977C93.4309 16.5843 91.811 14.3848 88.4682 14.2929C84.8119 14.1979 82.9228 16.4085 82.918 20.0062C82.9148 23.3411 84.7311 25.4772 88.0501 25.5738C91.6969 25.6799 93.4625 23.4203 93.6874 19.5977Z" fill="#386F9F"/>
<path fill-rule="evenodd" clip-rule="evenodd" d="M128.666 98.2452C121.952 98.2452 115.235 98.1866 108.521 98.2927C107.008 98.3117 104.472 97.3553 104.392 99.9412C104.304 102.874 107.026 102.111 108.755 102.128C115.469 102.212 122.189 102.283 128.902 102.096C132.351 102.001 133.759 102.662 134.017 106.728C135.184 125.136 127.195 126.728 112.46 130.077C104.008 131.998 94.9453 130.979 86.6098 127.246C79.7168 124.162 75.4873 119.719 76.0209 111.399C76.5498 103.187 76.6385 94.8692 76.0066 86.6651C75.2466 76.7634 81.4064 69.4809 93.3856 69.4777C101.446 69.4761 109.559 68.8617 117.55 69.5965C128.975 70.6448 137.933 60.7415 138.325 49.2263C138.341 48.8447 138.243 48.4345 138.341 48.0798C139.348 44.5407 135.766 39.2803 140.558 37.4925C147.799 34.7927 155.966 37.6303 159.665 43.1251C164.328 50.0434 164.958 58.1842 165.712 66.1334C166.528 74.7017 164.124 82.7681 160.524 90.4972C158.08 95.7385 153.969 98.2722 148.241 98.2801C141.717 98.2848 135.195 98.2801 128.669 98.2801L128.666 98.2452ZM126.918 115.347C126.2 112.076 124.725 109.843 120.924 109.749C116.972 109.654 115.952 112.611 115.973 115.25C115.995 118.056 116.777 121.508 121.056 121.185C124.612 120.913 126.346 118.71 126.918 115.347Z" fill="#FFCF46"/>
<path fill-rule="evenodd" clip-rule="evenodd" d="M23.0525 182.627C23.0525 186.716 23.2378 190.545 22.9654 194.34C22.8482 195.978 24.6534 199.059 21.2188 199.056C18.1911 199.056 17.4136 196.646 17.5102 193.734C17.6955 188.176 17.5641 182.607 17.5641 177.044V164.379C17.5641 156.746 19.6115 154.162 26.9115 152.582C33.6984 151.106 39.0316 153.391 41.7742 159.332C44.5168 165.275 44.729 171.399 41.9848 177.444C39.2802 183.402 34.2985 185.625 27.917 183.859C26.4633 183.463 24.9954 183.12 23.0525 182.627ZM23.0525 167.666C23.0525 169.772 23.3375 171.92 22.9939 173.969C22.199 178.705 25.2235 179.872 28.7895 180.714C32.316 181.547 34.734 180.048 36.148 176.941C38.5249 171.731 38.9239 166.358 37.1187 160.849C35.5162 155.953 31.8156 155.38 27.4958 155.988C23.2298 156.594 22.6519 159.495 23.024 163.082C23.1823 164.594 23.0525 166.138 23.0525 167.666ZM68.9534 182.374C66.0319 183.134 63.4951 183.945 60.8982 184.432C55.2134 185.495 51.0044 182.374 49.5239 176.683C47.687 169.639 49.242 162.623 49.2895 155.595C49.3101 152.392 52.2744 153.641 54.325 151.925C54.325 159.446 54.3536 165.939 54.3156 172.426C54.295 175.685 55.1374 178.364 58.2189 180.083C61.6202 181.98 64.4104 180.173 67.3715 178.955C69.4934 178.083 69.229 176.301 69.2321 174.607C69.248 168.475 69.2306 162.35 69.2511 156.219C69.2543 154.707 69.0975 152.859 71.3303 152.933C73.3207 152.998 74.1869 154.181 74.1537 156.351C74.0096 166.496 74.2962 176.656 73.8845 186.787C73.5725 194.448 68.168 199.127 60.393 199.471C59.2292 199.52 58.0099 199.628 57.5744 198.184C56.9109 195.96 58.7114 196.38 59.8942 196.002C68.4467 193.281 69.5647 191.656 68.9534 182.374ZM105.095 156.048C107.358 154.979 108.658 154.001 110.088 153.736C118.112 152.252 124.26 152.818 124.245 163.625C124.233 169.191 124.248 174.759 124.233 180.323C124.23 181.881 124.33 183.398 122.007 183.533C119.557 183.679 119.019 182.277 119.03 180.356C119.059 174.993 119.204 169.63 119.2 164.268C119.196 160.103 118.346 156.417 113.049 156.43C108.403 156.438 105.113 159.906 105.089 164.691C105.062 169.871 105.064 175.051 105.094 180.231C105.098 182.071 105.138 183.685 102.478 183.533C100.082 183.39 100.376 181.775 100.376 180.288C100.361 166.67 100.427 153.038 100.312 139.41C100.291 137.022 101.233 135.54 103.352 135.439C106.341 135.301 104.972 137.915 105.016 139.227C105.211 144.565 105.095 149.915 105.095 156.048ZM130.415 168.259C130.113 157.625 135.156 151.948 144.287 152.278C148.87 152.446 152.307 154.479 154.526 158.438C158.445 165.44 157.915 172.445 153.674 179.003C150.76 183.506 146.279 185.63 140.816 184.47C135.429 183.33 131.21 178.48 130.447 172.827C130.244 171.331 130.415 169.78 130.415 168.259ZM151.508 168.507C151.267 166.651 151.31 164.064 150.537 161.755C149.481 158.588 147.555 156.039 143.627 155.864C139.663 155.693 137.685 158.01 136.363 161.217C134.287 166.251 134.422 171.305 136.67 176.249C138.114 179.433 140.344 181.764 144.208 181.118C148.013 180.483 150.258 177.989 151.036 174.289C151.389 172.612 151.332 170.854 151.508 168.507ZM162.603 169.924C162.603 168.005 162.567 166.089 162.61 164.179C162.698 160.498 161.525 156.419 166.489 154.537C172.174 152.39 177.808 150.781 183.531 154.105C185.672 155.35 186.46 157.611 186.482 160.012C186.541 166.711 186.452 173.414 186.543 180.114C186.574 182.451 185.96 183.62 183.333 183.557C180.454 183.489 181.061 181.525 181.08 179.957C181.148 174.605 181.52 169.258 181.418 163.913C181.285 157.183 177.593 154.439 171.301 156.091C168.692 156.778 167.061 158.045 167.189 161.275C167.444 167.581 167.248 173.908 167.271 180.225C167.278 182.056 167.305 183.677 164.663 183.523C162.244 183.384 162.64 181.71 162.621 180.258C162.576 176.813 162.608 173.365 162.603 169.924ZM93.6133 155.001C93.2174 155.47 92.8849 156.205 92.5365 156.211C86.2595 156.298 88.0014 160.984 87.8399 164.46C87.6863 167.698 87.8399 170.952 87.7939 174.2C87.7464 177.427 88.0267 180.426 91.9538 181.283C93.0797 181.527 93.5927 182.176 93.3584 183.3C93.1003 184.542 92.1106 184.493 91.1304 184.48C86.6174 184.401 83.2715 181.21 83.1384 176.539C83.0023 171.766 83.1875 166.982 83.0751 162.214C83.0165 159.95 84.1931 157.06 80.5415 156.162C80.1409 156.066 79.9984 154.93 79.7371 154.283C84.6079 152.754 82.5874 148.553 83.2556 145.366C83.5723 143.857 85.0054 143.443 86.3593 143.315C87.729 143.185 87.7401 144.294 87.7844 145.22C87.965 148.894 86.0632 153.811 92.8263 153.543C93.0527 153.535 93.3172 154.435 93.6133 155.001Z" fill="#386F9F"/>
</svg>
