<svg width="313" height="67" viewBox="0 0 313 67" fill="none" xmlns="http://www.w3.org/2000/svg">
<path d="M32.8637 3.22785V6.29857H27.3718V8.29555H32.8637V14.4114H35.0106V8.29555H40.6401V6.29857H35.0106V0.169922H32.8637V3.22785Z" fill="#7099A6"/>
<path d="M14.9144 11.0125V15.4684H6.60107V18.2643H14.9144V27.3137H17.9973V18.2643H26.4349V15.4684H17.9973V6.55664H14.9144V11.0125Z" fill="#EB912C"/>
<path d="M49.7514 11.0125V15.4684H41.4387V18.402H49.7514V27.3137H52.9593V18.402H61.272V15.4684H52.9593V6.55664H49.7514V11.0125Z" fill="#59879B"/>
<path d="M32.0638 26.1881V31.1808H22.8145V34.9005H32.0638V44.8854H35.8079V34.9005H45.0572V31.1808H35.8079V21.1953H32.0638V26.1881Z" fill="#E8762C"/>
<path d="M59.2614 28.7138V31.8467H53.6318V34.3806H59.2614V40.6341H62.0695V34.3806H67.699V31.8467H62.0695V25.5938H59.2614V28.7138Z" fill="#5B6591"/>
<path d="M5.66567 28.9899V31.9857H0.173828V34.1076H5.66567V40.0985H7.81255V34.1076L13.4421 33.9077V31.9857H7.81255V25.9941H5.66567V28.9899Z" fill="#7099A6"/>
<path d="M14.9144 43.0945V47.5504H6.60107V50.484H14.9144V59.3958H18.1222V50.484H26.4349V47.5504H18.1222V38.6387H14.9144V43.0945Z" fill="#C72035"/>
<path d="M49.7514 43.0945V47.5504H41.4387V50.3463H49.7514V59.3958H52.9593V50.3463H61.272V47.5504H52.9593V38.6387H49.7514V43.0945Z" fill="#1F447E"/>
<path d="M32.6001 54.4147V57.5348H26.9712V60.0687H32.6001V66.3223H35.4088V60.0687H41.0378V57.5348H35.4088V51.2812H32.6001V54.4147Z" fill="#5B6591"/>
<path d="M205.7 13.4766V51.4215H201.419V13.4766H205.7ZM99.3175 18.8063V30.9137H110.838V34.9083H99.3175V47.9517H95.0359V34.9083H83.5154V30.9137H95.0359V18.8063H99.3175ZM233.309 27.1196C234.083 27.1562 235.069 27.2817 235.519 27.3938C236.067 27.5453 236.601 27.7416 237.116 27.9807C237.566 28.1806 238.29 28.6169 238.727 28.9539C239.176 29.2909 239.8 29.9155 240.125 30.3396C240.449 30.7638 240.911 31.5377 241.161 32.0496C241.411 32.5615 241.735 33.4603 241.885 34.0466C242.034 34.6334 242.209 35.8193 242.347 38.2404H227.543L227.63 38.7401C227.668 39.0143 227.83 39.6012 227.955 40.0381C228.092 40.475 228.442 41.1612 228.716 41.5482C228.991 41.9352 229.403 42.3971 229.615 42.5598C229.84 42.7219 230.289 42.9961 230.626 43.171C231.037 43.3644 231.462 43.523 231.899 43.6451C232.273 43.745 233.272 43.8322 234.171 43.8322C235.057 43.8322 236.33 43.745 236.992 43.6329C237.654 43.5208 238.589 43.2959 239.064 43.1454C239.538 42.9961 240.162 42.759 240.437 42.6213C240.711 42.4842 240.998 42.3593 241.073 42.3593C241.157 42.3593 241.206 43.0576 241.21 45.9547V46.3538L240.474 46.6908C240.062 46.8779 239.213 47.1777 238.564 47.3648C237.915 47.5397 236.73 47.764 235.918 47.8517C234.807 47.9639 234.058 47.9639 232.897 47.8517C232.049 47.764 230.813 47.5397 230.151 47.352C229.49 47.1649 228.529 46.7908 228.03 46.5159C227.518 46.2417 226.657 45.6049 226.108 45.093C225.546 44.5811 224.847 43.745 224.523 43.2332C224.198 42.7213 223.799 41.848 223.611 41.2989C223.424 40.7493 223.2 39.7883 223.112 39.1764C223.012 38.4903 222.987 37.5292 223.037 36.7803C223.075 36.0813 223.237 35.0326 223.387 34.4463C223.537 33.8601 223.898 32.8985 224.185 32.3116C224.473 31.7254 225.009 30.8887 225.359 30.4518C225.721 30.0148 226.432 29.3409 226.944 28.9539C227.456 28.5669 228.317 28.0806 228.853 27.8558C229.378 27.6309 230.289 27.3689 230.863 27.2567C231.549 27.1318 232.373 27.0818 233.309 27.1196ZM277.783 26.9197V33.6096C277.783 37.2922 277.745 41.6981 277.582 46.5038L276.509 46.828C275.922 47.0029 274.736 47.2777 273.863 47.4148C272.752 47.6147 271.691 47.689 270.256 47.689C269.12 47.689 267.809 47.6269 267.335 47.5519C266.861 47.4648 265.925 47.2277 265.263 47.0156C264.552 46.7902 263.628 46.3538 263.054 45.9797C262.492 45.6171 261.718 44.9803 261.319 44.544C260.932 44.1198 260.383 43.3709 260.12 42.8962C259.858 42.4221 259.496 41.5482 259.322 40.9741C259.06 40.1381 258.985 39.4891 258.922 37.9784C258.885 36.7675 258.922 35.6944 259.022 35.1081C259.109 34.5962 259.334 33.7346 259.522 33.1855C259.696 32.6364 260.108 31.7626 260.433 31.2507C260.745 30.7388 261.419 29.9277 261.93 29.453C262.505 28.9289 263.254 28.3926 263.865 28.0928C264.414 27.8308 265.213 27.506 265.663 27.3817C266.1 27.2689 267.185 27.1318 268.071 27.0946C269.257 27.0447 269.944 27.0946 270.68 27.2439C271.242 27.3689 272.078 27.6437 272.565 27.868C273.039 28.0806 273.451 28.2677 273.463 28.2549C273.487 28.2549 273.499 28.0032 273.501 27.6827V26.9197H277.783ZM145.275 26.9197V35.2428L145.274 36.1118C145.264 40.018 145.21 43.8523 145.076 46.5038L144.002 46.828C143.416 47.0029 142.18 47.2777 141.256 47.4398C139.846 47.6768 139.209 47.7018 137.175 47.6519C135.29 47.6019 134.529 47.5269 133.692 47.3149C133.093 47.1528 132.07 46.7658 131.408 46.441C130.709 46.0918 129.872 45.5427 129.398 45.1308C128.961 44.731 128.338 44.0199 128.038 43.558C127.726 43.0832 127.314 42.3349 127.139 41.898C126.964 41.461 126.702 40.5872 126.577 39.9753C126.403 39.0771 126.365 38.4153 126.415 36.8431C126.477 35.3318 126.565 34.5956 126.777 33.8473C126.939 33.2976 127.314 32.3994 127.601 31.8497C127.888 31.3013 128.462 30.4646 128.887 30.0027C129.323 29.5285 130.035 28.9039 130.471 28.6047C130.909 28.3177 131.633 27.9307 132.082 27.7558C132.658 27.5383 133.251 27.3671 133.855 27.2439C134.391 27.144 135.39 27.0569 136.064 27.0569C136.75 27.0569 137.724 27.1568 138.248 27.2567C138.76 27.3689 139.571 27.6437 140.058 27.868C140.533 28.0806 140.944 28.2677 140.957 28.2549C140.969 28.2549 140.994 27.9557 140.994 27.5937V26.9197H145.275ZM170.326 17.4711L170.327 23.8137C170.331 27.726 170.368 27.9758 170.563 27.9179C170.701 27.868 171.349 27.6937 172.011 27.506C172.797 27.2939 173.746 27.1568 174.757 27.0946C175.906 27.0447 176.579 27.0824 177.429 27.2439C178.153 27.3817 179.013 27.6809 179.775 28.0556C180.437 28.3798 181.311 28.9289 181.723 29.2909C182.122 29.6407 182.758 30.3768 183.12 30.9265C183.495 31.4749 183.957 32.3494 184.156 32.8857C184.368 33.4098 184.631 34.3964 184.755 35.0825C184.905 35.9814 184.943 36.7553 184.893 37.9784C184.855 38.8894 184.718 40.0259 184.593 40.5C184.481 40.9741 184.181 41.7858 183.944 42.2977C183.707 42.809 183.233 43.5957 182.896 44.0321C182.571 44.469 181.91 45.118 181.435 45.48C180.974 45.842 180.125 46.3411 179.576 46.5909C179.026 46.8529 178.115 47.1777 177.566 47.3277C176.705 47.5647 176.155 47.6019 173.684 47.6141C171.35 47.6269 170.588 47.5775 169.665 47.377C168.899 47.2032 168.137 47.0118 167.38 46.803C166.756 46.6281 166.207 46.4288 166.157 46.3788C166.107 46.3289 166.045 39.8132 166.02 31.8875L165.97 17.4711H170.326ZM298.826 27.4566L298.814 34.1465V35.868C298.818 40.0217 298.845 40.8206 299.008 41.4598L299.026 41.5275C299.042 41.5839 299.058 41.6408 299.076 41.6981C299.238 42.1978 299.538 42.784 299.788 43.0832C300.025 43.3581 300.524 43.7329 300.898 43.9071C301.26 44.082 301.959 44.2819 302.434 44.3441C302.946 44.419 303.67 44.419 304.181 44.3441C304.656 44.2819 305.355 44.082 305.717 43.9071C306.091 43.7329 306.59 43.3587 306.828 43.0832C307.077 42.784 307.389 42.1972 307.539 41.6981C307.559 41.6329 307.577 41.5701 307.594 41.5037L307.606 41.4531C307.762 40.795 307.793 39.6067 307.8 32.2105V31.6139L307.8 31.3055V29.6626L307.801 29.3128V27.4566H312.183L312.158 34.6834C312.147 40.7133 312.135 41.7475 311.962 42.4294L311.946 42.4903L311.92 42.5781L311.902 42.6372L311.883 42.6969C311.733 43.1332 311.421 43.795 311.184 44.157C310.946 44.5312 310.535 45.043 310.248 45.3179C309.974 45.5921 309.374 46.029 308.938 46.2911C308.5 46.5531 307.652 46.9157 307.065 47.1028C306.391 47.3149 305.492 47.477 304.656 47.5397C303.907 47.5769 302.709 47.5769 301.973 47.5275C301.136 47.477 300.225 47.3149 299.564 47.1028C298.965 46.9157 298.128 46.5537 297.679 46.2911C297.242 46.029 296.655 45.5921 296.369 45.3179C296.094 45.0437 295.669 44.5318 295.432 44.157C295.207 43.795 294.896 43.1332 294.746 42.6969L294.735 42.667L294.716 42.6091C294.696 42.5506 294.678 42.4914 294.662 42.4318L294.646 42.3696C294.479 41.681 294.465 40.5012 294.433 34.6834L294.384 27.456L298.826 27.4566ZM269.207 31.0636C268.733 31.0636 268.009 31.1635 267.61 31.2635C267.198 31.3756 266.574 31.6255 266.212 31.8247C265.85 32.024 265.326 32.4366 265.039 32.7486C264.752 33.0606 264.377 33.6096 264.19 33.9844C264.002 34.3464 263.765 35.0204 263.653 35.4823C263.541 35.9314 263.453 36.8175 263.453 37.4415C263.453 38.0655 263.541 38.9522 263.653 39.4013C263.765 39.8632 263.978 40.4872 264.14 40.7992C264.302 41.1113 264.714 41.6603 265.051 42.0101C265.388 42.3721 265.937 42.7962 266.262 42.9589C266.599 43.1332 267.198 43.3709 267.61 43.483C268.071 43.6201 268.833 43.6951 269.719 43.6951C270.468 43.6951 271.529 43.6329 272.053 43.558C272.59 43.483 273.101 43.3709 273.176 43.3203C273.288 43.2581 273.351 41.6481 273.388 37.7913L273.426 32.3372C272.078 31.6504 271.329 31.3634 270.88 31.2507C270.443 31.1386 269.694 31.0508 269.207 31.0636ZM135.09 31.2635C134.691 31.3756 134.066 31.6255 133.705 31.8247C133.344 32.024 132.818 32.4366 132.531 32.7486C132.244 33.0606 131.857 33.6096 131.683 33.9844C131.495 34.3464 131.258 35.0204 131.146 35.4823C131.033 35.9314 130.946 36.7553 130.946 37.3044C130.946 37.8534 131.009 38.6652 131.083 39.1021C131.171 39.5384 131.395 40.2624 131.607 40.6993C131.857 41.2234 132.257 41.7603 132.769 42.235C133.268 42.6969 133.855 43.0832 134.366 43.2831C134.99 43.533 135.49 43.6079 136.775 43.6701C137.687 43.7079 138.835 43.6579 139.447 43.5701C140.033 43.483 140.582 43.3709 140.67 43.3203C140.77 43.2581 140.845 41.5232 140.907 37.8035L140.994 32.3866C139.896 31.7876 139.284 31.5127 138.91 31.3878C138.548 31.2507 137.699 31.1258 137.038 31.1014C136.214 31.0636 135.602 31.1136 135.09 31.2635ZM174.42 31.0636C173.908 31.0758 173.234 31.1386 172.947 31.2007C172.648 31.2635 171.961 31.4749 171.399 31.6754L170.401 32.0246V43.0967C172.498 43.6457 172.947 43.6835 174.345 43.6457C175.718 43.6085 176.167 43.5458 176.829 43.2965C177.266 43.1216 177.877 42.7968 178.165 42.5598C178.465 42.3355 178.889 41.9108 179.114 41.6238C179.338 41.3367 179.662 40.7377 179.825 40.3008C180 39.8638 180.2 39.0271 180.275 38.4409C180.387 37.6426 180.387 37.0929 180.262 36.244C180.168 35.5162 179.957 34.8084 179.638 34.1477C179.388 33.6103 178.951 32.9491 178.677 32.6742C178.403 32.4 177.903 32.013 177.566 31.8253C177.241 31.6261 176.605 31.3762 176.155 31.2641C175.718 31.1392 174.932 31.0508 174.42 31.0636ZM231.824 31.2513C231.424 31.364 230.776 31.6511 230.376 31.8881C229.977 32.1252 229.415 32.5871 229.116 32.9119C228.829 33.2483 228.442 33.7979 228.267 34.1471C228.092 34.4963 227.942 34.8339 227.942 34.9089C227.942 34.9917 229.471 35.0411 232.301 35.0454H237.528C237.391 34.06 237.266 33.5731 237.166 33.311C237.054 33.0612 236.729 32.5871 236.442 32.2751C236.093 31.8881 235.668 31.6133 235.182 31.4262C234.77 31.2891 234.021 31.1392 233.509 31.1014C232.91 31.077 232.298 31.1264 231.824 31.2513Z" fill="#1F447E"/>
</svg>
